<svg version="1.0" xmlns="http://www.w3.org/2000/svg"
 width="455.000000pt" height="422.000000pt" viewBox="0 0 455.000000 422.000000"
 preserveAspectRatio="xMidYMid meet">

<g transform="translate(0.000000,422.000000) scale(0.100000,-0.100000)"
fill="#000000" stroke="none">
<path d="M3503 3955 c-57 -14 -134 -38 -171 -54 -38 -17 -87 -34 -110 -40 -61
-13 -88 -35 -117 -91 -57 -112 -84 -397 -49 -520 13 -50 26 -136 28 -200 1
-17 -5 -25 -19 -28 -52 -8 -66 -14 -91 -40 -61 -64 -78 -100 -77 -165 1 -40 8
-78 22 -107 35 -76 24 -163 -27 -217 -28 -28 -116 -61 -193 -70 -57 -7 -63
-11 -80 -43 -11 -19 -19 -49 -19 -66 0 -23 -7 -36 -25 -48 -14 -9 -28 -29 -31
-44 -18 -77 -59 -107 -178 -132 -40 -8 -68 -21 -89 -41 -27 -27 -35 -29 -74
-23 -34 5 -48 3 -63 -11 -18 -16 -20 -16 -44 3 -57 44 -302 75 -386 49 -23 -7
-27 -3 -59 60 -40 78 -153 197 -243 256 -123 80 -275 127 -414 127 l-74 0 0
38 c0 45 -25 135 -48 171 -14 23 -53 70 -114 139 -34 37 -41 97 -22 174 21 87
24 92 227 336 65 79 104 163 90 195 -6 12 -23 29 -39 36 -16 8 -52 30 -80 48
-48 32 -159 67 -194 61 -8 -2 -27 8 -40 21 -89 85 -166 108 -242 72 -55 -25
-64 -33 -120 -106 -51 -65 -68 -102 -68 -143 0 -15 15 -92 33 -172 33 -149 33
-156 8 -275 -13 -56 -5 -116 29 -214 l21 -63 -46 -49 c-72 -77 -90 -125 -90
-244 0 -86 3 -106 24 -145 54 -102 107 -149 209 -186 l53 -18 -8 -51 c-4 -27
-8 -113 -8 -190 1 -115 5 -154 23 -220 54 -189 112 -296 221 -406 89 -89 156
-127 273 -153 19 -4 34 -19 48 -46 27 -54 77 -98 125 -111 73 -20 80 -25 97
-75 12 -34 36 -67 75 -107 75 -73 89 -83 143 -102 45 -15 83 -45 130 -101 14
-16 49 -49 79 -72 l54 -43 67 7 c62 6 70 4 123 -26 31 -17 60 -36 63 -41 3 -5
49 -9 102 -9 88 0 98 2 110 21 13 20 14 20 39 4 21 -14 38 -16 92 -10 36 4 84
13 106 21 22 7 63 14 90 14 57 0 144 37 237 101 47 32 62 37 78 29 32 -17 59
-12 130 26 53 28 106 73 241 206 167 165 175 175 220 267 31 64 75 132 133
203 47 59 91 119 96 133 6 15 10 59 10 98 0 62 5 79 30 122 22 36 30 63 30 97
0 48 0 48 62 85 116 71 132 92 193 251 30 79 55 153 55 166 0 13 -9 49 -21 82
-16 46 -20 82 -20 164 0 58 -4 138 -11 178 -9 59 -16 78 -41 102 -17 17 -34
30 -39 30 -16 0 -7 23 16 41 26 20 166 200 166 213 0 4 11 22 25 40 14 18 25
36 25 41 0 4 13 24 28 44 60 76 100 198 88 264 -10 52 -59 139 -127 222 -74
92 -95 100 -229 90 l-97 -6 -35 41 c-20 22 -41 61 -48 86 -23 81 -69 90 -247
49z m199 -104 c30 -64 74 -113 120 -132 23 -9 44 -10 91 -1 34 6 81 9 104 5
38 -5 49 -13 96 -72 73 -91 96 -131 106 -184 10 -55 -10 -122 -60 -194 -17
-27 -54 -84 -82 -128 -67 -108 -161 -221 -208 -252 -35 -23 -45 -25 -97 -19
-48 5 -60 4 -73 -12 -10 -12 -42 -22 -97 -31 -80 -12 -85 -11 -147 13 -35 14
-74 26 -88 26 -47 0 -92 26 -105 62 -12 35 -50 70 -89 82 -27 9 -32 24 -34
101 -1 33 -8 87 -15 120 -32 143 -4 427 50 513 19 30 33 41 61 46 20 4 65 20
100 37 84 38 227 77 290 78 l50 1 27 -59z m-3068 -126 c25 -20 46 -38 46 -40
0 -2 -36 -50 -81 -107 -44 -57 -89 -119 -99 -139 -32 -62 -69 -209 -88 -354
-17 -124 -20 -137 -31 -112 -16 40 -14 100 6 182 l17 69 -38 146 c-50 197 -50
206 21 300 49 65 88 89 149 89 44 1 58 -4 98 -34z m197 -98 c34 -11 110 -58
147 -92 12 -11 -45 -101 -104 -165 -136 -147 -180 -210 -203 -286 -12 -39 -21
-98 -21 -132 l0 -60 -92 -4 c-51 -2 -94 -3 -96 -2 -20 13 13 276 50 404 34
119 74 185 194 323 27 31 57 34 125 14z m2306 -671 c49 -24 63 -40 63 -74 0
-28 60 -60 143 -77 43 -8 90 -23 103 -32 33 -21 115 -20 229 2 75 15 95 16
140 5 29 -7 60 -10 69 -7 8 3 26 -3 39 -13 31 -25 40 -75 42 -240 1 -101 6
-138 24 -191 21 -62 22 -69 8 -100 -9 -19 -32 -74 -53 -124 -43 -105 -64 -130
-148 -181 -33 -20 -99 -61 -146 -90 -89 -55 -117 -62 -190 -49 -56 10 -80 25
-103 68 -24 44 -65 67 -119 67 -67 0 -162 44 -264 122 -79 59 -102 71 -159 83
-37 8 -74 20 -83 27 -21 17 -72 132 -72 161 0 31 18 47 55 47 41 0 122 23 170
48 112 58 154 205 96 332 -30 65 -27 114 10 172 30 46 38 52 66 49 6 -1 14 3
18 9 8 13 3 14 62 -14z m-2486 -136 c20 -6 48 -21 63 -35 15 -14 33 -25 41
-25 17 0 64 -56 82 -98 18 -44 32 -119 26 -142 -3 -11 -21 -24 -41 -31 -56
-18 -147 -66 -181 -94 -17 -15 -45 -48 -62 -75 -17 -27 -38 -51 -45 -54 -46
-18 -177 72 -216 148 -31 61 -37 179 -11 237 25 57 69 108 108 126 16 8 46 23
65 34 39 21 113 25 171 9z m524 -403 c209 -68 386 -237 444 -424 17 -51 8
-104 -23 -139 -18 -21 -36 -29 -86 -35 -34 -5 -77 -18 -94 -28 -41 -26 -104
-110 -112 -149 -4 -17 -21 -48 -38 -68 -25 -29 -42 -38 -76 -43 -52 -7 -76
-35 -89 -103 -4 -26 -26 -77 -47 -113 -38 -64 -40 -66 -73 -61 -51 8 -131 53
-184 104 -248 239 -323 709 -154 959 18 25 39 50 47 54 40 19 157 68 175 73
11 3 67 3 125 2 79 -3 125 -10 185 -29z m1465 -238 c19 -56 79 -106 139 -114
71 -10 74 -12 164 -84 47 -37 107 -76 134 -86 26 -10 53 -21 58 -26 6 -4 41
-11 78 -15 65 -7 67 -8 91 -49 31 -53 63 -74 138 -91 71 -17 128 -10 184 22
22 13 44 24 47 24 13 0 7 -29 -14 -65 -16 -27 -23 -59 -27 -127 -5 -85 -7 -93
-41 -137 -127 -164 -162 -216 -194 -283 -32 -66 -57 -95 -202 -241 -186 -185
-253 -231 -318 -220 -32 5 -48 -1 -120 -45 -110 -67 -150 -84 -227 -93 -36 -5
-97 -15 -137 -22 -50 -10 -77 -11 -90 -3 -10 5 -33 12 -51 15 -31 6 -34 10
-68 111 -30 89 -41 110 -76 141 -33 30 -40 42 -35 60 4 13 14 58 24 100 17 75
17 76 -6 129 -24 56 -23 85 3 143 42 92 46 213 11 276 -30 52 -31 70 -5 151
12 36 20 90 20 128 0 63 2 67 36 99 28 25 35 39 32 58 -5 24 -3 25 38 25 34 0
51 7 77 29 20 18 57 35 97 46 36 8 77 21 93 27 38 15 84 71 97 118 14 51 33
51 50 -1z m-645 -184 c37 -9 65 -22 76 -36 10 -14 22 -20 33 -16 24 9 20 -18
-5 -34 -23 -16 -40 -79 -33 -118 3 -15 -8 -68 -26 -125 -35 -107 -34 -124 7
-188 23 -37 25 -47 18 -102 -3 -33 -17 -92 -31 -130 -28 -81 -31 -142 -7 -175
21 -31 19 -86 -7 -158 -33 -94 -26 -122 46 -173 24 -17 90 -192 79 -209 -12
-20 -90 -3 -159 34 -66 36 -73 37 -138 32 l-68 -6 -101 95 c-56 52 -113 97
-128 101 -78 18 -169 95 -203 173 -29 64 -65 100 -101 100 -95 0 -190 154
-141 228 29 42 54 102 54 127 0 41 11 55 42 55 63 0 136 67 157 146 13 50 58
110 91 123 14 5 48 12 75 16 76 9 102 23 135 73 24 36 30 56 30 97 0 52 12 73
50 89 23 9 188 -3 255 -19z"/>
<path d="M3680 3602 c0 -5 -11 -14 -25 -20 -59 -27 -53 -129 9 -159 67 -31
136 16 136 93 0 35 -5 47 -31 68 -29 25 -89 36 -89 18z m40 -77 c6 -8 9 -19 5
-25 -14 -23 -62 -2 -52 24 8 20 31 21 47 1z"/>
<path d="M3318 3450 c-37 -36 -40 -44 -35 -78 13 -82 104 -118 166 -66 57 48
47 135 -19 169 -45 23 -69 18 -112 -25z m92 -49 c7 -15 6 -23 -6 -35 -18 -18
-17 -18 -38 -10 -19 7 -21 50 -3 57 24 10 36 7 47 -12z"/>
<path d="M3773 3206 c-23 -20 -28 -32 -28 -70 0 -58 28 -90 80 -90 89 0 123
129 45 169 -41 21 -65 19 -97 -9z m75 -68 c-2 -17 -10 -23 -28 -23 -18 0 -26
6 -28 23 -3 19 1 22 28 22 27 0 31 -3 28 -22z"/>
<path d="M3318 2590 c-38 -29 -59 -90 -47 -133 24 -87 133 -87 174 -1 23 48
13 95 -26 128 -37 31 -68 33 -101 6z m57 -90 c0 -18 -6 -26 -22 -28 -18 -3
-23 1 -23 21 0 28 9 39 30 35 9 -2 15 -14 15 -28z"/>
<path d="M2955 2371 c-34 -14 -103 -97 -116 -139 -10 -35 -9 -45 7 -73 38 -65
118 -63 188 4 80 77 84 172 10 203 -37 16 -59 17 -89 5z m65 -94 c0 -30 -25
-64 -62 -83 -38 -19 -58 -12 -58 21 0 37 50 85 89 85 26 0 31 -4 31 -23z"/>
<path d="M3409 2187 c-33 -25 -39 -52 -25 -106 17 -66 49 -101 91 -101 58 0
90 70 65 144 -20 63 -89 96 -131 63z m61 -103 c0 -8 -4 -14 -10 -14 -5 0 -10
9 -10 21 0 11 5 17 10 14 6 -3 10 -13 10 -21z"/>
<path d="M2625 1750 c-31 -34 7 -76 47 -51 34 21 69 -30 44 -65 -11 -14 -15
-13 -44 11 -33 27 -52 26 -52 -3 1 -46 71 -88 118 -71 13 5 30 25 38 44 19 46
5 105 -33 134 -34 27 -94 28 -118 1z"/>
<path d="M3200 1553 c-8 -3 -27 -17 -43 -31 -23 -22 -26 -31 -21 -61 11 -66
25 -101 51 -121 78 -61 161 24 129 132 -15 55 -74 96 -116 81z m44 -79 c21
-21 21 -80 0 -88 -37 -14 -63 41 -38 79 19 29 18 29 38 9z"/>
<path d="M2570 1237 c-30 -15 -66 -85 -76 -146 -12 -77 40 -143 100 -125 38
11 86 67 101 116 31 105 -44 198 -125 155z m65 -87 c4 -20 1 -42 -12 -67 -36
-73 -79 -68 -77 9 1 33 7 47 30 65 38 30 51 29 59 -7z"/>
<path d="M1724 1640 c-12 -5 -29 -18 -37 -30 -13 -18 -13 -28 0 -80 25 -99 92
-140 140 -87 74 81 -8 237 -103 197z m64 -93 c26 -53 -10 -91 -42 -45 -19 27
-20 50 -4 66 17 17 31 10 46 -21z"/>
<path d="M1346 1422 c-32 -19 -64 -84 -73 -148 -5 -36 -2 -46 20 -68 36 -36
77 -34 122 5 59 52 83 122 64 179 -18 51 -77 66 -133 32z m79 -61 c7 -24 -15
-80 -43 -104 -30 -28 -56 -18 -60 21 -3 26 3 39 31 67 39 39 63 44 72 16z"/>
<path d="M1698 1184 c-21 -11 -32 -29 -44 -71 -27 -92 -3 -162 62 -183 71 -24
134 47 134 149 0 47 -4 57 -34 87 -38 38 -73 43 -118 18z m85 -96 c6 -37 -9
-76 -36 -92 -44 -26 -66 78 -26 120 28 30 55 17 62 -28z"/>
</g>
</svg>
