<svg version="1.0" xmlns="http://www.w3.org/2000/svg"
 width="164.000000pt" height="153.000000pt" viewBox="0 0 378.000000 485.000000"
 preserveAspectRatio="xMidYMid meet">

<g transform="translate(0.000000,485.000000) scale(0.100000,-0.100000)"
fill="#000000" stroke="none">
<path d="M1236 4762 c-4 -6 5 -22 19 -35 l26 -23 -47 -143 c-35 -109 -51 -145
-65 -148 -22 -6 -24 -16 -7 -43 19 -31 -2 -60 -237 -327 -318 -361 -455 -528
-455 -555 0 -6 14 -23 30 -38 l30 -28 -9 -74 c-6 -40 -12 -113 -16 -163 -3
-49 -12 -193 -20 -320 -8 -126 -19 -329 -25 -450 -33 -677 -79 -1350 -100
-1455 -10 -55 4 -91 42 -104 23 -8 33 -6 57 12 l29 21 154 -88 c85 -49 321
-177 524 -286 203 -108 446 -239 540 -291 94 -52 178 -94 187 -94 45 0 644
291 1615 783 l23 12 4 400 c2 220 9 537 15 705 13 380 16 948 6 1017 -7 49
-10 52 -39 55 -24 2 -32 9 -38 31 -4 16 -13 35 -20 43 -19 23 -439 270 -538
317 -89 41 -91 43 -86 72 21 112 44 341 42 425 -2 68 -4 75 -27 87 -85 42
-168 81 -278 130 -69 30 -200 92 -291 137 -91 46 -218 106 -281 136 -435 201
-569 256 -650 270 -30 5 -67 12 -81 15 -15 4 -29 2 -33 -3z m207 -146 c139
-75 687 -327 917 -421 122 -50 448 -205 456 -217 2 -4 -4 -40 -15 -80 -11 -40
-26 -108 -33 -152 -7 -43 -17 -80 -24 -83 -6 -2 -265 122 -574 277 -310 155
-631 313 -714 352 -83 38 -155 74 -160 79 -8 7 29 211 49 277 6 17 8 17 98
-32z m16 -410 c97 -51 383 -198 636 -326 495 -250 625 -318 625 -326 0 -3 -22
-31 -50 -62 -27 -31 -167 -217 -310 -412 -143 -195 -267 -358 -275 -363 -9 -5
-39 6 -87 31 -40 21 -134 71 -208 109 -74 39 -245 128 -380 199 -135 70 -370
190 -522 266 -153 77 -278 145 -278 151 1 7 11 24 23 38 12 14 108 127 213
250 104 123 223 265 263 314 40 50 83 95 96 102 13 7 32 36 45 68 12 30 25 55
28 55 2 0 84 -42 181 -94z m1359 -776 c44 -36 238 -167 453 -304 76 -48 89
-61 73 -66 -10 -4 -136 -49 -279 -100 -392 -139 -568 -206 -643 -244 -38 -19
-95 -42 -128 -51 -32 -9 -76 -25 -97 -36 -30 -17 -41 -18 -52 -9 -23 19 -18
35 17 61 17 13 39 31 49 39 19 16 387 520 485 665 32 47 62 85 67 85 4 0 30
-18 55 -40z m-1943 -192 c94 -52 253 -139 355 -193 102 -54 280 -148 395 -210
116 -62 255 -136 310 -165 55 -28 106 -58 114 -65 11 -11 11 -30 -3 -127 -14
-98 -56 -488 -56 -519 0 -22 -53 2 -278 128 -305 169 -847 460 -1004 539 -118
59 -128 66 -128 92 0 15 7 131 15 257 8 127 15 266 15 311 0 44 3 84 7 87 3 4
25 -4 47 -17 23 -13 118 -66 211 -118z m2602 -320 c-6 -41 -25 -353 -30 -482
-1 -40 -7 -62 -17 -67 -14 -8 -91 -37 -420 -156 -121 -44 -493 -181 -770 -283
-74 -28 -141 -50 -148 -50 -9 0 -12 9 -8 28 5 25 24 396 29 546 l2 70 80 17
c123 27 1044 336 1215 407 14 6 36 11 49 11 22 1 23 -2 18 -41z m-2789 -347
c108 -66 436 -251 822 -463 140 -77 304 -167 363 -200 l108 -60 -5 -52 c-8
-65 -33 -365 -41 -471 -10 -143 -15 -165 -33 -165 -19 0 -319 165 -592 324
-96 57 -195 114 -220 128 -25 14 -124 70 -220 125 -96 55 -212 120 -257 144
-96 51 -88 23 -73 264 21 333 34 485 43 485 5 0 52 -27 105 -59z m2752 -358
c0 -159 -21 -518 -31 -530 -6 -7 -59 -31 -117 -53 -59 -22 -150 -57 -202 -77
-141 -54 -872 -345 -969 -387 -47 -20 -87 -34 -89 -31 -4 4 11 226 37 558 5
54 12 102 17 107 5 5 79 33 164 63 201 70 313 111 785 283 215 79 393 143 398
143 4 1 7 -34 7 -76z m-2768 -421 c146 -86 446 -257 658 -375 194 -107 445
-253 518 -301 l64 -41 -7 -120 c-4 -66 -11 -156 -16 -200 -5 -44 -9 -136 -9
-205 -1 -114 -16 -229 -34 -258 -5 -8 -29 0 -79 27 -442 239 -952 510 -1099
584 l-183 92 1 140 c1 152 32 713 40 727 3 4 7 8 9 8 2 0 64 -35 137 -78z
m2744 -279 c-6 -82 -19 -409 -20 -502 l-1 -54 -590 -296 c-325 -163 -640 -325
-702 -359 -61 -34 -116 -62 -122 -62 -16 0 -12 185 9 445 11 132 22 274 26
316 l6 76 306 111 c169 61 339 123 377 138 39 14 93 35 120 45 28 10 165 64
305 118 140 55 263 100 273 101 17 0 18 -7 13 -77z"/>
<path d="M732 2133 c-121 -128 -148 -163 -132 -173 20 -12 46 4 114 69 l58 56
-5 -56 c-9 -93 24 -104 93 -34 24 25 48 45 53 45 5 0 7 -55 6 -123 -2 -67 0
-128 5 -135 12 -19 43 -14 60 10 13 18 16 54 16 185 0 144 -2 163 -17 171 -22
11 -40 6 -76 -24 -39 -33 -47 -30 -47 15 0 97 -32 96 -128 -6z"/>
<path d="M1123 1983 c-23 -51 -83 -241 -83 -260 0 -7 9 -17 19 -23 37 -19 62
34 105 223 21 89 20 107 -2 107 -13 0 -26 -16 -39 -47z"/>
<path d="M1268 1928 c-7 -18 -26 -57 -42 -88 -16 -30 -38 -72 -48 -92 -26 -49
-17 -73 35 -99 23 -12 61 -37 85 -56 48 -39 85 -42 90 -6 3 21 -26 48 -123
116 l-26 19 26 45 c24 44 55 143 55 177 0 30 -38 18 -52 -16z"/>
<path d="M1583 1858 c-12 -15 -53 -117 -83 -208 -12 -35 -28 -77 -36 -93 -18
-34 -10 -67 16 -67 24 0 43 20 60 60 l13 31 41 -39 c23 -22 62 -53 87 -70 25
-17 51 -37 58 -46 15 -18 47 -21 56 -5 16 25 -9 60 -82 113 -43 31 -84 66 -92
78 -12 19 -11 24 7 37 11 9 36 29 56 44 33 25 49 67 27 67 -5 0 -33 -16 -63
-35 -62 -42 -68 -35 -43 51 20 71 7 119 -22 82z"/>
<path d="M3210 2104 c-36 -14 -90 -37 -121 -50 -31 -13 -62 -24 -68 -24 -6 0
-11 -5 -11 -10 0 -13 68 -3 88 13 7 5 53 24 103 41 50 17 91 35 91 41 -1 17
-15 15 -82 -11z"/>
<path d="M3210 2009 c-58 -16 -180 -74 -180 -85 0 -8 54 8 92 27 20 11 68 27
105 37 37 10 67 22 66 27 -2 15 -13 14 -83 -6z"/>
<path d="M3240 1915 c-25 -13 -61 -27 -80 -31 -47 -9 -124 -43 -117 -51 12
-11 202 47 245 75 24 16 29 33 10 31 -7 -1 -33 -12 -58 -24z"/>
<path d="M3249 1822 c-26 -9 -53 -23 -62 -30 -8 -7 -37 -19 -63 -25 -26 -7
-49 -18 -52 -25 -3 -9 3 -10 23 -2 14 5 39 10 55 10 16 0 35 7 44 15 8 9 41
24 73 34 31 10 59 23 61 30 5 15 -24 13 -79 -7z"/>
<path d="M3275 1726 c-22 -8 -62 -23 -88 -35 -27 -11 -57 -21 -67 -21 -19 0
-36 -17 -27 -27 3 -3 34 5 69 17 35 12 89 29 120 38 32 9 60 22 62 29 7 16
-17 16 -69 -1z"/>
</g>
</svg>
