<svg version="1.0" xmlns="http://www.w3.org/2000/svg"
 width="123.000000pt" height="123.000000pt" viewBox="0 0 485.000000 482.000000"
 preserveAspectRatio="xMidYMid meet">

<g transform="translate(0.000000,482.000000) scale(0.100000,-0.100000)"
 stroke="none">
<path d="M4198 4633 c-8 -10 -17 -25 -20 -33 -3 -8 -89 -141 -190 -295 -322
-489 -590 -903 -727 -1125 -74 -118 -140 -226 -149 -240 -16 -24 -16 -23 -29
57 -54 347 -305 634 -658 753 -281 95 -562 67 -778 -78 -82 -55 -185 -162
-211 -220 -12 -27 -26 -42 -37 -42 -10 0 -53 -11 -96 -25 -251 -79 -430 -333
-459 -649 -8 -90 2 -165 23 -173 24 -9 30 11 36 120 8 128 26 199 79 307 78
161 244 296 406 329 327 68 678 -194 782 -584 10 -38 20 -86 22 -105 l3 -35
-55 0 c-54 0 -55 1 -52 27 2 15 -4 55 -12 89 -54 207 -246 399 -443 439 -82
17 -234 8 -302 -18 -126 -49 -239 -152 -298 -271 -35 -71 -38 -83 -41 -182
l-4 -107 -29 -6 c-34 -7 -48 -32 -28 -51 8 -8 46 -19 84 -24 43 -6 601 -11
1450 -12 1120 -1 1386 -4 1412 -14 41 -17 50 -60 33 -153 -28 -146 -105 -325
-206 -474 -74 -108 -88 -125 -197 -236 -253 -258 -574 -429 -952 -508 -117
-25 -151 -28 -335 -28 -233 0 -322 12 -505 71 -203 65 -362 161 -511 307 -152
150 -244 314 -300 533 -24 94 -28 128 -28 263 -1 85 3 190 7 233 8 74 8 79
-10 75 -26 -5 -59 -107 -79 -246 -32 -217 6 -435 111 -647 67 -136 132 -223
252 -341 l92 -90 -52 -19 c-67 -24 -134 -86 -147 -136 -14 -50 12 -115 62
-152 64 -49 210 -113 308 -135 294 -65 402 -76 755 -76 403 0 632 24 913 94
182 46 337 133 378 212 20 39 20 97 0 135 -15 29 -60 77 -99 106 -17 12 -11
18 65 79 307 243 503 559 584 941 38 178 38 176 26 215 -6 21 -14 49 -17 65
-3 15 -15 37 -26 48 -18 18 -28 20 -72 14 -29 -4 -168 -9 -310 -11 l-259 -5
54 68 c30 37 84 109 119 158 73 100 748 1104 934 1389 66 101 135 200 153 220
17 20 32 46 32 56 0 27 -35 60 -63 60 -24 0 -67 -37 -67 -58 0 -6 -85 -138
-189 -294 -103 -156 -244 -368 -313 -473 -68 -104 -208 -316 -310 -470 -274
-414 -388 -604 -388 -647 0 -17 -10 -18 -130 -18 -148 0 -139 -7 -115 95 8 33
15 81 15 107 0 39 4 49 23 59 28 15 19 4 196 254 202 286 317 455 664 977 164
245 304 452 312 458 23 19 19 87 -4 100 -30 15 -66 12 -83 -7z m-1883 -957
c285 -80 530 -313 626 -594 30 -89 33 -107 33 -222 0 -108 -3 -134 -25 -195
l-25 -70 -45 -3 -46 -3 -6 143 c-5 145 -20 238 -55 338 -66 189 -192 335 -342
396 -77 32 -215 43 -301 25 -69 -15 -185 -72 -238 -117 l-41 -35 -77 29 c-88
34 -173 52 -247 52 l-50 0 49 51 c97 100 244 179 403 215 78 18 308 12 387
-10z m-19 -280 c244 -65 414 -358 401 -691 -3 -90 -7 -111 -20 -113 -17 -3
-20 21 -32 220 -17 277 -148 478 -312 478 -28 0 -63 -4 -77 -10 -37 -14 -112
-85 -126 -120 -7 -17 -14 -30 -17 -30 -2 0 -18 16 -35 35 -17 20 -61 58 -99
87 -38 28 -67 54 -64 58 3 4 37 24 77 43 110 54 210 68 304 43z m82 -210 c54
-28 115 -138 147 -261 20 -78 19 -197 -1 -260 -9 -27 -18 -56 -20 -63 -3 -9
-26 -12 -90 -10 l-86 3 -4 40 c-10 108 -81 300 -150 406 -17 26 -17 28 20 78
21 28 50 58 65 66 34 18 85 19 119 1z m-728 -152 c65 -26 146 -80 181 -123 58
-70 99 -190 99 -288 0 -30 -3 -33 -28 -33 -25 0 -29 5 -41 50 -14 55 -91 172
-142 214 -17 15 -55 39 -83 54 -46 24 -62 27 -151 27 -89 0 -106 -3 -153 -27
-28 -15 -68 -40 -88 -55 -50 -39 -122 -137 -156 -210 -29 -65 -58 -84 -58 -39
0 47 50 182 88 242 69 105 164 174 281 204 54 14 199 4 251 -16z m-119 -245
c55 -19 118 -77 147 -135 14 -29 23 -56 20 -59 -3 -3 -126 -4 -274 -3 l-269 3
55 59 c112 120 225 167 321 135z m-128 -1661 c29 -17 88 -47 132 -68 457 -211
1035 -194 1531 44 109 52 113 54 175 47 64 -7 124 -33 134 -59 19 -50 -97
-113 -320 -172 -127 -34 -232 -52 -435 -76 -180 -22 -649 -25 -857 -6 -229 21
-488 82 -570 135 -79 50 -66 92 57 177 51 36 57 37 78 24 13 -8 46 -29 75 -46z"/>
</g>
</svg>
