<svg version="1.0" xmlns="http://www.w3.org/2000/svg"
 width="470.000000pt" height="350.000000pt" viewBox="0 0 470.000000 350.000000"
 preserveAspectRatio="xMidYMid meet">

<g transform="translate(0.000000,350.000000) scale(0.100000,-0.100000)"
fill="#000000" stroke="none">
<path d="M3040 3444 c-251 -21 -408 -46 -585 -94 -447 -119 -837 -314 -1215
-606 -143 -111 -431 -395 -540 -533 -316 -402 -515 -841 -574 -1269 -9 -62
-16 -130 -16 -151 0 -22 -6 -44 -15 -51 -19 -16 -19 -38 0 -147 8 -49 18 -139
22 -202 6 -86 12 -116 23 -121 46 -24 180 -37 456 -47 l162 -5 65 31 c36 17
98 57 139 88 40 31 93 65 119 74 51 20 322 167 364 198 18 14 99 40 205 67
203 51 232 56 310 50 137 -11 214 -44 305 -133 143 -137 284 -220 460 -269
187 -53 328 -64 475 -40 47 8 119 17 160 21 395 33 592 107 766 287 76 78 156
203 179 278 4 14 23 58 42 98 43 91 101 246 147 395 54 171 65 308 65 812 1
420 -6 523 -38 608 -6 16 -11 38 -11 50 0 39 -58 146 -119 220 -44 54 -78 84
-139 120 -208 123 -468 210 -752 251 -105 16 -376 27 -460 20z m450 -110 c107
-15 343 -73 377 -92 10 -6 -6 -11 -49 -15 -77 -7 -96 -14 -109 -39 -10 -18 -9
-18 11 -8 11 6 46 10 78 8 57 -3 57 -3 54 -33 -1 -16 -14 -56 -29 -89 l-28
-58 23 -18 c12 -10 27 -20 33 -22 17 -6 14 -56 -5 -77 -22 -24 -20 -48 3 -56
36 -11 44 -31 31 -71 -10 -29 -9 -45 4 -87 20 -66 46 -293 46 -402 0 -45 -6
-118 -14 -161 -22 -120 -44 -271 -51 -348 -4 -38 -13 -87 -22 -110 -8 -23 -20
-72 -27 -111 -8 -38 -23 -121 -35 -183 -12 -63 -37 -153 -55 -200 -19 -48 -37
-98 -41 -112 l-7 -25 24 25 c38 38 86 166 108 285 19 102 52 238 70 290 10 28
23 86 30 130 7 44 27 163 46 265 20 108 34 218 34 263 0 104 -28 328 -49 391
-14 44 -15 57 -4 96 15 51 10 76 -18 90 -18 10 -18 13 -4 47 21 49 19 57 -16
97 -29 34 -30 36 -14 66 23 45 31 126 14 146 -12 15 -11 16 11 10 14 -4 90
-39 170 -78 130 -64 152 -79 214 -142 113 -116 137 -188 168 -491 14 -140 14
-279 -1 -344 -6 -25 -16 -84 -21 -131 -18 -150 -28 -188 -75 -292 -26 -57 -74
-179 -107 -273 -84 -238 -134 -330 -231 -427 -171 -170 -334 -228 -779 -277
-87 -9 -158 -15 -158 -11 0 3 12 64 26 135 25 125 26 143 25 453 -1 292 -3
327 -20 371 -28 68 -61 215 -61 264 0 58 -28 314 -47 422 -27 158 -52 236 -96
309 -37 62 -42 77 -40 123 2 42 -1 56 -18 72 -17 15 -19 23 -10 39 14 26 14
77 1 102 -5 10 -23 23 -39 28 -29 10 -30 13 -20 41 19 54 9 75 -36 81 -48 7
-72 2 -78 -14 -3 -8 7 -12 30 -13 50 -2 62 -17 40 -54 -24 -44 -22 -52 23 -71
35 -15 40 -20 40 -50 0 -19 -7 -43 -15 -54 -20 -27 -19 -55 4 -61 15 -4 20
-16 23 -66 3 -50 11 -74 41 -122 27 -44 44 -91 63 -170 40 -176 84 -463 84
-553 0 -52 32 -181 61 -249 20 -45 21 -67 23 -378 1 -325 -3 -388 -40 -572 -4
-21 -10 -23 -78 -23 -66 0 -193 16 -302 38 -43 9 -158 71 -275 148 -37 24 -70
44 -74 44 -5 0 -28 17 -53 38 -121 98 -210 135 -369 153 -73 8 -105 7 -156 -5
-152 -36 -415 -135 -483 -183 -16 -11 -83 -49 -149 -83 -66 -35 -165 -92 -220
-128 -128 -84 -216 -123 -286 -129 -63 -6 -173 6 -341 39 -106 21 -117 25
-113 43 2 11 11 71 20 134 106 760 636 1524 1393 2008 423 270 895 437 1363
483 131 12 422 4 559 -16z m993 -1580 c5 -29 -3 -104 -26 -229 -25 -134 -52
-225 -99 -335 -25 -58 -54 -125 -64 -150 -60 -142 -141 -276 -214 -353 -164
-174 -341 -242 -725 -277 -60 -5 -139 -15 -175 -20 -159 -26 -168 -25 -461 28
-97 18 -198 57 -214 82 -3 6 -23 19 -43 29 -20 10 -84 58 -141 106 -124 105
-217 150 -345 167 -72 10 -96 9 -167 -7 -46 -9 -93 -22 -104 -28 -11 -5 -56
-20 -100 -33 -90 -25 -270 -102 -316 -135 -17 -12 -86 -50 -152 -84 -122 -62
-166 -88 -242 -144 -54 -39 -120 -71 -175 -86 -35 -9 -76 -9 -185 1 -77 7
-164 18 -194 23 -29 6 -73 11 -97 11 -23 0 -45 4 -49 9 -3 6 -10 52 -15 103
-5 51 -14 111 -19 133 -16 63 -15 68 17 60 15 -4 56 -11 92 -15 36 -5 112 -14
170 -21 200 -25 261 -11 421 92 52 34 109 68 128 76 19 8 76 41 128 74 188
118 456 236 589 259 155 26 204 25 311 -10 100 -32 143 -55 231 -125 156 -125
254 -186 367 -228 248 -93 376 -96 891 -26 248 34 427 113 572 253 122 117
175 211 271 486 34 96 70 198 81 225 10 28 21 65 25 83 8 39 21 42 28 6z"/>
<path d="M3245 3297 c-21 -18 -26 -29 -23 -57 3 -30 5 -32 13 -15 15 36 38 55
66 55 54 0 45 -89 -11 -109 -33 -11 -53 -42 -44 -66 7 -17 17 -17 73 1 22 7
23 5 16 -27 -3 -19 -11 -46 -17 -62 -9 -22 -7 -31 7 -47 10 -11 26 -22 35 -25
26 -8 28 -17 35 -171 4 -86 14 -167 26 -212 11 -40 24 -128 29 -195 6 -67 17
-173 26 -236 15 -104 15 -127 1 -285 -9 -94 -19 -211 -22 -261 -7 -125 -18
-206 -70 -525 -12 -74 -20 -137 -18 -139 2 -3 15 6 29 20 21 22 28 44 44 150
35 233 50 344 60 449 5 58 17 173 25 255 17 172 19 313 5 400 -5 33 -14 116
-20 185 -5 69 -19 154 -30 190 -14 45 -22 106 -26 200 -6 161 -15 195 -55 216
-23 11 -27 18 -20 32 19 37 23 102 7 126 -12 19 -13 31 -5 61 20 70 -8 115
-71 115 -26 0 -48 -8 -65 -23z"/>
<path d="M2203 3095 c-13 -9 -23 -23 -23 -31 0 -15 16 -19 22 -5 7 19 74 17
81 -2 8 -20 -13 -109 -29 -128 -20 -23 -18 -28 21 -45 30 -12 35 -19 35 -47 0
-18 -5 -48 -10 -67 -10 -33 -8 -37 23 -65 25 -22 37 -45 46 -85 7 -30 35 -100
61 -155 51 -105 81 -197 101 -305 6 -36 20 -99 31 -140 11 -41 28 -109 39
-150 10 -41 24 -97 30 -125 6 -27 29 -111 50 -185 34 -115 42 -167 60 -350 11
-118 22 -255 24 -303 5 -98 10 -114 30 -97 21 17 27 98 16 190 -6 47 -20 162
-31 255 -13 108 -37 234 -65 345 -24 96 -49 204 -55 240 -5 36 -17 88 -26 115
-8 28 -24 100 -35 160 -32 174 -91 338 -149 413 -17 21 -31 70 -45 155 -4 27
-13 41 -31 49 -24 11 -25 14 -18 76 6 60 5 65 -21 92 -25 26 -27 33 -21 77 4
26 9 55 12 64 13 45 -80 85 -123 54z"/>
<path d="M4243 2952 c-27 -17 -18 -35 17 -36 31 -1 35 -4 38 -29 3 -21 -8 -43
-39 -84 -45 -61 -45 -85 2 -91 38 -6 41 -15 20 -82 l-20 -64 20 -33 c27 -44
23 -109 -26 -438 -45 -298 -93 -480 -169 -646 -30 -66 -51 -119 -46 -119 4 0
21 15 37 34 44 49 99 189 146 371 2 11 15 56 27 100 28 102 88 407 96 488 13
127 10 204 -9 224 -16 18 -16 23 -2 63 8 23 16 61 17 83 3 41 -7 53 -57 70 -5
2 5 20 23 41 40 46 44 104 10 136 -22 20 -63 26 -85 12z"/>
<path d="M1831 2821 c-27 -7 -49 -36 -38 -47 4 -4 13 -2 19 4 7 7 25 12 40 12
25 0 28 -4 28 -30 0 -18 -6 -33 -15 -36 -25 -10 -17 -32 13 -36 25 -3 27 -6
27 -48 -1 -25 -4 -61 -9 -80 -7 -33 -5 -36 23 -47 22 -8 31 -18 31 -35 0 -12
14 -48 32 -78 17 -30 44 -78 59 -106 16 -27 35 -79 43 -115 9 -35 34 -118 56
-183 22 -66 45 -154 51 -195 6 -42 19 -107 30 -146 29 -101 79 -344 79 -382 0
-28 48 -231 65 -275 4 -10 11 -15 16 -12 15 9 10 94 -10 163 -11 36 -25 104
-31 151 -14 107 -47 270 -66 322 -7 21 -21 89 -30 151 -9 61 -33 164 -54 227
-21 64 -48 153 -60 198 -15 56 -41 113 -81 179 -32 54 -59 108 -59 121 0 13
-11 33 -24 45 -22 21 -24 28 -19 89 5 59 3 68 -15 79 -15 10 -19 20 -15 43 8
51 -32 82 -86 67z"/>
<path d="M1487 2643 c-34 -24 -51 -63 -27 -63 6 0 10 3 10 8 0 4 14 15 31 25
l32 18 -7 -47 c-3 -28 -14 -55 -26 -66 -26 -25 -16 -40 23 -36 31 3 32 2 29
-32 -1 -19 -7 -47 -13 -62 -10 -25 -8 -32 23 -67 28 -30 38 -52 46 -101 7 -35
21 -82 33 -104 74 -142 113 -230 139 -319 16 -56 42 -140 58 -187 18 -53 36
-138 47 -227 13 -102 22 -143 31 -143 53 0 29 206 -52 447 -30 89 -54 167 -54
173 0 7 -33 85 -74 173 -44 97 -76 182 -80 212 -4 34 -16 61 -37 87 -30 38
-30 40 -19 94 10 47 9 59 -4 80 -9 13 -21 24 -28 24 -7 0 -8 16 -4 50 7 52 -5
90 -27 90 -7 0 -29 -12 -50 -27z"/>
<path d="M1142 2462 c-16 -11 -21 -64 -5 -69 6 -2 13 6 15 19 2 15 11 24 26
26 19 3 22 -1 22 -30 -1 -42 -20 -76 -51 -91 -36 -19 -31 -42 10 -43 46 0 59
-21 45 -73 -12 -46 -12 -48 34 -66 17 -8 32 -18 32 -22 2 -62 134 -497 180
-593 9 -19 27 -73 39 -120 28 -109 37 -130 56 -130 38 0 17 84 -170 660 -19
58 -39 125 -45 150 -16 63 -36 90 -65 90 -24 0 -25 1 -19 59 6 52 4 60 -15 73
-20 14 -20 17 -6 51 18 44 19 89 3 105 -14 14 -67 16 -86 4z"/>
<path d="M930 2167 c-46 -16 -76 -34 -69 -42 4 -3 18 -1 33 5 33 12 66 13 66
1 0 -4 -11 -25 -25 -45 -29 -43 -27 -52 15 -61 18 -4 31 -13 31 -23 4 -46 -5
-89 -23 -109 -29 -31 -17 -57 22 -49 l30 6 -6 -53 c-5 -44 -2 -57 18 -87 45
-66 77 -156 93 -255 28 -181 84 -325 125 -325 26 0 25 8 -6 83 -37 86 -51 138
-65 237 -14 102 -40 177 -86 246 -33 49 -34 55 -27 113 5 51 4 65 -11 81 -13
15 -16 29 -10 67 8 60 -6 100 -37 105 -17 2 -22 8 -19 23 7 43 5 88 -4 91 -5
1 -26 -3 -45 -9z"/>
<path d="M713 1787 c-18 -7 -38 -18 -45 -25 -11 -11 -8 -12 17 -7 17 4 36 8
43 11 19 5 14 -37 -8 -74 -26 -42 -25 -62 1 -62 20 0 21 -4 16 -47 -3 -27 -9
-58 -12 -70 -6 -18 -2 -25 17 -32 13 -5 29 -15 35 -22 13 -16 43 -132 68 -259
10 -47 23 -103 29 -124 12 -40 39 -67 52 -53 14 14 -21 190 -78 390 -18 65
-24 74 -60 100 -16 11 -17 18 -6 75 12 64 10 72 -24 84 -4 2 0 24 9 49 17 47
13 80 -9 78 -7 0 -27 -6 -45 -12z"/>
<path d="M456 1545 c-25 -26 -46 -53 -46 -61 0 -20 6 -18 46 19 48 44 64 52
64 33 0 -29 -33 -84 -56 -95 -35 -15 -29 -38 14 -58 47 -23 55 -66 21 -112
l-22 -30 31 -69 c18 -38 32 -83 32 -101 0 -81 79 -285 123 -316 31 -22 33 -2
7 71 -48 133 -68 203 -78 267 -6 37 -19 85 -30 106 -18 33 -19 41 -7 58 18 25
29 87 21 118 -3 13 -16 33 -27 44 -21 19 -21 21 -4 64 23 62 17 101 -16 105
-20 2 -37 -8 -73 -43z"/>
</g>
</svg>
