<?xml version="1.0" standalone="no"?>
<!DOCTYPE svg PUBLIC "-//W3C//DTD SVG 20010904//EN"
 "http://www.w3.org/TR/2001/REC-SVG-20010904/DTD/svg10.dtd">
<svg version="1.0" xmlns="http://www.w3.org/2000/svg"
 width="164.000000pt" height="150.000000pt" viewBox="0 0 477.000000 492.000000"
 preserveAspectRatio="xMidYMid meet">

<g transform="translate(0.000000,492.000000) scale(0.100000,-0.100000)"
fill="#000000" stroke="none">
<path d="M2660 4669 c-354 -20 -745 -143 -1097 -347 -532 -307 -945 -766
-1139 -1269 -80 -207 -114 -384 -114 -594 0 -345 113 -627 341 -850 255 -249
611 -380 1039 -382 276 -1 507 38 783 133 137 47 139 48 145 27 7 -31 123
-254 168 -323 20 -33 47 -77 59 -99 12 -22 43 -80 70 -130 27 -49 61 -109 77
-132 15 -23 28 -44 28 -47 0 -3 39 -77 88 -163 48 -87 89 -174 92 -192 8 -53
44 -69 175 -77 130 -7 191 5 320 67 208 99 327 260 282 383 -9 22 -18 56 -22
74 -4 18 -47 103 -96 189 -49 85 -89 157 -89 159 0 2 -25 44 -55 95 -30 50
-55 93 -55 95 0 8 -248 417 -286 471 -24 35 -44 67 -44 72 0 5 31 34 69 65 86
70 276 266 360 371 215 267 366 577 433 885 26 121 35 365 19 481 -59 417
-306 746 -687 918 -122 55 -218 78 -454 111 -89 13 -271 16 -410 9z m409 -65
c215 -35 317 -67 446 -137 343 -187 528 -422 606 -772 21 -92 18 -388 -4 -499
-103 -512 -458 -1020 -967 -1383 -264 -188 -595 -345 -891 -421 -223 -58 -293
-67 -554 -67 -214 0 -252 3 -349 23 -253 54 -462 156 -617 299 -254 236 -374
568 -339 942 32 344 182 687 448 1026 79 100 311 329 423 418 343 270 748 463
1151 547 80 17 173 29 318 43 98 10 190 5 329 -19z m274 -2939 c30 -60 78
-150 106 -198 28 -49 51 -90 51 -92 0 -2 51 -93 114 -202 62 -109 122 -214
133 -233 11 -19 55 -95 97 -169 73 -127 76 -135 66 -167 -13 -39 -83 -111
-155 -159 -125 -83 -314 -155 -404 -155 -42 0 -51 4 -66 27 -17 25 -17 28 1
61 48 90 187 209 296 253 88 36 163 39 202 8 34 -27 73 -19 82 16 8 32 -1 44
-50 66 -74 33 -201 18 -308 -37 -79 -40 -183 -135 -245 -222 l-31 -43 -55 98
c-30 54 -72 130 -92 168 -21 39 -41 75 -45 80 -7 10 -49 88 -175 330 -109 208
-136 258 -162 292 -14 18 -23 37 -21 42 1 5 64 41 139 79 144 74 283 158 388
236 35 26 68 43 72 39 4 -4 32 -57 62 -118z"/>
<path d="M2440 4410 c-245 -38 -416 -93 -653 -211 -580 -290 -1021 -793 -1160
-1324 -200 -762 264 -1366 1078 -1402 221 -10 443 20 655 89 469 152 852 406
1156 768 213 254 365 571 409 855 23 146 16 354 -15 470 -92 341 -313 577
-665 710 -54 20 -113 31 -255 46 -225 23 -397 23 -550 -1z m445 -30 c14 -5 69
-17 123 -26 129 -21 205 -46 330 -110 124 -64 165 -93 256 -182 328 -321 362
-825 90 -1340 -95 -180 -184 -301 -349 -470 -347 -359 -859 -622 -1325 -683
-207 -27 -467 -11 -642 40 -235 68 -443 217 -562 404 -160 251 -189 587 -80
924 101 311 287 582 601 873 233 215 642 431 978 515 213 54 510 82 580 55z"/>
<path d="M2678 4089 c-45 -26 -15 -65 127 -164 92 -63 134 -72 161 -31 13 21
14 29 2 52 -13 28 -27 37 -166 110 -88 47 -97 49 -124 33z"/>
<path d="M1814 3801 c-85 -49 -129 -116 -169 -256 -18 -61 -25 -111 -26 -178
-1 -109 -21 -263 -35 -260 -5 1 -36 17 -68 37 -100 60 -178 43 -233 -52 -65
-110 -11 -259 125 -349 64 -43 76 -59 98 -141 20 -73 15 -82 -49 -82 -41 0
-102 -27 -129 -57 -29 -31 -58 -106 -58 -149 0 -57 59 -171 122 -233 27 -28
82 -69 121 -93 39 -24 87 -60 106 -80 41 -42 75 -54 115 -39 44 18 72 4 112
-56 20 -30 47 -58 61 -64 81 -30 204 18 255 100 20 31 23 50 23 136 0 92 2
104 30 153 39 72 68 94 119 90 45 -3 40 4 117 -165 35 -78 67 -115 112 -132
61 -23 145 -5 195 42 14 12 42 49 63 81 47 72 50 115 15 184 -32 64 -40 120
-26 186 8 39 19 62 37 76 34 26 57 25 97 -5 77 -59 161 -71 236 -33 59 31 77
59 96 152 27 134 1 217 -99 310 -80 74 -142 100 -262 106 l-100 5 -3 60 c-3
62 0 70 76 210 9 17 18 59 20 95 2 58 -1 70 -26 110 -19 30 -47 55 -83 75 -49
27 -62 30 -144 29 -83 0 -95 -3 -150 -33 -33 -18 -88 -60 -122 -92 -45 -44
-69 -59 -90 -59 -61 0 -87 44 -98 169 -13 141 -100 218 -260 228 -64 4 -75 1
-121 -26z m180 -92 c74 -27 92 -52 99 -136 9 -93 42 -177 85 -216 10 -9 43
-22 73 -29 80 -16 125 0 206 73 87 78 129 99 193 99 80 0 140 -42 140 -99 0
-13 -19 -62 -42 -110 -42 -85 -43 -87 -43 -193 0 -100 2 -108 25 -133 34 -37
58 -45 164 -51 100 -7 127 -17 187 -71 64 -58 83 -104 76 -188 -5 -55 -11 -74
-28 -87 -31 -26 -69 -22 -125 13 -66 43 -121 48 -184 19 -59 -28 -82 -57 -105
-135 -27 -94 -21 -184 18 -275 15 -34 14 -37 -16 -87 -32 -53 -60 -73 -103
-73 -18 0 -32 12 -55 48 -16 26 -33 58 -36 72 -10 41 -49 114 -75 138 -28 25
-77 42 -124 42 -136 0 -254 -169 -254 -364 0 -64 -1 -66 -37 -91 -56 -38 -82
-33 -118 21 -43 66 -71 77 -195 79 -58 1 -108 3 -112 4 -11 2 -152 122 -175
150 -40 46 -86 142 -87 182 -1 42 26 86 65 106 13 7 50 15 82 18 81 9 117 40
117 103 0 57 -27 157 -53 197 -11 17 -48 50 -82 74 -96 69 -138 151 -110 217
23 56 46 60 111 19 31 -20 68 -41 81 -46 35 -13 99 6 119 36 22 34 36 139 39
300 3 121 7 149 28 209 34 91 69 141 114 165 48 26 70 26 137 0z"/>
<path d="M2133 3169 c-37 -13 -68 -31 -77 -44 -9 -13 -39 -46 -68 -73 -114
-108 -158 -273 -108 -407 15 -40 38 -76 69 -106 167 -167 458 -86 574 159 30
62 32 75 32 172 0 116 -16 161 -79 228 -79 85 -219 114 -343 71z m235 -118
c56 -44 77 -91 77 -176 -1 -121 -68 -230 -178 -285 -163 -82 -317 11 -317 191
0 105 71 244 135 263 17 4 39 13 50 19 40 21 72 26 132 23 51 -3 69 -9 101
-35z"/>
<path d="M3195 3786 c-24 -37 -55 -133 -49 -151 11 -28 39 -36 64 -18 26 19
70 107 70 144 0 51 -57 68 -85 25z"/>
<path d="M3252 3487 c-10 -11 -10 -21 -1 -41 7 -14 15 -26 18 -26 3 0 33 -21
66 -45 68 -52 101 -55 124 -14 13 24 13 29 -3 54 -33 50 -179 102 -204 72z"/>
<path d="M3514 3005 c-12 -8 -41 -54 -64 -102 -33 -67 -44 -100 -44 -138 -1
-49 0 -50 30 -53 26 -3 37 3 61 35 43 54 103 177 103 211 0 30 -26 62 -51 62
-8 0 -24 -7 -35 -15z"/>
<path d="M857 2923 c-18 -17 -2 -46 58 -102 68 -63 101 -75 125 -45 23 27 0
64 -68 111 -59 40 -99 53 -115 36z"/>
<path d="M892 2612 c-21 -21 -58 -218 -47 -252 10 -33 42 -44 71 -26 26 18 28
25 44 133 14 98 13 129 -6 147 -20 21 -40 20 -62 -2z"/>
</g>
</svg>
