<?xml version="1.0" standalone="no"?>
<!DOCTYPE svg PUBLIC "-//W3C//DTD SVG 20010904//EN"
 "http://www.w3.org/TR/2001/REC-SVG-20010904/DTD/svg10.dtd">
<svg version="1.0" xmlns="http://www.w3.org/2000/svg"
 width="123.000000pt" height="123.000000pt" viewBox="0 0 460.000000 339.000000"
 preserveAspectRatio="xMidYMid meet">

<g transform="translate(0.000000,339.000000) scale(0.100000,-0.100000)"
fill="#000000" stroke="none">
<path d="M3285 3336 c-178 -35 -290 -109 -317 -209 l-11 -42 -131 0 c-109 0
-144 -4 -206 -24 -92 -28 -196 -80 -269 -134 -77 -56 -189 -174 -230 -241 -39
-65 -81 -175 -81 -213 0 -23 -3 -25 -32 -20 -162 29 -187 30 -276 13 -192 -37
-382 -166 -501 -339 -39 -57 -106 -198 -115 -243 l-7 -31 -102 0 c-177 0 -307
-49 -459 -172 -187 -152 -327 -381 -401 -658 -30 -116 -31 -122 -31 -348 0
-260 0 -263 84 -358 175 -198 505 -292 942 -267 448 26 927 165 1433 415 247
123 422 226 652 387 685 477 1152 1040 1289 1553 34 130 39 311 11 422 -32
122 -82 209 -157 271 -108 88 -305 172 -525 223 -118 27 -452 36 -560 15z
m570 -136 c144 -35 293 -87 356 -126 183 -111 270 -301 241 -524 -43 -320
-259 -678 -637 -1055 -239 -239 -467 -423 -780 -627 -851 -557 -1813 -841
-2383 -702 -37 9 -109 36 -160 61 -75 35 -111 61 -179 126 -121 116 -127 136
-112 337 10 136 29 253 60 370 65 245 269 495 496 607 l77 38 157 3 c147 3
162 1 216 -21 122 -50 253 -153 313 -247 82 -128 140 -399 140 -658 0 -56 4
-74 15 -78 27 -11 43 16 64 107 26 112 27 210 2 336 -65 333 -234 561 -489
659 -39 15 -72 33 -72 39 0 17 75 139 133 217 299 397 722 411 1022 33 94
-119 171 -291 210 -470 9 -44 24 -90 31 -102 19 -31 59 -30 79 1 14 22 14 32
-5 117 -26 123 -44 175 -96 288 -104 223 -239 376 -411 466 -41 21 -53 33 -53
50 0 58 135 260 240 359 124 117 297 179 500 180 131 0 194 -14 301 -70 194
-102 325 -276 385 -512 28 -111 35 -261 14 -330 -19 -60 -3 -94 42 -90 50 5
55 26 53 215 -2 143 -6 181 -27 258 -71 257 -259 480 -487 576 -36 15 -67 32
-69 37 -5 15 67 72 123 97 46 20 120 39 225 59 14 3 104 3 200 1 134 -3 196
-9 265 -25z"/>
<path d="M3870 3090 c0 -5 5 -10 10 -10 6 0 10 5 10 10 0 6 -4 10 -10 10 -5 0
-10 -4 -10 -10z"/>
<path d="M3670 3080 c0 -5 4 -10 9 -10 6 0 13 5 16 10 3 6 -1 10 -9 10 -9 0
-16 -4 -16 -10z"/>
<path d="M3560 3050 c0 -5 5 -10 11 -10 5 0 7 5 4 10 -3 6 -8 10 -11 10 -2 0
-4 -4 -4 -10z"/>
<path d="M3780 3000 c0 -5 5 -10 10 -10 6 0 10 5 10 10 0 6 -4 10 -10 10 -5 0
-10 -4 -10 -10z"/>
<path d="M3636 2977 c-16 -12 -16 -14 -2 -26 18 -15 18 -15 21 17 3 26 4 26
-19 9z"/>
<path d="M3666 2934 c-8 -20 -8 -24 2 -24 4 0 8 9 9 20 2 24 -3 26 -11 4z"/>
<path d="M4030 2929 c0 -12 5 -19 12 -17 18 6 20 25 3 31 -10 5 -15 0 -15 -14z"/>
<path d="M3896 2924 c-8 -21 -4 -25 14 -14 11 7 12 12 4 20 -8 8 -13 7 -18 -6z"/>
<path d="M3600 2920 c0 -5 5 -10 10 -10 6 0 10 5 10 10 0 6 -4 10 -10 10 -5 0
-10 -4 -10 -10z"/>
<path d="M4156 2922 c-2 -4 -1 -14 3 -21 6 -10 10 -9 14 3 6 16 -8 32 -17 18z"/>
<path d="M3720 2909 c0 -5 4 -8 9 -5 5 4 11 0 14 -6 2 -7 8 -10 12 -6 4 4 4
11 0 17 -8 14 -35 14 -35 0z"/>
<path d="M3845 2910 c3 -5 10 -10 16 -10 5 0 9 5 9 10 0 6 -7 10 -16 10 -8 0
-12 -4 -9 -10z"/>
<path d="M3790 2890 c0 -5 5 -10 10 -10 6 0 10 5 10 10 0 6 -4 10 -10 10 -5 0
-10 -4 -10 -10z"/>
<path d="M3950 2871 c0 -17 15 -19 28 -5 11 12 9 14 -8 14 -11 0 -20 -4 -20
-9z"/>
<path d="M3610 2850 c0 -5 5 -10 11 -10 5 0 7 5 4 10 -3 6 -8 10 -11 10 -2 0
-4 -4 -4 -10z"/>
<path d="M2746 2822 c-2 -4 7 -12 20 -19 13 -6 24 -8 24 -4 0 10 -39 31 -44
23z"/>
<path d="M2975 2819 c-4 -5 1 -16 11 -24 23 -17 31 -1 10 20 -10 10 -17 12
-21 4z"/>
<path d="M2900 2811 c0 -5 9 -7 20 -4 11 3 20 7 20 9 0 2 -9 4 -20 4 -11 0
-20 -4 -20 -9z"/>
<path d="M3906 2760 c-19 -6 -19 -7 -1 -13 20 -8 29 -4 24 11 -2 5 -13 6 -23
2z"/>
<path d="M2960 2753 c1 -12 59 -67 65 -61 10 9 -7 38 -21 38 -8 0 -17 7 -20
15 -6 15 -24 21 -24 8z"/>
<path d="M3760 2750 c0 -5 5 -10 11 -10 6 0 9 -9 6 -20 -6 -22 0 -25 23 -10
13 8 11 12 -7 30 -25 22 -33 25 -33 10z"/>
<path d="M4008 2753 c-10 -2 -18 -8 -18 -13 0 -4 8 -7 18 -6 12 1 16 -5 15
-22 -2 -13 1 -21 7 -17 12 7 14 66 3 64 -5 -1 -16 -3 -25 -6z"/>
<path d="M3078 2743 c6 -2 12 -11 12 -19 0 -16 16 -19 25 -5 5 10 -25 32 -42
30 -4 0 -2 -3 5 -6z"/>
<path d="M3890 2730 c0 -6 7 -10 15 -10 8 0 15 2 15 4 0 2 -7 6 -15 10 -8 3
-15 1 -15 -4z"/>
<path d="M2747 2690 c-3 -14 -10 -19 -17 -15 -9 6 -9 2 -1 -14 l11 -21 21 21
c19 19 19 23 6 36 -12 13 -15 12 -20 -7z"/>
<path d="M3900 2700 c0 -5 4 -10 10 -10 5 0 7 -7 4 -15 -4 -8 -1 -15 6 -15 6
0 9 4 5 9 -3 5 -1 12 5 16 17 10 11 25 -10 25 -11 0 -20 -4 -20 -10z"/>
<path d="M2795 2669 c8 -25 26 -42 34 -33 3 3 -1 9 -9 14 -13 8 -12 10 3 10 9
0 17 5 17 10 0 6 -4 10 -9 10 -5 0 -17 3 -26 7 -14 5 -16 2 -10 -18z"/>
<path d="M3967 2683 c-13 -13 -7 -21 12 -16 10 3 22 0 25 -6 11 -17 36 -13 36
7 0 13 -2 14 -9 4 -6 -10 -10 -10 -21 3 -13 16 -32 20 -43 8z"/>
<path d="M2988 2675 c-10 -10 4 -45 18 -45 8 0 14 4 14 8 0 14 -25 43 -32 37z"/>
<path d="M4113 2664 c0 -8 6 -14 14 -14 7 0 13 4 13 9 0 5 -6 11 -13 14 -8 3
-14 -1 -14 -9z"/>
<path d="M2620 2630 c0 -5 5 -10 10 -10 6 0 10 5 10 10 0 6 -4 10 -10 10 -5 0
-10 -4 -10 -10z"/>
<path d="M2920 2622 c0 -5 7 -13 16 -16 10 -4 14 -1 12 6 -5 15 -28 23 -28 10z"/>
<path d="M3940 2619 c0 -5 5 -7 10 -4 6 3 10 8 10 11 0 2 -4 4 -10 4 -5 0 -10
-5 -10 -11z"/>
<path d="M3321 2574 c0 -11 3 -14 6 -6 3 7 2 16 -1 19 -3 4 -6 -2 -5 -13z"/>
<path d="M3886 2567 c-8 -30 -7 -42 2 -33 4 4 7 11 7 14 0 4 4 12 8 19 4 6 3
14 -2 17 -5 3 -11 -4 -15 -17z"/>
<path d="M2365 2570 c3 -5 8 -10 11 -10 2 0 4 5 4 10 0 6 -5 10 -11 10 -5 0
-7 -4 -4 -10z"/>
<path d="M4000 2570 c0 -5 5 -10 11 -10 5 0 7 5 4 10 -3 6 -8 10 -11 10 -2 0
-4 -4 -4 -10z"/>
<path d="M2980 2554 c0 -8 5 -12 10 -9 6 3 10 10 10 16 0 5 -4 9 -10 9 -5 0
-10 -7 -10 -16z"/>
<path d="M2800 2550 c0 -5 5 -10 10 -10 6 0 10 5 10 10 0 6 -4 10 -10 10 -5 0
-10 -4 -10 -10z"/>
<path d="M2645 2540 c-3 -5 -1 -10 4 -10 6 0 11 5 11 10 0 6 -2 10 -4 10 -3 0
-8 -4 -11 -10z"/>
<path d="M2752 2530 c1 -13 9 -25 16 -28 17 -5 15 16 -4 35 -14 15 -16 14 -12
-7z"/>
<path d="M4005 2530 c-10 -11 -15 -23 -11 -27 4 -4 11 -2 15 5 4 7 15 10 23 7
24 -9 32 12 10 24 -15 8 -23 6 -37 -9z"/>
<path d="M2588 2523 c-10 -2 -18 -9 -18 -14 0 -14 26 -11 40 6 13 15 9 16 -22
8z"/>
<path d="M2683 2523 c-17 -6 -16 -23 1 -23 8 0 16 7 20 15 6 15 1 17 -21 8z"/>
<path d="M2893 2515 c16 -9 31 -14 35 -11 8 9 0 14 -33 21 l-30 6 28 -16z"/>
<path d="M2990 2510 c0 -5 5 -10 10 -10 6 0 10 5 10 10 0 6 -4 10 -10 10 -5 0
-10 -4 -10 -10z"/>
<path d="M3910 2501 c11 -22 30 -29 30 -11 0 5 -9 14 -21 20 -19 11 -20 10 -9
-9z"/>
<path d="M2436 2491 c-9 -15 5 -41 22 -41 13 0 13 2 -1 18 -10 10 -14 22 -10
25 3 4 4 7 0 7 -3 0 -8 -4 -11 -9z"/>
<path d="M3200 2489 c0 -5 5 -7 10 -4 6 3 10 8 10 11 0 2 -4 4 -10 4 -5 0 -10
-5 -10 -11z"/>
<path d="M2370 2480 c0 -5 5 -10 10 -10 6 0 10 5 10 10 0 6 -4 10 -10 10 -5 0
-10 -4 -10 -10z"/>
<path d="M2855 2480 c3 -5 8 -10 11 -10 2 0 4 5 4 10 0 6 -5 10 -11 10 -5 0
-7 -4 -4 -10z"/>
<path d="M3090 2472 c0 -13 -5 -20 -12 -17 -7 3 -19 1 -27 -4 -11 -7 -11 -12
0 -32 l14 -24 3 23 c3 17 8 21 22 17 24 -8 35 24 15 44 -13 14 -15 13 -15 -7z"/>
<path d="M3150 2479 c0 -5 5 -7 10 -4 6 3 10 8 10 11 0 2 -4 4 -10 4 -5 0 -10
-5 -10 -11z"/>
<path d="M2655 2450 c3 -5 8 -10 11 -10 2 0 4 5 4 10 0 6 -5 10 -11 10 -5 0
-7 -4 -4 -10z"/>
<path d="M3193 2411 c-6 -10 -8 -23 -4 -30 5 -8 11 -3 19 13 13 30 1 43 -15
17z"/>
<path d="M2510 2401 c0 -9 41 -23 48 -16 2 2 1 8 -3 14 -8 13 -45 15 -45 2z"/>
<path d="M2647 2390 c-6 -23 1 -25 26 -6 16 12 16 14 1 20 -22 8 -21 9 -27
-14z"/>
<path d="M2955 2401 c-6 -11 9 -23 19 -14 9 9 7 23 -3 23 -6 0 -12 -4 -16 -9z"/>
<path d="M2828 2388 c7 -7 8 -17 1 -30 -11 -21 3 -25 20 -4 14 17 4 46 -17 46
-12 0 -13 -3 -4 -12z"/>
<path d="M3230 2390 c0 -5 5 -10 10 -10 6 0 10 5 10 10 0 6 -4 10 -10 10 -5 0
-10 -4 -10 -10z"/>
<path d="M2681 2358 c-7 -13 -10 -20 -6 -16 5 4 14 0 21 -10 12 -16 13 -16 14
0 0 9 -6 19 -12 21 -10 4 -10 6 0 6 6 1 12 6 12 11 0 17 -15 11 -29 -12z"/>
<path d="M2725 2361 c-5 -9 35 -55 42 -48 5 5 -21 57 -29 57 -4 0 -9 -4 -13
-9z"/>
<path d="M2910 2340 c20 -13 33 -13 25 0 -3 6 -14 10 -23 10 -15 0 -15 -2 -2
-10z"/>
<path d="M2971 2321 c-1 -8 -4 -11 -8 -8 -3 4 -12 -5 -20 -19 -16 -33 -16 -34
2 -34 8 0 15 9 15 19 0 11 5 21 12 23 6 2 8 11 5 19 -5 12 -6 12 -6 0z"/>
<path d="M3055 2300 c3 -5 8 -10 11 -10 2 0 4 5 4 10 0 6 -5 10 -11 10 -5 0
-7 -4 -4 -10z"/>
<path d="M3250 2303 c0 -15 19 -37 26 -31 3 4 -1 14 -10 23 -9 9 -16 13 -16 8z"/>
<path d="M3117 2271 c-5 -22 0 -31 18 -31 7 0 13 11 13 25 0 29 -23 34 -31 6z"/>
<path d="M3067 2213 c-14 -13 -6 -21 18 -19 28 1 35 26 7 26 -10 0 -22 -3 -25
-7z"/>
<path d="M3150 2205 c-8 -9 -8 -15 -2 -15 12 0 26 19 19 26 -2 2 -10 -2 -17
-11z"/>
<path d="M2840 2190 c0 -5 5 -10 10 -10 6 0 10 5 10 10 0 6 -4 10 -10 10 -5 0
-10 -4 -10 -10z"/>
<path d="M3170 2160 c0 -5 5 -10 10 -10 6 0 10 5 10 10 0 6 -4 10 -10 10 -5 0
-10 -4 -10 -10z"/>
<path d="M2985 2150 c3 -5 8 -10 11 -10 2 0 4 5 4 10 0 6 -5 10 -11 10 -5 0
-7 -4 -4 -10z"/>
<path d="M3085 2139 c-4 -6 -5 -12 -2 -15 2 -3 7 2 10 11 7 17 1 20 -8 4z"/>
<path d="M2205 2130 c-3 -5 -1 -10 4 -10 6 0 11 5 11 10 0 6 -2 10 -4 10 -3 0
-8 -4 -11 -10z"/>
<path d="M2010 2121 c0 -5 7 -11 15 -15 8 -3 15 -15 15 -28 0 -20 1 -21 16 -6
15 14 14 17 -2 37 -19 21 -44 28 -44 12z"/>
<path d="M1640 2110 c0 -5 5 -10 10 -10 6 0 10 5 10 10 0 6 -4 10 -10 10 -5 0
-10 -4 -10 -10z"/>
<path d="M1750 2109 c0 -5 5 -7 10 -4 6 3 10 8 10 11 0 2 -4 4 -10 4 -5 0 -10
-5 -10 -11z"/>
<path d="M1845 2110 c-3 -5 1 -10 9 -10 9 0 16 5 16 10 0 6 -4 10 -9 10 -6 0
-13 -4 -16 -10z"/>
<path d="M2996 2102 c-3 -6 -1 -14 5 -17 15 -10 25 3 12 16 -7 7 -13 7 -17 1z"/>
<path d="M1766 2093 c-11 -11 -6 -23 9 -23 8 0 15 4 15 9 0 13 -16 22 -24 14z"/>
<path d="M1828 2084 c-3 -3 -3 -14 -1 -25 5 -16 8 -18 14 -7 16 25 6 51 -13
32z"/>
<path d="M1805 2050 c-3 -5 -1 -10 4 -10 6 0 11 5 11 10 0 6 -2 10 -4 10 -3 0
-8 -4 -11 -10z"/>
<path d="M1659 2029 c12 -12 24 -19 27 -16 7 6 -25 37 -39 37 -6 0 -1 -9 12
-21z"/>
<path d="M3005 2030 c4 -6 11 -8 16 -5 14 9 11 15 -7 15 -8 0 -12 -5 -9 -10z"/>
<path d="M1570 2010 c0 -5 5 -10 11 -10 5 0 7 5 4 10 -3 6 -8 10 -11 10 -2 0
-4 -4 -4 -10z"/>
<path d="M1780 1998 c0 -16 5 -28 10 -28 13 0 13 20 0 40 -8 12 -10 9 -10 -12z"/>
<path d="M1963 2003 c-6 -15 4 -33 19 -33 5 0 8 7 4 15 -8 22 7 18 22 -6 13
-20 14 -20 32 -4 21 19 17 40 -6 31 -8 -3 -14 -1 -14 4 0 14 -51 8 -57 -7z"/>
<path d="M1720 1989 c0 -5 5 -7 10 -4 6 3 10 8 10 11 0 2 -4 4 -10 4 -5 0 -10
-5 -10 -11z"/>
<path d="M2774 1974 c3 -9 6 -18 6 -20 0 -2 4 -4 9 -4 5 0 7 9 4 20 -3 11 -10
20 -15 20 -6 0 -7 -7 -4 -16z"/>
<path d="M1880 1971 c0 -5 5 -13 10 -16 6 -3 10 -2 10 4 0 5 -4 13 -10 16 -5
3 -10 2 -10 -4z"/>
<path d="M2210 1970 c0 -5 5 -10 10 -10 6 0 10 5 10 10 0 6 -4 10 -10 10 -5 0
-10 -4 -10 -10z"/>
<path d="M1843 1930 c-1 -11 4 -20 12 -20 8 0 11 7 8 20 -3 11 -8 20 -12 20
-4 0 -7 -9 -8 -20z"/>
<path d="M2005 1920 c3 -5 10 -10 16 -10 5 0 9 5 9 10 0 6 -7 10 -16 10 -8 0
-12 -4 -9 -10z"/>
<path d="M1702 1898 c2 -12 8 -23 15 -25 6 -3 10 4 8 14 -2 10 -4 21 -4 26 -1
4 -6 7 -12 7 -6 0 -9 -10 -7 -22z"/>
<path d="M1927 1913 c-15 -4 -17 -11 -12 -31 9 -35 8 -35 39 -21 22 11 24 14
11 21 -8 5 -20 6 -25 3 -6 -3 -10 -1 -10 4 0 6 7 11 15 11 8 0 15 5 15 10 0
10 -3 11 -33 3z"/>
<path d="M2088 1888 c-20 -23 -24 -34 -16 -39 7 -5 13 -7 13 -6 1 1 11 19 23
40 26 45 17 48 -20 5z"/>
<path d="M1630 1900 c0 -5 5 -10 10 -10 6 0 10 5 10 10 0 6 -4 10 -10 10 -5 0
-10 -4 -10 -10z"/>
<path d="M1801 1881 c-9 -6 -10 -11 -2 -15 6 -4 11 -16 11 -27 0 -35 15 -20
16 16 1 37 -3 40 -25 26z"/>
<path d="M2120 1874 c0 -9 5 -14 12 -12 18 6 21 28 4 28 -9 0 -16 -7 -16 -16z"/>
<path d="M2690 1869 c0 -5 5 -7 10 -4 6 3 10 8 10 11 0 2 -4 4 -10 4 -5 0 -10
-5 -10 -11z"/>
<path d="M1640 1840 c0 -5 7 -10 16 -10 8 0 12 5 9 10 -3 6 -10 10 -16 10 -5
0 -9 -4 -9 -10z"/>
<path d="M1787 1817 c-7 -19 8 -43 17 -28 4 6 3 11 -3 11 -6 0 -8 7 -5 15 4 8
4 15 1 15 -3 0 -7 -6 -10 -13z"/>
<path d="M1970 1820 c0 -5 5 -10 11 -10 5 0 7 5 4 10 -3 6 -8 10 -11 10 -2 0
-4 -4 -4 -10z"/>
<path d="M2025 1820 c-3 -5 -1 -10 4 -10 6 0 11 5 11 10 0 6 -2 10 -4 10 -3 0
-8 -4 -11 -10z"/>
<path d="M2067 1786 c-10 -8 -14 -17 -9 -20 13 -8 3 -46 -11 -46 -6 0 -2 -6 9
-14 24 -19 42 -3 23 20 -11 14 -11 18 4 29 17 12 24 45 10 45 -5 0 -16 -7 -26
-14z"/>
<path d="M1847 1776 c-3 -8 -2 -18 3 -21 13 -8 20 9 11 24 -6 10 -10 9 -14 -3z"/>
<path d="M2175 1760 c-3 -5 -1 -10 4 -10 6 0 11 5 11 10 0 6 -2 10 -4 10 -3 0
-8 -4 -11 -10z"/>
<path d="M1980 1726 c0 -8 5 -18 10 -21 6 -3 10 3 10 14 0 12 -4 21 -10 21 -5
0 -10 -6 -10 -14z"/>
<path d="M1915 1721 c-6 -11 9 -23 19 -14 9 9 7 23 -3 23 -6 0 -12 -4 -16 -9z"/>
<path d="M1800 1701 c0 -5 7 -11 15 -15 8 -3 15 -1 15 3 0 5 -7 11 -15 15 -8
3 -15 1 -15 -3z"/>
<path d="M1740 1685 c0 -8 4 -15 10 -15 5 0 7 7 4 15 -4 8 -8 15 -10 15 -2 0
-4 -7 -4 -15z"/>
<path d="M2124 1689 c-8 -14 18 -31 30 -19 9 9 0 30 -14 30 -5 0 -12 -5 -16
-11z"/>
<path d="M2225 1660 c3 -5 8 -10 11 -10 2 0 4 5 4 10 0 6 -5 10 -11 10 -5 0
-7 -4 -4 -10z"/>
<path d="M1810 1640 c0 -5 5 -10 10 -10 6 0 10 5 10 10 0 6 -4 10 -10 10 -5 0
-10 -4 -10 -10z"/>
<path d="M2050 1630 c0 -5 5 -10 11 -10 5 0 7 5 4 10 -3 6 -8 10 -11 10 -2 0
-4 -4 -4 -10z"/>
<path d="M2020 1610 c0 -5 7 -10 16 -10 8 0 12 5 9 10 -3 6 -10 10 -16 10 -5
0 -9 -4 -9 -10z"/>
<path d="M940 1560 c0 -5 5 -10 10 -10 6 0 10 5 10 10 0 6 -4 10 -10 10 -5 0
-10 -4 -10 -10z"/>
<path d="M2400 1550 c0 -5 5 -10 10 -10 6 0 10 5 10 10 0 6 -4 10 -10 10 -5 0
-10 -4 -10 -10z"/>
<path d="M1990 1540 c0 -5 5 -10 10 -10 6 0 10 5 10 10 0 6 -4 10 -10 10 -5 0
-10 -4 -10 -10z"/>
<path d="M1840 1490 c0 -5 5 -10 10 -10 6 0 10 5 10 10 0 6 -4 10 -10 10 -5 0
-10 -4 -10 -10z"/>
<path d="M1877 1486 c-6 -15 1 -26 15 -26 4 0 8 9 8 20 0 23 -15 27 -23 6z"/>
<path d="M2130 1480 c0 -5 5 -10 10 -10 6 0 10 5 10 10 0 6 -4 10 -10 10 -5 0
-10 -4 -10 -10z"/>
<path d="M1145 1470 c3 -5 8 -10 11 -10 2 0 4 5 4 10 0 6 -5 10 -11 10 -5 0
-7 -4 -4 -10z"/>
<path d="M920 1435 c0 -14 29 -35 35 -26 3 6 -4 15 -15 21 -11 6 -20 8 -20 5z"/>
<path d="M1140 1415 c7 -9 15 -13 17 -11 7 7 -7 26 -19 26 -6 0 -6 -6 2 -15z"/>
<path d="M1042 1389 c2 -6 8 -10 13 -10 5 0 11 4 13 10 2 6 -4 11 -13 11 -9 0
-15 -5 -13 -11z"/>
<path d="M855 1380 c-3 -5 -1 -10 4 -10 6 0 11 5 11 10 0 6 -2 10 -4 10 -3 0
-8 -4 -11 -10z"/>
<path d="M960 1369 c0 -5 5 -7 10 -4 6 3 10 8 10 11 0 2 -4 4 -10 4 -5 0 -10
-5 -10 -11z"/>
<path d="M997 1360 c-4 -17 -2 -18 14 -9 11 5 17 14 14 20 -10 15 -22 10 -28
-11z"/>
<path d="M1097 1345 c3 -13 2 -16 -4 -8 -5 8 -14 9 -23 3 -17 -11 -13 -15 21
-23 19 -5 31 -1 44 13 21 23 14 35 -19 35 -18 1 -22 -4 -19 -20z"/>
<path d="M830 1339 c0 -7 -9 -9 -21 -6 -20 5 -20 5 -3 -14 18 -20 29 -26 20
-10 -3 5 4 11 15 14 12 3 18 10 14 16 -8 14 -25 14 -25 0z"/>
<path d="M965 1340 c-3 -5 -1 -10 4 -10 6 0 11 5 11 10 0 6 -2 10 -4 10 -3 0
-8 -4 -11 -10z"/>
<path d="M1170 1316 c0 -8 5 -18 10 -21 6 -3 10 3 10 14 0 12 -4 21 -10 21 -5
0 -10 -6 -10 -14z"/>
<path d="M1230 1310 c0 -5 5 -10 10 -10 6 0 10 5 10 10 0 6 -4 10 -10 10 -5 0
-10 -4 -10 -10z"/>
<path d="M956 1301 c-4 -7 -5 -15 -2 -18 9 -9 19 4 14 18 -4 11 -6 11 -12 0z"/>
<path d="M879 1298 c-6 -21 -5 -38 2 -38 5 0 9 9 9 20 0 16 -7 28 -11 18z"/>
<path d="M1108 1293 c7 -3 16 -2 19 1 4 3 -2 6 -13 5 -11 0 -14 -3 -6 -6z"/>
<path d="M1240 1272 c0 -6 -7 -9 -15 -6 -16 6 -21 -11 -6 -20 11 -7 36 22 27
31 -3 3 -6 1 -6 -5z"/>
<path d="M600 1266 c0 -2 7 -6 15 -10 8 -3 15 -1 15 4 0 6 -7 10 -15 10 -8 0
-15 -2 -15 -4z"/>
<path d="M956 1261 c-4 -7 -5 -15 -2 -18 9 -9 19 4 14 18 -4 11 -6 11 -12 0z"/>
<path d="M990 1255 c0 -9 5 -15 11 -13 6 2 11 8 11 13 0 5 -5 11 -11 13 -6 2
-11 -4 -11 -13z"/>
<path d="M1535 1240 c-3 -5 -1 -10 4 -10 6 0 11 5 11 10 0 6 -2 10 -4 10 -3 0
-8 -4 -11 -10z"/>
<path d="M515 1230 c3 -5 10 -10 16 -10 5 0 9 5 9 10 0 6 -7 10 -16 10 -8 0
-12 -4 -9 -10z"/>
<path d="M480 1220 c0 -5 5 -10 10 -10 6 0 10 5 10 10 0 6 -4 10 -10 10 -5 0
-10 -4 -10 -10z"/>
<path d="M585 1220 c-3 -5 1 -10 9 -10 9 0 16 5 16 10 0 6 -4 10 -9 10 -6 0
-13 -4 -16 -10z"/>
<path d="M674 1216 c-3 -9 -13 -16 -22 -16 -18 0 -8 -13 12 -16 8 -1 17 8 20
19 6 26 -1 36 -10 13z"/>
<path d="M755 1220 c-3 -5 1 -10 9 -10 9 0 16 5 16 10 0 6 -4 10 -9 10 -6 0
-13 -4 -16 -10z"/>
<path d="M1188 1218 c9 -9 15 -9 24 0 9 9 7 12 -12 12 -19 0 -21 -3 -12 -12z"/>
<path d="M1330 1220 c0 -5 10 -10 22 -10 12 0 35 -12 51 -27 l30 -28 -18 32
c-17 29 -40 43 -72 43 -7 0 -13 -4 -13 -10z"/>
<path d="M1070 1189 c0 -5 5 -7 10 -4 6 3 10 8 10 11 0 2 -4 4 -10 4 -5 0 -10
-5 -10 -11z"/>
<path d="M1115 1190 c-3 -5 -1 -18 4 -27 9 -16 10 -14 11 10 0 28 -5 34 -15
17z"/>
<path d="M733 1175 c-18 -20 -17 -22 20 -21 27 1 33 5 29 19 -5 20 -32 22 -49
2z"/>
<path d="M1071 1154 c0 -11 3 -14 6 -6 3 7 2 16 -1 19 -3 4 -6 -2 -5 -13z"/>
<path d="M1282 1140 c0 -14 2 -19 5 -12 2 6 2 18 0 25 -3 6 -5 1 -5 -13z"/>
<path d="M1196 1137 c3 -10 9 -15 12 -12 3 3 0 11 -7 18 -10 9 -11 8 -5 -6z"/>
<path d="M810 1128 c0 -4 9 -8 20 -8 11 0 20 4 20 8 0 4 -9 8 -20 8 -11 0 -20
-4 -20 -8z"/>
<path d="M975 1127 c-10 -8 -15 -19 -11 -26 6 -9 13 -8 27 5 33 30 20 47 -16
21z"/>
<path d="M646 1098 c8 -27 37 -52 42 -37 2 6 -8 21 -23 35 -26 24 -26 24 -19
2z"/>
<path d="M1147 1095 c3 -15 1 -25 -6 -25 -6 0 -11 -7 -11 -15 0 -8 -4 -15 -10
-15 -5 0 -10 -5 -10 -10 0 -6 8 -5 20 2 11 7 20 17 20 22 0 5 6 14 14 20 12 9
11 14 -4 29 -17 17 -17 17 -13 -8z"/>
<path d="M502 1099 c2 -6 8 -10 13 -10 5 0 11 4 13 10 2 6 -4 11 -13 11 -9 0
-15 -5 -13 -11z"/>
<path d="M760 1085 c0 -8 -5 -15 -11 -15 -5 0 -7 -5 -3 -11 4 -8 9 -8 17 0 14
14 18 41 6 41 -5 0 -9 -7 -9 -15z"/>
<path d="M1362 1088 c5 -15 28 -18 29 -3 0 6 -7 12 -17 13 -10 3 -15 -1 -12
-10z"/>
<path d="M1420 1079 c0 -5 5 -7 10 -4 6 3 10 8 10 11 0 2 -4 4 -10 4 -5 0 -10
-5 -10 -11z"/>
<path d="M804 1055 c8 -8 17 -15 20 -15 3 0 6 7 6 15 0 9 -9 15 -21 15 -18 0
-19 -2 -5 -15z"/>
<path d="M547 1038 c-4 -12 -4 -24 -2 -27 7 -7 34 32 29 41 -9 15 -22 8 -27
-14z"/>
<path d="M983 1045 c-16 -18 -17 -45 -2 -45 6 0 9 7 5 15 -3 10 1 15 13 15 11
0 21 -6 24 -12 2 -8 8 -9 13 -4 5 5 4 11 -3 13 -7 3 -13 11 -13 19 0 18 -21
17 -37 -1z"/>
<path d="M1221 1047 c-6 -8 -8 -17 -4 -20 11 -12 21 -7 26 13 6 23 -5 26 -22
7z"/>
<path d="M600 1039 c0 -5 5 -7 10 -4 6 3 10 8 10 11 0 2 -4 4 -10 4 -5 0 -10
-5 -10 -11z"/>
<path d="M910 1015 c-7 -9 -10 -18 -7 -21 7 -8 47 14 47 26 0 15 -26 12 -40
-5z"/>
<path d="M1060 1014 c0 -14 3 -14 15 -4 8 7 15 14 15 16 0 2 -7 4 -15 4 -8 0
-15 -7 -15 -16z"/>
<path d="M589 1004 c-11 -14 -10 -16 9 -12 13 1 23 7 23 13 1 17 -17 16 -32
-1z"/>
<path d="M870 1001 c0 -6 4 -13 10 -16 6 -3 7 1 4 9 -7 18 -14 21 -14 7z"/>
<path d="M1198 1003 c-21 -5 -24 -23 -4 -23 8 0 16 7 20 15 3 8 4 14 3 14 -1
-1 -10 -3 -19 -6z"/>
<path d="M754 993 c4 -6 1 -15 -6 -19 -18 -12 31 -26 50 -14 15 8 15 9 -2 10
-10 0 -25 8 -33 18 -8 9 -12 12 -9 5z"/>
<path d="M665 980 c-3 -5 -1 -10 4 -10 6 0 11 5 11 10 0 6 -2 10 -4 10 -3 0
-8 -4 -11 -10z"/>
<path d="M1112 953 c2 -9 10 -18 18 -20 12 -4 13 -3 1 5 -7 5 -10 15 -7 21 4
6 2 11 -4 11 -6 0 -10 -8 -8 -17z"/>
<path d="M650 956 c0 -2 8 -10 18 -17 15 -13 16 -12 3 4 -13 16 -21 21 -21 13z"/>
<path d="M800 916 c0 -8 7 -16 15 -20 17 -6 18 -4 9 18 -8 20 -24 21 -24 2z"/>
<path d="M1000 920 c0 -7 24 -20 36 -20 13 0 1 19 -16 23 -11 3 -20 2 -20 -3z"/>
<path d="M980 886 c0 -9 7 -16 16 -16 17 0 14 22 -4 28 -7 2 -12 -3 -12 -12z"/>
<path d="M707 850 c3 -11 12 -20 19 -20 20 0 17 18 -5 29 -16 9 -18 8 -14 -9z"/>
<path d="M545 829 c-11 -4 -18 -8 -15 -9 23 -7 41 -7 45 0 8 13 -8 18 -30 9z"/>
<path d="M620 780 c0 -5 5 -10 10 -10 6 0 10 5 10 10 0 6 -4 10 -10 10 -5 0
-10 -4 -10 -10z"/>
<path d="M640 750 c0 -5 4 -10 9 -10 6 0 13 5 16 10 3 6 -1 10 -9 10 -9 0 -16
-4 -16 -10z"/>
<path d="M510 700 c0 -5 7 -10 15 -10 8 0 15 5 15 10 0 6 -7 10 -15 10 -8 0
-15 -4 -15 -10z"/>
<path d="M710 690 c0 -5 9 -10 20 -10 11 0 20 5 20 10 0 6 -9 10 -20 10 -11 0
-20 -4 -20 -10z"/>
<path d="M795 660 c-3 -5 -1 -10 4 -10 6 0 11 5 11 10 0 6 -2 10 -4 10 -3 0
-8 -4 -11 -10z"/>
</g>
</svg>
