<?xml version="1.0" standalone="no"?>
<!DOCTYPE svg PUBLIC "-//W3C//DTD SVG 20010904//EN"
 "http://www.w3.org/TR/2001/REC-SVG-20010904/DTD/svg10.dtd">
<svg version="1.0" xmlns="http://www.w3.org/2000/svg"
 width="123.000000pt" height="123.000000pt" viewBox="0 0 304.000000 309.000000"
 preserveAspectRatio="xMidYMid meet">

<g transform="translate(0.000000,309.000000) scale(0.100000,-0.100000)"  stroke="none">
<path d="M1390 2863 c-100 -12 -288 -57 -381 -89 -294 -102 -526 -283 -623
-488 -53 -111 -66 -162 -66 -264 0 -61 -4 -83 -16 -93 -15 -12 -16 -48 -10
-379 10 -511 15 -691 20 -722 12 -64 174 -227 327 -328 466 -307 1191 -366
1759 -143 183 72 366 178 391 225 8 16 14 164 20 488 5 333 11 474 20 496 16
41 11 53 -53 106 -50 43 -67 50 -318 126 -146 45 -330 100 -410 123 -93 27
-179 60 -240 92 -52 27 -97 51 -99 53 -3 2 7 17 21 32 14 15 56 72 94 127 37
55 106 153 152 219 121 172 146 219 139 263 -4 20 -2 42 4 49 17 20 4 31 -64
53 -133 44 -195 52 -417 56 -118 2 -231 1 -250 -2z m588 -89 c28 -3 52 -7 52
-10 0 -30 -103 -190 -234 -363 -88 -118 -166 -224 -173 -235 -17 -29 -16 -56
4 -78 24 -26 7 -35 -28 -14 -21 13 -34 15 -41 8 -25 -25 24 -102 64 -102 12 0
31 -8 42 -19 38 -33 199 -108 326 -151 252 -85 661 -228 667 -233 9 -10 -7
-26 -66 -66 -479 -326 -1337 -328 -1823 -5 -321 214 -420 527 -249 791 75 117
218 236 377 316 163 82 466 155 709 171 61 4 300 -3 373 -10z m-1466 -1209
c190 -208 549 -370 931 -420 429 -55 902 42 1211 249 38 25 73 46 77 46 11 0
11 -3 -1 -92 -9 -67 -50 -485 -50 -509 0 -8 -5 -7 -15 1 -8 7 -15 18 -15 25 0
7 -9 24 -21 39 -15 19 -30 26 -55 26 -44 0 -127 -42 -151 -76 -37 -54 -76 -94
-89 -94 -7 0 -16 11 -20 25 -11 44 -59 75 -115 75 -85 0 -152 -48 -180 -129
-13 -37 -49 -52 -64 -26 -59 103 -141 137 -230 96 -48 -22 -69 -44 -84 -92
-14 -44 -42 -72 -65 -63 -9 3 -32 37 -53 76 -28 55 -45 73 -76 90 -81 41 -212
0 -250 -79 -18 -37 -25 -43 -52 -43 -43 0 -55 16 -55 73 0 103 -38 165 -117
186 -62 17 -135 -25 -174 -101 -22 -43 -33 -51 -58 -43 -17 5 -18 13 -14 63 9
111 -56 182 -165 182 -56 0 -83 -10 -119 -43 -13 -11 -25 -19 -27 -16 -2 2 -9
122 -15 266 -7 145 -16 309 -21 365 -5 56 -6 106 -3 111 3 5 23 -19 45 -52 22
-34 62 -86 90 -116z m90 -622 c15 -13 18 -31 18 -100 0 -75 3 -86 24 -108 31
-31 94 -49 142 -41 43 9 90 51 100 92 8 33 41 74 60 74 27 0 44 -43 44 -115 0
-116 49 -165 165 -165 51 0 60 3 88 33 18 18 40 47 49 64 12 24 26 34 52 39
44 8 60 -3 85 -60 42 -97 118 -147 190 -126 57 16 111 78 120 139 7 38 24 48
65 37 15 -4 31 -23 47 -57 40 -86 102 -109 186 -68 51 25 79 58 93 109 7 27
18 41 39 50 32 13 51 7 51 -16 0 -30 30 -72 59 -82 64 -23 151 30 196 118 30
59 95 91 95 46 0 -14 45 -59 78 -75 12 -6 22 -18 22 -26 0 -36 -194 -142 -375
-205 -588 -202 -1300 -113 -1706 215 -68 55 -159 154 -159 173 0 6 19 24 42
41 48 35 100 41 130 14z"/>
</g>
</svg>
