<?xml version="1.0" standalone="no"?>
<!DOCTYPE svg PUBLIC "-//W3C//DTD SVG 20010904//EN"
 "http://www.w3.org/TR/2001/REC-SVG-20010904/DTD/svg10.dtd">
<svg version="1.0" xmlns="http://www.w3.org/2000/svg"
 width="163.000000pt" height="154.000000pt" viewBox="0 0 417.000000 511.000000"
 preserveAspectRatio="xMidYMid meet">

<g transform="translate(0.000000,511.000000) scale(0.100000,-0.100000)"
fill="#000000" stroke="none">
<path d="M3160 4955 c-139 -28 -245 -82 -376 -190 -156 -129 -294 -313 -399
-530 -79 -162 -116 -299 -143 -520 l-7 -60 -490 -1 c-465 -1 -681 -7 -694 -20
-15 -15 -21 -284 -26 -1344 -3 -630 -10 -1291 -14 -1469 l-8 -325 34 -58 c77
-132 310 -243 628 -299 116 -21 161 -23 410 -23 301 0 371 7 552 60 227 66
349 148 388 260 10 30 10 41 -3 66 -12 26 -14 178 -9 1186 3 637 9 1167 14
1179 5 13 5 60 1 105 -3 46 -7 128 -8 183 -1 55 -6 114 -9 130 -6 23 -3 35 13
53 19 22 21 34 18 160 -2 75 -6 140 -8 144 -3 4 -113 8 -246 8 l-240 0 6 68
c35 351 205 666 445 824 89 58 163 82 240 76 56 -4 152 -42 200 -79 51 -40 99
-16 117 57 11 47 50 128 67 143 10 7 17 26 17 42 0 22 -11 37 -52 70 -134 105
-258 136 -418 104z m195 -100 c58 -10 59 -13 24 -52 -24 -29 -30 -42 -25 -65
6 -33 -9 -44 -48 -34 -18 4 -25 14 -29 43 -3 21 -9 50 -12 65 -10 39 0 59 27
54 13 -3 41 -8 63 -11z m-161 -20 c-3 -13 -2 -38 4 -53 15 -44 -7 -64 -85 -77
-37 -6 -43 -4 -43 11 0 10 -9 28 -21 40 -20 21 -20 23 -4 48 17 26 84 54 133
55 19 1 21 -3 16 -24z m311 -55 l28 -29 -25 -38 c-14 -21 -32 -50 -40 -66 -12
-24 -16 -26 -32 -14 -17 12 -17 17 -5 50 10 29 10 41 0 64 -11 25 -10 29 9 45
29 24 31 23 65 -12z m-515 -104 c-7 -12 -44 -44 -84 -71 l-71 -51 -23 35 c-15
21 -21 43 -18 56 6 24 51 62 118 100 l41 23 24 -35 c21 -30 23 -40 13 -57z
m-227 -115 c26 -44 21 -61 -32 -121 l-49 -55 -31 29 c-17 17 -31 36 -31 44 0
17 99 132 114 132 7 0 19 -13 29 -29z m-159 -205 c14 -19 26 -40 26 -45 0 -6
-14 -36 -31 -67 l-31 -55 -32 24 c-17 14 -32 34 -34 46 -3 20 56 131 69 131 4
0 18 -15 33 -34z m-97 -208 l31 -33 -28 -75 c-28 -74 -28 -75 -62 -72 -52 4
-65 23 -51 74 18 66 53 138 67 138 6 0 26 -15 43 -32z m-51 -311 c-4 -22 -9
-44 -12 -49 -7 -11 -57 -10 -89 2 -29 11 -29 8 -4 102 l9 37 51 -26 51 -25 -6
-41z m-104 -114 c10 -9 35 -19 56 -22 28 -5 37 -11 37 -26 0 -17 -8 -20 -59
-23 -64 -3 -76 4 -76 49 0 41 13 48 42 22z m-377 -144 c429 2 822 0 873 -4
l92 -7 0 -73 0 -73 -342 -6 c-189 -3 -603 -7 -920 -9 l-578 -3 0 86 c0 48 3
90 7 94 4 4 26 3 48 -1 22 -4 391 -6 820 -4z m960 -323 c0 -41 -4 -79 -8 -82
-4 -4 -406 -11 -894 -15 -489 -5 -899 -10 -912 -11 -30 -4 -39 20 -40 112 l-1
65 928 4 929 4 -2 -77z m-7 -184 c8 -1 12 -22 12 -66 l0 -64 -102 -6 c-57 -3
-454 -10 -883 -16 -429 -6 -801 -14 -827 -17 l-46 -5 -7 76 c-4 41 -5 81 -2
88 4 10 189 13 923 12 506 0 925 -1 932 -2z m7 -687 l0 -463 -77 -12 c-129
-20 -191 1 -314 107 -89 77 -146 103 -228 103 -70 0 -107 -12 -177 -59 -87
-58 -121 -66 -233 -54 -128 13 -203 49 -293 140 -53 53 -83 74 -136 96 -78 31
-103 33 -178 11 -89 -27 -123 -49 -164 -108 -21 -31 -41 -56 -44 -56 -4 0 -7
170 -8 378 l-1 377 927 1 926 2 0 -463z m-1487 -234 c33 -17 84 -58 120 -95
99 -102 228 -155 388 -158 82 -2 94 1 154 30 36 18 86 46 113 64 87 57 166 38
292 -74 119 -104 218 -134 344 -104 36 8 68 13 73 10 11 -7 10 -531 -1 -538
-5 -4 -56 -9 -114 -12 -97 -6 -108 -5 -158 18 -30 14 -85 53 -123 86 -89 79
-155 106 -248 99 -58 -4 -76 -10 -130 -45 -101 -65 -129 -74 -217 -67 -42 3
-110 18 -151 32 -65 23 -85 36 -144 96 -119 119 -223 150 -353 106 -72 -24
-99 -48 -162 -144 l-46 -70 -3 274 c-3 302 -4 292 63 377 78 98 94 112 153
127 80 21 86 21 150 -12z m15 -642 c23 -12 74 -52 112 -89 112 -108 234 -159
389 -161 92 -2 156 19 239 79 94 68 164 55 292 -53 119 -100 170 -119 285
-111 47 4 101 8 120 9 l35 2 3 -285 c1 -157 0 -291 -3 -298 -4 -10 -13 -7 -37
13 -45 38 -170 98 -266 129 -447 141 -1175 59 -1479 -167 -58 -43 -61 -45 -67
-24 -3 12 -6 173 -6 357 l0 335 49 75 c77 120 137 179 196 195 70 19 90 18
138 -6z m802 -769 c249 -21 452 -73 555 -142 106 -70 125 -130 65 -197 -176
-195 -867 -268 -1379 -146 -186 44 -311 100 -382 172 l-36 35 33 34 c40 42
198 124 302 158 239 78 552 110 842 86z"/>
</g>
</svg>
