<?xml version="1.0" standalone="no"?>
<!DOCTYPE svg PUBLIC "-//W3C//DTD SVG 20010904//EN"
 "http://www.w3.org/TR/2001/REC-SVG-20010904/DTD/svg10.dtd">
<svg version="1.0" xmlns="http://www.w3.org/2000/svg"
 width="559.000000pt" height="473.000000pt" viewBox="0 0 559.000000 473.000000"
 preserveAspectRatio="xMidYMid meet">

<g transform="translate(0.000000,473.000000) scale(0.100000,-0.100000)"
fill="#000000" stroke="none">
<path d="M688 4684 c-44 -23 -75 -104 -58 -150 7 -19 -1 -36 -54 -106 -120
-159 -183 -262 -274 -443 -312 -624 -374 -1341 -175 -2005 130 -432 344 -800
658 -1130 408 -429 924 -706 1530 -822 112 -21 145 -23 495 -23 319 0 389 3
470 18 739 140 1332 506 1777 1097 278 370 458 821 518 1298 24 191 16 637
-14 802 -74 400 -213 749 -425 1068 l-65 97 28 25 c56 49 66 105 28 161 -64
94 -197 116 -270 43 -31 -30 -38 -72 -21 -121 17 -48 54 -78 124 -100 47 -16
60 -26 97 -78 166 -234 305 -526 388 -815 43 -150 89 -393 81 -426 l-7 -25
-49 42 c-66 55 -125 62 -215 26 -69 -28 -95 -65 -95 -133 l0 -40 -62 3 c-109
6 -211 24 -272 49 -32 13 -75 26 -95 30 -20 4 -44 11 -53 16 -28 14 -56 -8
-70 -55 -6 -23 -17 -45 -23 -49 -24 -17 29 -36 181 -66 140 -28 173 -31 254
-25 113 8 113 -3 3 -43 -43 -15 -106 -42 -139 -61 -34 -18 -104 -47 -155 -63
-52 -17 -98 -35 -104 -41 -5 -5 -17 -9 -27 -9 -45 0 3 -86 62 -110 26 -11 33
-10 56 6 15 11 34 24 43 29 115 71 156 92 242 126 56 22 110 46 122 54 12 8
26 15 32 15 7 0 29 -31 51 -69 44 -78 76 -100 160 -108 55 -6 133 16 156 44 7
9 16 36 20 62 11 71 0 -183 -12 -274 -48 -360 -174 -722 -359 -1033 -38 -64
-76 -125 -83 -136 -18 -23 -41 -16 -88 26 -49 44 -174 125 -213 137 -21 7 -38
23 -49 44 -8 17 -42 86 -74 152 -37 75 -74 135 -101 161 -74 76 -197 124 -318
124 -63 0 -77 -4 -119 -31 -58 -39 -112 -108 -127 -163 -23 -84 4 -157 94
-253 122 -130 214 -162 469 -164 l167 -1 63 -43 c35 -24 94 -62 131 -86 60
-37 66 -44 54 -58 -275 -331 -543 -555 -879 -731 -170 -89 -259 -125 -269
-108 -5 7 -57 159 -115 338 -58 179 -124 371 -146 428 -39 100 -40 102 -72
102 -45 0 -136 -28 -137 -43 -1 -7 -1 -16 0 -21 1 -4 -3 -14 -9 -21 -16 -19
20 -102 201 -470 92 -188 153 -323 153 -342 2 -27 -3 -34 -28 -43 -16 -5 -30
-9 -31 -8 -10 12 -55 113 -176 395 -78 180 -152 350 -166 376 -13 27 -21 56
-18 66 11 35 -17 42 -86 23 -91 -26 -123 -43 -127 -69 -4 -25 1 -34 266 -491
100 -172 182 -319 182 -326 0 -17 -108 -44 -305 -78 -113 -19 -167 -22 -405
-22 -234 0 -296 3 -415 22 -126 20 -398 82 -410 94 -2 2 31 76 75 163 44 88
81 164 83 169 2 5 37 10 78 11 42 1 85 8 97 14 21 11 117 166 206 333 26 48
51 90 56 93 21 13 10 66 -19 96 -61 61 -108 30 -172 -111 -24 -52 -55 -111
-70 -130 -14 -19 -36 -54 -48 -77 -20 -40 -38 -52 -54 -37 -8 8 14 51 69 134
48 72 99 211 90 245 -6 24 -53 49 -82 43 -9 -1 -32 -32 -51 -67 -18 -35 -42
-75 -52 -90 -20 -28 -65 -137 -77 -183 -4 -19 -13 -28 -26 -28 -18 0 -19 5
-13 53 7 57 35 121 90 207 53 83 45 130 -22 130 -54 0 -96 -50 -127 -152 -14
-47 -49 -134 -76 -193 -70 -151 -66 -178 30 -195 27 -4 35 -10 34 -25 -3 -38
-61 -173 -113 -263 l-53 -90 -65 24 c-93 35 -323 151 -420 212 -150 94 -383
271 -383 290 0 5 57 60 127 123 71 63 170 154 221 204 l93 89 77 2 c126 2 235
54 326 155 90 100 128 233 89 309 -28 54 -92 83 -171 77 -186 -14 -401 -222
-391 -376 3 -40 0 -52 -11 -56 -9 -3 -107 -97 -219 -210 -193 -195 -220 -230
-184 -242 11 -4 318 302 392 392 23 28 44 61 47 75 37 168 132 284 281 346
101 41 179 29 208 -33 46 -96 -75 -273 -243 -355 -55 -27 -78 -33 -132 -33
-46 0 -74 -5 -93 -18 -38 -24 -146 -118 -320 -276 l-148 -134 -70 69 c-194
190 -385 456 -513 712 -39 77 -45 96 -35 109 7 8 58 37 113 65 55 28 131 70
169 95 l68 46 127 -9 c233 -16 327 -3 459 61 151 74 243 196 243 322 0 53 -6
77 -32 130 -18 36 -39 68 -46 70 -7 3 -36 -11 -65 -30 -28 -20 -252 -150 -497
-290 -245 -139 -479 -274 -520 -300 -41 -25 -78 -43 -82 -39 -14 14 -69 185
-103 318 -49 191 -75 379 -82 606 -5 165 -4 198 8 203 8 3 94 14 193 25 205
22 198 24 249 -61 46 -76 71 -82 359 -80 223 1 308 9 332 34 19 18 20 255 2
310 -8 23 -17 65 -21 92 -10 78 -74 265 -91 265 -20 0 -309 -77 -403 -107
-133 -42 -161 -63 -205 -154 -31 -63 -32 -64 -108 -95 -83 -33 -257 -70 -283
-60 -19 7 -17 31 21 221 77 395 249 778 498 1111 l39 52 47 -25 c60 -31 111
-24 157 22 85 85 26 246 -90 245 -23 -1 -54 -7 -69 -16z m123 -53 c23 -23 29
-38 29 -71 0 -33 -6 -48 -29 -71 -36 -36 -64 -37 -113 -3 -42 30 -52 51 -43
93 17 78 102 106 156 52z m4231 -37 c89 -46 71 -151 -29 -167 -47 -8 -78 1
-111 33 -53 50 -48 114 11 144 35 18 83 14 129 -10z m-3931 -1269 c10 -38 19
-86 19 -107 0 -20 7 -58 16 -84 10 -30 16 -87 17 -163 l2 -116 -50 -12 c-74
-19 -437 -29 -507 -14 -54 12 -58 15 -86 64 -53 93 -44 91 -241 73 -241 -22
-223 -24 -219 27 l3 42 100 11 c61 7 127 22 170 39 122 47 130 50 141 57 6 4
21 34 33 67 12 35 34 70 50 84 32 26 191 80 375 126 65 17 121 33 124 36 8 7
29 -46 53 -130z m4332 -261 c89 -65 84 -109 -16 -139 -61 -18 -208 -20 -225
-3 -16 16 -15 86 1 117 15 30 88 60 147 60 36 0 55 -7 93 -35z m-633 -94 c96
-32 191 -50 271 -50 34 -1 71 -9 102 -23 48 -23 48 -23 28 -41 -12 -11 -21
-27 -21 -36 0 -17 -107 -73 -230 -120 -50 -20 -162 -83 -232 -132 -26 -17 -30
-17 -58 -3 -16 9 -30 22 -30 29 0 7 38 28 88 46 48 19 126 53 175 77 48 24
122 57 165 74 151 59 138 83 -46 86 -90 1 -165 9 -255 27 -71 14 -130 26 -132
26 -3 0 -3 6 -1 13 3 6 7 25 11 41 6 26 8 28 43 21 20 -3 75 -19 122 -35z
m740 -94 c0 -36 -5 -68 -11 -72 -6 -3 -23 5 -37 19 -38 35 -65 47 -109 48 -26
1 -30 3 -13 6 40 7 114 35 130 50 30 28 40 15 40 -51z m-95 -55 c41 -24 56
-57 49 -111 -3 -25 -8 -52 -10 -62 -7 -23 -56 -38 -127 -38 -55 0 -62 3 -92
35 -18 19 -41 55 -51 81 -16 42 -16 49 -3 73 8 14 30 31 49 38 44 15 145 6
185 -16z m-4038 -488 c57 -131 -24 -281 -200 -369 -110 -56 -177 -68 -387 -68
-183 -1 -185 -1 -226 -28 -45 -29 -278 -148 -290 -148 -4 0 -16 -7 -26 -16
-16 -16 -18 -15 -26 7 -9 23 -3 27 97 80 101 53 323 180 791 452 118 69 223
125 233 126 12 1 24 -12 34 -36z m2994 -537 c37 -15 85 -43 108 -62 39 -34
115 -156 159 -257 l21 -48 -35 33 c-20 18 -56 63 -81 100 -53 79 -114 138
-174 169 -73 37 -183 79 -207 79 -15 0 -21 4 -16 11 12 20 152 5 225 -25z
m-163 -27 c189 -85 207 -98 292 -208 97 -126 155 -184 187 -186 46 -4 111 -42
271 -160 41 -30 51 -48 33 -60 -5 -3 -54 21 -108 53 -162 98 -176 103 -251
102 -243 -6 -350 7 -431 53 -41 23 -147 122 -163 152 -6 11 14 -3 44 -32 30
-28 82 -65 115 -81 72 -37 260 -85 282 -72 12 7 9 10 -14 15 -120 27 -197 49
-243 72 -73 35 -216 169 -220 206 -3 26 -1 27 25 21 45 -11 55 -16 148 -74
137 -86 208 -134 276 -189 59 -48 89 -62 89 -43 0 8 -77 72 -164 137 -83 62
-289 178 -332 187 -34 7 -42 13 -37 26 22 63 58 57 172 -29 52 -38 121 -84
154 -101 32 -18 104 -71 160 -120 55 -48 104 -88 109 -88 19 0 4 20 -59 79
-92 88 -154 135 -222 171 -31 17 -80 49 -107 72 -27 22 -72 52 -101 66 -41 20
-50 29 -41 39 16 20 82 16 136 -8z m-2093 -690 c4 -5 -18 -52 -48 -102 -71
-116 -96 -223 -67 -278 21 -38 104 -17 115 29 12 54 62 167 104 231 22 35 41
70 41 78 0 7 7 13 15 13 8 0 15 -9 15 -21 0 -32 -57 -157 -97 -213 -39 -54
-73 -122 -73 -146 0 -29 17 -41 63 -46 52 -6 87 8 87 35 0 10 17 43 37 72 20
29 54 92 75 139 61 134 61 135 88 135 15 0 26 -7 28 -16 6 -30 -232 -433 -265
-448 -15 -7 -39 -7 -70 -2 -83 16 -91 8 -168 -159 -45 -96 -72 -144 -107 -193
-9 -12 -17 -14 -28 -8 -16 11 -10 25 60 141 22 36 49 93 61 127 11 35 25 65
30 68 13 9 11 68 -4 88 -6 10 -30 20 -52 24 -66 10 -67 14 -23 116 39 89 68
172 102 290 16 52 19 57 46 57 16 0 32 -5 35 -11z m1391 -144 c18 -60 76 -238
128 -394 53 -157 94 -286 92 -289 -8 -7 -61 94 -202 388 -79 166 -156 321
-173 345 l-29 43 36 10 c21 6 54 10 76 9 l38 -2 34 -110z m-286 31 c0 -16 46
-130 199 -496 61 -145 111 -270 111 -277 0 -43 -43 18 -185 264 -88 152 -188
322 -221 379 l-62 104 27 6 c14 3 44 12 66 19 53 18 65 18 65 1z"/>
<path d="M3507 4155 c-9 -8 -20 -15 -25 -15 -14 0 -19 -20 -16 -62 2 -21 -1
-38 -7 -38 -6 0 -8 -4 -4 -9 3 -5 1 -12 -5 -16 -16 -10 -12 -25 8 -25 14 0 12
-4 -8 -20 -22 -18 -23 -22 -10 -33 21 -17 23 -63 4 -93 -15 -22 -15 -24 0 -18
11 4 16 1 16 -11 0 -9 -5 -13 -10 -10 -7 4 -9 -5 -5 -25 3 -18 1 -38 -6 -46
-16 -20 -2 -34 36 -34 18 0 35 -6 37 -12 9 -26 128 0 128 28 0 8 4 14 8 14 5
0 9 7 9 15 0 11 -10 13 -46 9 -76 -8 -83 2 -84 137 -1 63 1 149 3 191 2 43 1
80 -2 83 -3 3 -13 -1 -21 -10z"/>
<path d="M1930 4150 c-8 -5 -26 -7 -40 -5 -30 5 -62 -32 -40 -45 9 -5 9 -9 1
-14 -27 -17 -2 -21 129 -21 77 0 140 3 140 8 0 4 18 7 40 7 32 0 40 4 39 18 0
10 -3 12 -6 5 -8 -21 -30 -15 -55 15 -25 30 -54 46 -62 33 -5 -7 -111 -5 -124
3 -5 3 -14 1 -22 -4z"/>
<path d="M3220 4090 c-23 -42 12 -83 62 -73 49 9 46 65 -4 82 -42 15 -46 14
-58 -9z"/>
<path d="M1810 4080 c0 -5 -9 -10 -21 -10 -18 0 -20 -5 -19 -57 2 -32 -3 -71
-10 -88 -9 -24 -9 -34 1 -50 7 -11 15 -47 18 -80 6 -56 8 -60 33 -62 29 -2 42
22 26 50 -5 10 -5 24 1 36 6 10 7 21 3 25 -10 11 21 26 39 20 9 -2 24 3 33 11
12 13 16 13 16 3 0 -8 14 -14 38 -16 20 -1 48 -4 62 -5 16 -1 24 3 23 10 -2 7
0 12 5 11 18 -4 62 27 62 44 0 11 -4 17 -9 14 -16 -10 -111 -15 -111 -6 0 5
-9 7 -20 5 -13 -2 -20 2 -20 11 0 13 -32 19 -87 17 -7 -1 -13 10 -13 23 0 17
-4 22 -16 17 -14 -5 -15 -3 -5 15 7 14 7 22 0 24 -5 2 -11 13 -12 26 -1 21
-17 32 -17 12z"/>
<path d="M2740 4010 c-6 -12 -21 -20 -35 -20 -16 0 -25 -6 -25 -15 0 -8 -7
-15 -15 -15 -9 0 -15 -10 -16 -27 -1 -27 -1 -26 -9 5 -9 39 -7 37 -44 46 l-28
7 6 -103 c5 -87 8 -121 15 -181 1 -4 13 -6 29 -4 19 3 28 10 30 27 2 14 10 29
18 35 8 5 17 21 20 35 3 14 8 36 11 50 4 14 17 40 31 58 23 30 27 31 40 18 16
-15 29 -76 39 -173 5 -58 6 -58 52 -42 28 10 31 15 26 39 -3 16 -2 31 4 35 6
3 11 1 11 -4 0 -25 28 -8 34 20 3 18 10 28 17 24 5 -4 13 1 15 11 3 11 16 27
30 37 28 21 28 22 44 -77 14 -88 24 -106 57 -106 19 0 23 3 15 13 -6 6 -10 23
-10 37 0 170 -4 230 -16 230 -8 0 -19 7 -26 15 -15 18 -40 20 -40 3 0 -13 -44
-38 -66 -38 -6 0 -32 -22 -57 -48 l-45 -49 -7 63 c-7 65 -17 80 -67 102 -24
10 -29 9 -38 -8z m-55 -90 c3 -5 1 -10 -4 -10 -6 0 -11 5 -11 10 0 6 2 10 4
10 3 0 8 -4 11 -10z m165 -100 c0 -5 -2 -10 -4 -10 -3 0 -8 5 -11 10 -3 6 -1
10 4 10 6 0 11 -4 11 -10z"/>
<path d="M2295 4010 c-3 -5 -20 -7 -37 -3 -21 4 -29 3 -24 -5 3 -6 -10 -26
-30 -46 -20 -19 -33 -40 -29 -45 3 -6 2 -11 -3 -11 -16 0 -21 -66 -9 -107 7
-22 17 -38 24 -36 6 2 13 -6 15 -19 2 -18 10 -24 35 -26 35 -3 118 21 118 34
0 5 6 18 12 28 10 19 12 18 31 -14 21 -33 67 -60 103 -60 28 0 23 19 -15 54
-21 19 -39 49 -47 76 -7 25 -19 50 -26 56 -10 8 -11 13 -3 16 17 5 -25 83 -55
102 -28 18 -51 21 -60 6z m49 -95 c-3 -62 -8 -94 -16 -89 -4 3 -11 -3 -16 -12
-7 -12 -23 -17 -53 -18 -36 -1 -44 2 -43 17 1 9 -3 17 -9 17 -6 0 -1 10 11 23
12 13 22 31 22 41 0 29 48 68 79 64 24 -3 26 -7 25 -43z"/>
<path d="M3207 3938 c-24 -134 -16 -221 21 -226 12 -2 22 -9 22 -16 0 -11 41
-26 71 -26 5 0 15 12 23 28 12 21 15 23 16 8 0 -34 27 1 28 39 1 30 -1 34 -16
26 -39 -19 -87 -30 -95 -22 -5 5 -10 21 -10 35 -1 14 -6 26 -11 26 -5 0 -3 6
3 13 6 8 8 17 4 20 -3 4 0 13 6 21 9 10 9 16 1 21 -8 5 -6 13 6 26 17 19 17
20 -3 25 -12 3 -24 12 -27 20 -10 26 -34 15 -39 -18z"/>
<path d="M3687 3953 c-4 -3 -7 -37 -7 -74 0 -56 4 -72 23 -93 12 -14 33 -27
47 -28 14 -2 27 -6 30 -9 3 -4 26 -9 52 -11 42 -4 47 -2 59 21 7 14 11 34 10
45 -2 11 2 16 8 11 6 -3 9 -10 6 -15 -3 -5 -1 -11 5 -15 5 -3 10 -16 10 -28 0
-141 -10 -217 -29 -217 -4 0 -25 -16 -45 -36 -25 -24 -43 -34 -56 -31 -13 3
-21 -1 -25 -14 -4 -12 -11 -16 -18 -12 -26 16 -48 12 -56 -10 -11 -28 -8 -33
37 -54 20 -9 40 -22 44 -27 4 -6 9 -4 13 6 4 10 17 15 37 14 23 -2 34 4 46 23
9 14 21 31 27 37 39 44 45 57 39 76 -4 15 -3 18 7 13 9 -6 11 -3 6 8 -3 9 2
32 12 49 20 35 27 118 11 118 -6 0 -10 5 -10 11 0 5 4 8 9 4 5 -3 12 -1 16 4
3 5 -3 14 -12 20 -17 10 -17 10 0 11 14 0 16 4 8 18 -7 13 -7 22 1 30 26 26
-14 139 -46 129 -15 -5 -21 -57 -6 -57 6 0 8 -5 5 -11 -4 -6 -13 -8 -20 -5 -7
2 -29 -10 -47 -28 -28 -27 -40 -32 -66 -28 -40 5 -45 13 -53 86 -4 32 -13 62
-21 67 -16 10 -42 12 -51 2z m163 -553 c0 -5 -4 -10 -10 -10 -5 0 -10 5 -10
10 0 6 5 10 10 10 6 0 10 -4 10 -10z"/>
<path d="M3301 3326 c-10 -12 -9 -16 6 -25 16 -9 16 -12 3 -22 -11 -8 -12 -12
-2 -16 6 -2 9 -9 6 -15 -12 -20 -13 -252 -1 -295 10 -39 27 -59 27 -33 0 6 9
10 21 10 18 0 21 5 17 35 -3 24 0 35 9 35 7 0 13 5 13 11 0 6 7 3 16 -5 8 -9
21 -16 29 -16 7 0 15 -5 17 -11 2 -5 10 -11 18 -12 8 -2 21 -6 28 -10 6 -5 17
-5 22 -2 6 4 19 -4 30 -17 11 -13 19 -17 20 -10 0 19 24 14 38 -9 11 -17 16
-18 28 -8 11 9 12 15 2 26 -6 8 -7 13 -2 12 36 -7 14 23 -26 36 -14 4 -38 14
-55 23 -29 15 -29 15 -7 23 12 5 25 17 29 26 3 10 20 30 36 46 17 15 26 27 21
28 -5 0 4 6 20 14 29 12 29 13 9 25 -13 8 -18 20 -15 32 3 12 -1 18 -12 18 -9
0 -16 -7 -16 -15 0 -8 -8 -15 -17 -15 -15 0 -16 -2 -3 -10 12 -8 9 -10 -11
-10 -15 0 -32 -6 -39 -14 -6 -8 -19 -12 -27 -9 -11 4 -14 2 -9 -5 4 -7 2 -12
-5 -12 -6 0 -9 -8 -7 -18 6 -22 -24 -45 -46 -36 -8 3 -17 1 -21 -5 -24 -39
-58 24 -60 112 -3 91 -23 151 -51 155 -11 2 -26 -4 -33 -12z m269 -196 c0 -13
-6 -20 -17 -19 -11 0 -13 3 -5 6 6 2 12 11 12 19 0 8 2 14 5 14 3 0 5 -9 5
-20z m47 -2 c-3 -8 -6 -5 -6 6 -1 11 2 17 5 13 3 -3 4 -12 1 -19z m-47 -79 c0
-18 -18 -9 -23 12 -4 16 -3 18 9 8 8 -6 14 -15 14 -20z"/>
<path d="M2148 3244 c-13 -7 -22 -16 -22 -21 1 -4 -1 -14 -3 -20 -8 -21 -21
-5 -17 20 2 12 2 16 -2 10 -3 -7 -12 -13 -21 -13 -10 0 -12 -6 -8 -21 5 -15 4
-19 -4 -15 -6 4 -11 2 -11 -3 0 -6 -6 -11 -14 -11 -19 0 -41 -98 -32 -136 5
-18 10 -24 15 -16 5 8 16 1 36 -24 25 -32 33 -35 67 -32 24 2 38 -1 38 -8 0
-7 10 -9 25 -6 15 2 25 0 25 -7 0 -14 37 -15 45 -1 4 6 11 8 16 4 6 -3 13 3
16 15 5 19 21 26 46 22 5 -1 7 4 5 11 -5 14 -39 15 -118 4 -50 -8 -86 6 -104
39 -6 11 -15 23 -21 28 -7 4 -6 10 1 15 6 4 15 22 19 40 3 17 11 32 17 32 6 0
8 6 5 14 -4 10 6 14 39 14 51 1 67 8 57 25 -4 7 0 6 10 -2 9 -7 24 -11 32 -7
9 3 18 -1 21 -9 4 -8 14 -15 24 -15 13 0 16 6 12 25 -2 14 -8 25 -13 25 -5 0
-9 7 -9 16 0 13 -3 14 -13 5 -10 -8 -17 -7 -26 2 -16 16 -103 17 -133 1z m112
-14 c0 -5 -5 -10 -11 -10 -5 0 -7 5 -4 10 3 6 8 10 11 10 2 0 4 -4 4 -10z
m-50 -16 c0 -8 -19 -13 -24 -6 -3 5 1 9 9 9 8 0 15 -2 15 -3z m-100 -105 c0
-5 -4 -9 -10 -9 -5 0 -10 7 -10 16 0 8 5 12 10 9 6 -3 10 -10 10 -16z"/>
<path d="M2482 3218 c-69 -33 -88 -70 -94 -175 -3 -49 -2 -50 37 -57 17 -3 35
-12 41 -21 6 -8 26 -18 45 -21 19 -4 40 -11 47 -17 8 -6 12 -6 13 2 3 26 4 30
12 37 4 4 7 2 7 -4 0 -18 70 -27 81 -11 5 8 9 10 9 6 0 -4 9 -3 20 3 11 6 18
15 15 21 -4 5 -1 9 4 9 6 0 11 7 11 15 0 8 4 15 8 15 13 0 42 57 42 84 0 15
-8 30 -20 36 -16 8 -18 8 -14 -4 3 -8 1 -17 -5 -21 -7 -4 -11 5 -11 23 0 23
-7 34 -32 49 -40 23 -78 34 -78 22 0 -5 -12 -4 -26 1 -14 6 -30 8 -35 4 -5 -3
-9 2 -9 10 0 21 -16 19 -68 -6z m107 -40 c6 11 10 9 14 -7 3 -12 13 -21 25
-21 38 0 68 -35 69 -81 2 -30 -1 -39 -7 -29 -7 12 -15 9 -41 -18 -34 -35 -65
-40 -131 -21 -43 11 -71 52 -61 90 11 39 101 106 116 85 5 -8 10 -7 16 2z"/>
<path d="M2942 3208 c-69 -33 -88 -70 -94 -175 -3 -49 -2 -50 37 -57 17 -3 35
-12 41 -20 11 -16 94 -39 104 -30 3 3 6 10 6 15 1 5 2 12 3 15 0 3 8 -2 17
-10 17 -18 74 -22 74 -6 0 5 3 9 8 9 20 -3 32 2 32 16 0 8 5 15 10 15 6 0 10
5 10 11 0 7 9 20 21 30 12 10 23 35 26 57 4 34 2 42 -16 51 -17 9 -20 9 -15
-3 3 -8 1 -17 -5 -21 -7 -4 -11 5 -11 23 0 23 -7 34 -32 49 -40 23 -78 34 -78
22 0 -5 -12 -4 -26 1 -14 6 -30 8 -35 4 -5 -3 -9 2 -9 10 0 21 -16 19 -68 -6z
m107 -40 c6 11 10 9 14 -7 3 -12 13 -21 25 -21 38 0 68 -35 69 -81 2 -30 -1
-39 -7 -29 -7 12 -15 9 -41 -18 -34 -35 -65 -40 -130 -22 -71 20 -84 90 -26
139 45 38 70 49 80 37 5 -8 10 -7 16 2z"/>
<path d="M3680 3191 c0 -11 31 -24 39 -16 3 3 -1 10 -9 15 -19 12 -30 12 -30
1z"/>
<path d="M2060 2723 c0 -7 -8 -13 -18 -13 -17 0 -18 -17 -20 -278 -2 -232 0
-281 13 -298 12 -15 16 -16 24 -5 5 7 24 15 42 17 59 7 88 24 105 64 10 21 22
36 29 34 16 -7 39 22 31 41 -4 10 1 15 17 16 12 0 16 3 10 6 -7 2 -13 13 -13
24 0 11 5 16 13 13 9 -3 13 7 12 33 0 27 -4 37 -14 35 -9 -2 -12 4 -8 18 4 15
-4 31 -26 55 -30 31 -35 33 -70 26 -23 -6 -37 -5 -37 1 0 5 -4 7 -9 4 -21 -13
-43 22 -45 70 -4 98 -6 110 -21 130 -8 11 -15 14 -15 7z m114 -280 c3 -4 21
-7 38 -7 31 -1 32 -3 35 -49 3 -45 1 -49 -44 -93 -27 -25 -47 -52 -45 -60 2
-8 -2 -14 -8 -14 -5 0 -10 5 -10 10 0 14 -27 12 -33 -2 -4 -10 -8 -9 -16 2
-14 19 -14 70 -1 70 6 0 10 26 10 59 0 41 5 65 16 75 16 17 46 21 58 9z m86
-174 c0 -5 -9 -9 -20 -9 -17 0 -19 2 -8 14 13 14 28 12 28 -5z m-155 -79 c3
-5 -1 -10 -9 -10 -9 0 -16 -5 -16 -12 0 -6 -3 -9 -6 -5 -9 8 3 37 15 37 5 0
13 -4 16 -10z"/>
<path d="M3283 2545 c-3 -10 0 -21 8 -26 12 -8 12 -11 -1 -20 -11 -8 -12 -12
-2 -16 6 -2 9 -9 6 -15 -4 -6 -8 -69 -9 -140 -2 -100 1 -139 12 -167 9 -20 18
-30 20 -23 3 6 14 12 25 12 17 0 20 5 16 35 -3 24 0 35 9 35 7 0 13 5 13 11 0
6 7 3 16 -5 8 -9 21 -16 29 -16 7 0 15 -5 17 -11 2 -5 10 -11 18 -12 8 -2 21
-6 28 -10 6 -5 17 -5 22 -2 6 4 19 -4 30 -17 11 -13 19 -17 20 -10 0 17 21 15
35 -5 8 -10 19 -14 30 -10 15 6 15 10 4 24 -8 10 -9 14 -2 10 6 -4 14 -3 17 2
4 5 -24 24 -61 41 -61 29 -66 33 -45 41 12 5 25 16 29 26 4 10 18 28 32 41 15
14 25 28 24 33 -2 5 9 12 24 15 l26 7 -21 18 c-14 10 -20 23 -16 33 4 11 1 16
-10 16 -9 0 -16 -7 -16 -15 0 -8 -5 -15 -11 -15 -5 0 -7 -4 -4 -10 3 -6 -4
-10 -18 -10 -14 0 -30 -6 -37 -14 -6 -8 -19 -12 -27 -9 -11 4 -14 2 -9 -5 4
-7 2 -12 -5 -12 -6 0 -9 -8 -6 -20 3 -13 0 -20 -9 -20 -8 0 -14 -5 -14 -11 0
-6 -8 -8 -19 -4 -11 3 -22 1 -26 -5 -25 -40 -64 35 -63 119 1 84 -19 145 -50
149 -14 2 -25 -3 -29 -13z m280 -172 c-7 -2 -13 -13 -13 -24 0 -11 -7 -19 -17
-19 -11 0 -14 3 -7 8 6 4 13 15 17 25 3 9 12 17 19 16 10 0 10 -2 1 -6z m34
-25 c-3 -8 -6 -5 -6 6 -1 11 2 17 5 13 3 -3 4 -12 1 -19z m-57 -68 c6 -11 7
-20 2 -20 -6 0 -12 9 -15 20 -3 11 -3 20 -1 20 2 0 8 -9 14 -20z"/>
<path d="M2452 2438 c-69 -33 -88 -70 -94 -175 -3 -47 -1 -51 31 -56 12 -2 31
-11 42 -21 11 -9 34 -19 52 -23 18 -3 38 -10 45 -16 8 -6 12 -6 13 2 1 6 3 16
4 21 1 6 3 12 4 15 0 3 10 -3 21 -13 21 -19 70 -19 70 -1 0 5 3 8 8 8 20 -3
32 2 32 16 0 8 5 15 10 15 6 0 10 7 10 15 0 8 4 15 8 15 13 0 42 57 42 84 0
15 -8 30 -20 36 -16 8 -18 8 -14 -4 3 -8 1 -17 -5 -21 -7 -4 -11 5 -11 23 0
23 -7 34 -32 49 -39 23 -78 34 -78 23 0 -4 -9 -6 -20 -3 -11 3 -17 10 -14 15
4 6 -3 5 -15 -1 -17 -10 -21 -9 -21 4 0 20 -16 18 -68 -7z m107 -40 c6 11 10
9 14 -7 3 -12 13 -21 25 -21 38 0 68 -35 69 -81 2 -30 -1 -39 -7 -29 -7 12
-15 9 -41 -18 -34 -35 -65 -40 -130 -22 -71 20 -84 90 -26 139 45 38 70 49 80
37 5 -8 10 -7 16 2z"/>
<path d="M2912 2428 c-69 -33 -88 -70 -94 -175 -3 -47 -1 -51 31 -56 12 -2 31
-11 42 -20 20 -18 100 -40 109 -31 3 3 6 10 6 15 1 5 2 12 3 15 0 3 8 -2 17
-10 17 -18 74 -22 74 -6 0 5 3 9 8 9 20 -3 32 2 32 16 0 8 5 15 10 15 6 0 10
7 10 15 0 8 4 15 9 15 12 0 41 63 41 89 0 11 -9 25 -20 31 -16 8 -18 8 -14 -4
3 -8 1 -17 -5 -21 -7 -4 -11 5 -11 23 0 23 -7 34 -32 49 -39 23 -78 34 -78 23
0 -4 -9 -6 -20 -3 -11 3 -17 10 -14 15 4 6 -3 5 -15 -1 -17 -10 -21 -9 -21 4
0 20 -16 18 -68 -7z m107 -40 c6 11 10 9 14 -7 3 -12 13 -21 25 -21 38 0 68
-35 69 -81 1 -25 -1 -38 -6 -31 -8 14 -41 6 -41 -10 0 -18 -34 -37 -65 -38
-119 -1 -170 83 -92 150 47 39 70 50 79 37 6 -9 10 -9 17 1z"/>
<path d="M3672 2400 c9 -13 16 -16 23 -9 7 7 5 13 -5 19 -24 15 -31 11 -18
-10z"/>
</g>
</svg>
