<?xml version="1.0" standalone="no"?>
<!DOCTYPE svg PUBLIC "-//W3C//DTD SVG 20010904//EN"
 "http://www.w3.org/TR/2001/REC-SVG-20010904/DTD/svg10.dtd">
<svg version="1.0" xmlns="http://www.w3.org/2000/svg"
 width="527.000000pt" height="535.000000pt" viewBox="0 0 527.000000 535.000000"
 preserveAspectRatio="xMidYMid meet">

<g transform="translate(0.000000,535.000000) scale(0.100000,-0.100000)"
fill="#000000" stroke="none">
<path d="M1115 4637 c-16 -8 -38 -23 -48 -34 -16 -18 -27 -20 -81 -16 -49 4
-69 2 -87 -11 -13 -9 -31 -16 -39 -16 -9 0 -27 -11 -40 -25 -23 -25 -25 -35
-31 -208 -12 -308 -31 -2299 -27 -2907 3 -511 5 -578 19 -605 26 -46 46 -63
139 -114 60 -32 121 -41 390 -52 308 -13 3245 -2 3281 12 30 12 69 85 69 132
0 19 13 50 30 76 24 36 30 54 30 100 0 79 -12 112 -64 178 l-44 58 5 66 c21
250 -185 605 -447 771 -94 59 -163 80 -255 76 l-80 -3 -7 80 c-9 119 -85 324
-173 470 -247 411 -625 778 -968 940 -50 24 -114 49 -142 56 -66 16 -75 24
-75 69 0 113 -53 242 -149 363 -74 93 -152 162 -272 243 -177 118 -330 174
-488 179 l-93 2 -38 42 c-21 23 -60 51 -86 63 -61 27 -185 35 -229 15z m188
-91 c66 -33 91 -72 122 -192 42 -158 112 -277 187 -312 49 -24 202 -52 281
-52 75 0 123 -16 169 -58 57 -51 96 -136 139 -306 21 -81 50 -167 63 -191 35
-60 120 -134 199 -174 65 -33 70 -34 148 -28 100 8 136 -5 177 -65 16 -23 40
-52 52 -63 48 -44 55 -70 55 -230 l0 -150 45 -79 c25 -43 63 -94 85 -113 79
-69 188 -110 313 -120 74 -5 89 -10 117 -35 41 -35 50 -59 70 -178 18 -110 57
-187 135 -273 64 -70 104 -88 213 -98 70 -7 100 -15 150 -41 59 -31 64 -37
100 -112 34 -70 40 -91 47 -187 6 -90 12 -116 34 -153 42 -72 106 -112 261
-161 66 -21 72 -26 111 -83 59 -85 63 -167 11 -211 -24 -19 -38 -6 -248 219
-100 107 -216 231 -258 275 -96 100 -517 545 -1026 1085 -49 52 -143 151 -210
220 -66 69 -201 211 -300 315 -498 524 -628 660 -859 900 -138 143 -332 342
-431 443 -99 101 -180 187 -180 193 0 5 14 19 30 30 40 27 126 21 198 -15z
m-320 -65 c14 -5 96 -87 183 -183 181 -199 487 -529 619 -668 50 -52 151 -160
226 -240 262 -280 954 -1016 1039 -1105 47 -49 147 -153 221 -230 74 -77 233
-246 354 -375 121 -129 317 -336 436 -460 312 -325 319 -333 319 -367 0 -16
-7 -39 -16 -51 -15 -21 -20 -22 -217 -22 -303 0 -2015 -33 -2665 -51 -396 -11
-404 -11 -425 9 -12 10 -44 27 -71 36 -27 8 -63 27 -81 41 l-33 25 5 1777 c2
978 4 1783 4 1789 -1 10 62 84 72 84 3 0 17 -4 30 -9z m677 -42 c168 -45 354
-155 495 -294 154 -151 240 -315 221 -419 -5 -28 -13 -37 -41 -46 -19 -6 -39
-9 -44 -6 -5 3 -15 38 -21 77 -15 91 -68 195 -124 247 -72 66 -116 84 -236 93
-122 9 -236 26 -260 39 -23 12 -62 65 -93 126 -27 53 -68 200 -58 210 7 7 72
-4 161 -27z m854 -863 c136 -52 270 -133 431 -263 113 -91 320 -298 420 -418
162 -194 335 -501 355 -625 19 -126 10 -210 -24 -210 -31 0 -60 74 -77 195
-12 91 -27 125 -78 178 -50 54 -80 67 -176 78 -149 16 -242 65 -318 164 -56
74 -63 108 -49 230 16 147 5 179 -100 295 -44 49 -97 97 -117 107 -24 12 -71
19 -146 23 -105 5 -113 7 -172 43 -87 53 -153 140 -153 201 0 12 3 26 8 30 12
14 130 -4 196 -28z m1457 -1546 c35 -11 85 -32 111 -47 194 -114 400 -418 424
-627 10 -82 4 -90 -48 -67 -169 73 -171 75 -179 226 -5 96 -10 118 -37 176
-57 117 -84 147 -177 190 -46 21 -114 43 -152 49 -105 17 -114 22 -101 62 6
18 12 39 14 46 5 18 73 15 145 -8z"/>
</g>
</svg>
