<?xml version="1.0" standalone="no"?>
<!DOCTYPE svg PUBLIC "-//W3C//DTD SVG 20010904//EN"
 "http://www.w3.org/TR/2001/REC-SVG-20010904/DTD/svg10.dtd">
<svg version="1.0" xmlns="http://www.w3.org/2000/svg"
 width="163.000000pt" height="160.000000pt" viewBox="0 0 463.000000 471.000000"
 preserveAspectRatio="xMidYMid meet">

<g transform="translate(0.000000,471.000000) scale(0.100000,-0.100000)"
fill="#000000" stroke="none">
<path d="M1695 4546 c-122 -38 -173 -85 -241 -218 -55 -110 -77 -205 -78 -343
l-1 -120 48 -100 c46 -96 96 -178 233 -385 99 -150 112 -180 130 -313 15 -112
15 -124 -2 -205 -32 -152 -130 -267 -277 -322 -194 -72 -259 -116 -303 -206
-22 -45 -28 -76 -36 -181 -8 -115 -7 -132 12 -194 11 -39 42 -100 72 -145 l51
-77 -44 -35 c-185 -148 -360 -403 -420 -613 -18 -65 -24 -69 -94 -69 -65 0
-253 -16 -292 -25 -16 -4 -23 -13 -23 -30 0 -25 4 -27 80 -39 33 -6 36 -10 52
-63 19 -65 155 -304 206 -364 18 -21 49 -44 70 -50 27 -9 405 -14 1437 -20
770 -4 1415 -11 1433 -15 24 -5 38 -2 52 11 11 10 20 23 20 28 0 6 8 20 19 31
25 28 166 278 193 344 19 45 27 54 59 62 42 11 56 37 40 69 -16 29 -40 33
-236 40 l-180 6 -17 35 c-9 19 -35 73 -57 120 -66 141 -154 264 -276 386
l-112 111 -6 109 c-13 241 -114 437 -263 510 -49 24 -63 26 -142 22 -106 -5
-160 -31 -261 -124 l-66 -61 -35 18 c-68 37 -137 14 -211 -69 l-44 -49 -102
-7 c-56 -3 -150 -15 -209 -27 -58 -11 -113 -18 -121 -15 -12 5 -14 27 -11 119
5 188 35 224 232 286 155 50 206 83 294 193 63 81 86 126 106 215 20 89 20
155 1 281 -23 154 -20 149 -193 411 -52 79 -95 151 -96 160 -1 14 21 16 184
16 236 0 230 -3 260 132 12 54 27 104 34 112 9 12 84 13 487 7 414 -6 478 -5
488 8 15 17 9 112 -8 129 -10 10 -321 22 -761 31 -184 3 -236 7 -241 17 -10
20 -36 117 -44 161 -9 56 -33 68 -140 68 -81 -1 -132 -6 -262 -26 -36 -6 -43
-4 -43 10 0 30 30 75 60 91 22 12 30 23 30 43 0 42 -17 52 -89 52 -57 0 -73 5
-121 34 -65 39 -158 52 -225 32z m102 -85 c17 -5 54 -27 82 -49 28 -22 56 -42
62 -44 7 -2 -1 -29 -24 -73 -57 -115 -78 -196 -84 -331 l-6 -121 43 -98 c36
-82 174 -311 283 -469 57 -82 76 -138 91 -256 12 -98 12 -126 1 -185 -18 -93
-28 -118 -77 -184 -61 -83 -112 -119 -247 -172 -138 -55 -196 -91 -234 -146
-50 -73 -60 -116 -61 -274 l-1 -146 -108 -52 -109 -53 -29 28 c-17 16 -44 58
-62 94 -30 61 -32 71 -32 180 0 201 26 236 224 300 153 49 218 91 298 191 63
80 89 131 108 211 26 113 13 321 -29 437 -9 24 -82 142 -162 264 -80 121 -166
259 -190 307 -44 86 -44 88 -44 192 0 115 19 196 69 298 45 89 54 100 106 131
53 30 80 35 132 20z m593 -281 c6 -10 13 -40 16 -65 l7 -45 -60 0 c-33 0 -135
3 -227 7 l-168 6 6 40 c12 75 2 72 220 74 185 3 196 2 206 -17z m-158 -270
c112 -6 206 -14 210 -18 8 -8 -16 -110 -29 -122 -4 -4 -98 -9 -208 -11 l-200
-4 -33 67 c-44 86 -39 113 19 104 22 -3 130 -11 241 -16z m661 -1735 c55 -26
47 -42 -22 -47 -68 -5 -134 -42 -210 -119 -139 -140 -276 -458 -311 -722 -16
-116 -19 -129 -32 -121 -8 5 -9 58 -5 178 5 135 11 192 31 272 66 264 174 447
321 539 74 46 157 54 228 20z m-476 -116 c8 -8 -5 -41 -47 -123 -116 -219
-167 -442 -156 -674 4 -88 3 -131 -4 -127 -37 23 -70 176 -70 325 0 274 131
610 238 610 16 0 33 -5 39 -11z m543 -76 c38 -48 72 -167 54 -186 -4 -3 -45
13 -93 37 -47 24 -108 51 -134 61 -75 28 -73 43 11 102 54 38 126 32 162 -14z
m-836 -81 c3 -5 -3 -38 -14 -73 -11 -35 -25 -84 -32 -109 l-13 -44 -135 -17
c-153 -19 -245 -41 -292 -69 -18 -10 -55 -26 -83 -35 -226 -76 -421 -241 -531
-450 -40 -77 -57 -90 -105 -83 -35 5 -29 41 29 161 142 295 431 544 751 647
183 59 409 97 425 72z m691 -131 c261 -123 484 -319 632 -556 48 -76 96 -183
89 -200 -4 -10 -20 -15 -53 -15 -44 0 -50 3 -93 52 -155 177 -250 263 -389
353 -94 61 -252 136 -366 174 -49 16 -91 35 -93 40 -4 12 37 105 75 170 23 40
28 43 58 38 18 -3 81 -28 140 -56z m-781 -217 c17 -7 20 -42 10 -106 -6 -32
-12 -39 -43 -49 -158 -51 -285 -169 -337 -314 l-22 -60 -258 0 c-296 0 -290
-2 -233 82 165 243 451 402 791 442 40 5 74 9 75 10 1 0 8 -2 17 -5z m594 -98
c150 -58 280 -130 405 -224 65 -50 217 -198 217 -213 0 -5 -36 -9 -80 -9 l-80
0 -76 71 c-139 128 -316 236 -476 288 -73 24 -81 37 -58 95 13 35 41 34 148
-8z m-558 -248 c25 -83 51 -138 74 -157 9 -8 16 -17 16 -22 0 -5 -97 -9 -215
-9 -142 0 -215 4 -215 10 0 26 46 97 91 141 53 52 158 108 201 109 24 0 28 -6
48 -72z m495 13 c133 -57 305 -164 319 -199 4 -10 -41 -12 -222 -10 l-227 3
-3 103 c-3 99 6 142 30 142 6 0 52 -18 103 -39z m-1400 -326 c149 -3 828 -8
1510 -11 682 -3 1244 -10 1248 -14 4 -4 -26 -60 -68 -125 -42 -65 -90 -145
-107 -176 -26 -47 -38 -58 -62 -63 -50 -8 -364 -8 -1614 0 l-1182 7 -28 56
c-33 66 -175 283 -197 301 -8 7 -15 19 -15 27 0 12 19 14 123 9 67 -3 244 -8
392 -11z"/>
</g>
</svg>
