<?xml version="1.0" standalone="no"?>
<!DOCTYPE svg PUBLIC "-//W3C//DTD SVG 20010904//EN"
 "http://www.w3.org/TR/2001/REC-SVG-20010904/DTD/svg10.dtd">
<svg version="1.0" xmlns="http://www.w3.org/2000/svg"
 width="123.000000pt" height="123.000000pt" viewBox="0 0 276.000000 354.000000"
 preserveAspectRatio="xMidYMid meet">

<g transform="translate(0.000000,325.000000) scale(0.100000,-0.100000)"
fill="#000000" stroke="none">
<path d="M991 3134 c-17 -14 -31 -30 -31 -36 0 -5 7 -2 15 6 20 20 84 39 115
34 23 -3 25 -8 28 -57 2 -38 -4 -75 -23 -130 -30 -85 -41 -167 -31 -234 9 -59
60 -119 101 -119 30 0 65 31 65 58 0 21 -26 17 -42 -7 -19 -30 -49 -18 -76 30
-32 56 -29 136 8 249 32 97 40 198 18 220 -7 7 -36 12 -64 12 -42 0 -59 -5
-83 -26z"/>
<path d="M726 3078 c-24 -34 -19 -55 5 -24 27 34 81 36 103 4 22 -30 20 -97
-3 -156 -30 -76 -34 -129 -17 -215 19 -91 30 -112 69 -128 35 -15 80 -2 85 23
3 15 -1 16 -29 8 -65 -19 -87 16 -96 151 -5 72 -2 96 17 153 26 79 24 154 -5
186 -27 30 -108 28 -129 -2z"/>
<path d="M525 3000 c-12 -4 -27 -16 -35 -25 -14 -17 -13 -17 17 -2 70 37 103
11 103 -80 0 -48 -6 -72 -31 -119 -47 -88 -51 -110 -33 -176 20 -69 74 -138
109 -138 25 0 69 46 59 62 -3 5 -16 0 -28 -11 -12 -12 -27 -21 -33 -21 -16 0
-61 56 -78 97 -23 55 -18 94 21 167 58 111 57 218 -2 245 -29 13 -41 13 -69 1z"/>
<path d="M1025 2366 c-18 -18 -37 -26 -60 -26 -26 0 -39 -6 -51 -25 -14 -21
-21 -24 -53 -19 -31 5 -40 2 -64 -25 -17 -19 -37 -31 -53 -31 -26 0 -69 -38
-79 -71 -7 -21 -20 -25 -30 -9 -14 23 -52 10 -71 -25 -16 -31 -22 -35 -47 -29
-24 5 -29 2 -38 -25 -6 -17 -17 -31 -25 -31 -8 0 -19 -11 -25 -24 -6 -13 -20
-27 -30 -29 -14 -4 -19 -14 -19 -40 0 -19 -7 -40 -15 -47 -7 -6 -17 -33 -20
-58 -3 -26 -10 -55 -16 -64 -5 -10 -9 -24 -9 -32 0 -8 -7 -17 -16 -20 -9 -4
-14 -15 -12 -30 1 -13 -2 -34 -8 -47 -96 -204 -114 -270 -114 -409 0 -197 62
-358 204 -533 26 -32 46 -60 44 -62 -2 -1 -36 -17 -76 -34 -91 -38 -128 -64
-148 -103 -30 -58 3 -118 102 -186 86 -59 327 -120 603 -153 617 -73 1319 -24
1632 114 160 71 196 186 84 271 -20 15 -69 43 -109 62 -41 18 -76 41 -80 50
-4 10 7 31 30 57 41 48 104 175 131 262 24 79 24 315 1 390 -30 95 -66 180
-94 223 -28 42 -29 43 -69 35 -53 -11 -137 -10 -730 5 -275 7 -698 12 -940 11
-400 -1 -440 0 -443 15 -2 9 4 19 12 22 9 3 16 16 16 28 0 11 7 30 15 40 8 11
15 38 15 60 0 23 7 50 15 60 8 11 15 32 15 48 0 19 5 28 16 28 9 0 21 14 27
30 7 18 19 30 29 30 9 0 22 9 28 19 6 12 17 17 29 14 15 -4 26 5 45 36 26 41
40 49 51 31 3 -5 16 -10 29 -10 16 0 28 12 44 45 19 39 26 45 54 45 22 0 42 9
64 31 27 26 35 29 53 20 26 -14 57 0 66 30 6 18 12 20 40 15 29 -6 38 -2 62
24 26 28 32 30 57 21 15 -6 43 -11 63 -11 20 0 51 -10 70 -21 31 -19 39 -20
72 -9 32 10 43 10 69 -4 40 -21 54 -20 84 3 21 17 32 18 103 10 178 -22 203
-27 224 -48 27 -27 56 -27 74 0 12 16 19 19 34 11 10 -5 49 -17 88 -27 73 -18
78 -22 126 -103 14 -23 42 -54 62 -68 31 -21 37 -31 37 -60 0 -28 8 -44 35
-71 19 -19 35 -43 35 -53 0 -9 9 -29 20 -43 11 -14 20 -39 20 -55 0 -67 58
-157 80 -123 7 12 -9 73 -23 87 -4 4 -7 25 -7 47 0 24 -8 49 -20 64 -11 14
-20 36 -20 48 0 14 -13 33 -35 49 -28 22 -35 34 -35 62 0 34 -27 73 -70 100
-8 5 -35 40 -60 77 -31 47 -53 69 -70 72 -14 3 -62 17 -108 32 -79 25 -83 25
-102 8 -19 -17 -22 -17 -53 -2 -52 25 -113 40 -135 33 -12 -4 -58 -2 -102 5
-74 12 -85 11 -116 -6 -28 -15 -36 -16 -49 -5 -11 9 -33 11 -74 7 -38 -4 -62
-2 -69 5 -7 7 -36 15 -64 19 -29 4 -70 10 -90 14 -31 6 -40 4 -63 -19z m-120
-816 c305 -10 1470 -14 1485 -5 20 12 49 -36 66 -112 27 -120 25 -298 -5 -393
-97 -313 -340 -501 -761 -591 -87 -18 -136 -22 -285 -22 -204 0 -305 17 -475
80 -189 70 -302 137 -416 245 -223 211 -303 493 -217 766 l18 55 155 -7 c85
-4 281 -11 435 -16z m-358 -1003 c132 -106 294 -190 448 -231 268 -72 494 -83
724 -36 208 42 350 109 571 270 54 39 87 49 106 31 5 -5 36 -18 69 -31 126
-46 158 -98 88 -144 -46 -30 -155 -72 -237 -91 -143 -33 -416 -65 -633 -75
-232 -10 -611 0 -763 20 -312 41 -495 85 -612 148 -74 39 -77 90 -8 136 45 30
126 65 152 65 10 1 52 -27 95 -62z"/>
<path d="M1078 2173 c-10 -2 -18 -9 -18 -15 0 -6 9 -8 20 -5 15 4 20 0 20 -13
0 -26 27 -50 55 -50 16 0 26 -8 33 -27 8 -24 11 -26 17 -10 13 31 -11 67 -44
67 -25 0 -30 4 -33 27 -3 28 -17 35 -50 26z"/>
<path d="M1412 2149 c-15 -24 -8 -39 10 -21 8 8 18 5 40 -13 36 -30 44 -31 60
-6 9 15 15 17 25 9 17 -14 27 -4 19 17 -10 27 -38 30 -56 7 l-17 -21 -23 24
c-29 30 -41 31 -58 4z"/>
<path d="M1791 2047 c-14 -6 -26 -19 -29 -27 -4 -12 -2 -13 9 -2 17 16 49 15
68 -2 9 -8 39 -17 67 -21 48 -6 51 -5 62 21 16 33 8 43 -16 21 -21 -19 -72
-14 -107 10 -24 16 -24 16 -54 0z"/>
<path d="M712 2041 c-7 -4 -23 -6 -36 -4 -13 3 -28 -2 -35 -11 -10 -12 -17
-14 -27 -5 -20 16 -41 5 -60 -33 l-17 -33 27 24 c25 24 26 24 46 6 19 -17 21
-17 38 -2 10 10 29 17 43 17 29 0 43 9 52 33 7 18 -9 23 -31 8z"/>
<path d="M900 1958 c-23 -25 -19 -38 6 -18 13 12 17 11 25 -1 5 -8 9 -19 9
-25 0 -6 7 -17 15 -24 13 -10 19 -10 34 4 16 14 23 15 41 6 12 -6 29 -9 38 -5
12 4 7 12 -23 32 -32 22 -41 24 -58 14 -16 -10 -21 -10 -28 1 -5 7 -9 16 -9
19 0 18 -32 16 -50 -3z"/>
<path d="M1801 1911 c-12 -12 -21 -29 -21 -38 0 -14 3 -13 16 5 20 29 34 28
34 -2 0 -25 29 -40 56 -29 23 8 16 23 -10 23 -19 0 -25 6 -28 27 -4 34 -22 39
-47 14z"/>
<path d="M2090 1840 c-13 -9 -13 -10 0 -10 8 0 21 -9 28 -20 7 -11 23 -20 37
-20 21 0 25 -5 25 -32 0 -36 15 -28 25 14 5 20 2 29 -14 37 -11 6 -24 11 -28
10 -21 -4 -33 2 -33 16 0 17 -18 19 -40 5z"/>
<path d="M590 1808 c-24 -26 -18 -38 8 -15 17 16 20 15 42 -8 26 -28 40 -31
59 -12 6 6 26 12 43 12 44 0 46 21 2 29 -26 5 -41 3 -53 -8 -16 -15 -19 -14
-36 4 -23 26 -39 25 -65 -2z"/>
</g>
</svg>
