<?xml version="1.0" standalone="no"?>
<!DOCTYPE svg PUBLIC "-//W3C//DTD SVG 20010904//EN"
 "http://www.w3.org/TR/2001/REC-SVG-20010904/DTD/svg10.dtd">
<svg version="1.0" xmlns="http://www.w3.org/2000/svg"
 width="123.000000pt" height="123.000000pt" viewBox="0 0 298.000000 342.000000"
 preserveAspectRatio="xMidYMid meet">

<g transform="translate(0.000000,342.000000) scale(0.100000,-0.100000)"
 stroke="none">
<path d="M1325 3019 c-4 -6 -5 -12 -2 -15 2 -3 7 2 10 11 7 17 1 20 -8 4z"/>
<path d="M869 2953 c-13 -16 -12 -17 4 -4 9 7 17 15 17 17 0 8 -8 3 -21 -13z"/>
<path d="M1133 2630 c-30 -12 -92 -15 -120 -6 -23 7 -28 3 -80 -62 -21 -28
-30 -32 -54 -27 -23 5 -30 2 -43 -22 -29 -53 -32 -56 -53 -44 -17 8 -25 5 -48
-19 -16 -17 -38 -30 -50 -30 -12 0 -34 -13 -48 -30 -17 -18 -37 -30 -52 -30
-17 0 -28 -7 -34 -22 -5 -13 -21 -33 -35 -45 -17 -15 -26 -33 -26 -52 0 -24
-4 -28 -19 -24 -16 4 -22 -3 -30 -34 -6 -21 -11 -47 -11 -58 0 -11 -7 -33 -15
-49 -8 -15 -15 -41 -15 -57 0 -15 -5 -31 -11 -35 -7 -4 -8 -20 -4 -41 3 -20 8
-57 10 -84 l5 -49 -45 0 c-40 0 -47 -4 -65 -32 -40 -66 -21 -189 100 -640 37
-143 94 -275 199 -466 53 -97 97 -135 206 -177 39 -14 88 -33 110 -42 22 -8
68 -15 102 -15 l62 0 3 -47 c3 -39 7 -48 32 -59 50 -25 260 -44 391 -37 66 4
150 8 186 10 129 7 199 40 199 96 l0 27 109 0 109 -1 104 51 c82 41 112 61
148 103 25 29 72 80 105 113 172 172 278 461 291 791 2 72 9 163 15 204 14 95
5 106 -82 104 l-61 -1 8 36 c12 59 5 116 -30 237 -8 28 -22 84 -32 125 -18 81
-43 139 -68 159 -9 8 -16 26 -16 41 0 42 -51 105 -96 118 -22 6 -57 17 -79 26
-22 8 -56 15 -76 16 -19 0 -58 11 -84 25 -27 13 -58 22 -70 19 -11 -3 -36 1
-55 9 -28 12 -48 13 -98 4 -48 -7 -72 -7 -102 3 -21 7 -51 10 -67 6 -32 -8
-65 -8 -108 0 -35 7 -73 8 -135 5 -25 -1 -87 1 -138 5 -66 5 -100 3 -116 -5
-18 -10 -30 -10 -61 3 -20 9 -38 16 -39 15 0 0 -11 -4 -23 -9z m-58 -30 c28 2
64 3 80 2 46 -2 105 -2 160 -1 28 1 124 -2 215 -6 91 -3 174 -6 185 -6 11 0
34 0 50 0 49 0 247 -8 290 -12 22 -2 56 -14 75 -26 34 -21 48 -24 142 -36 26
-3 50 -10 53 -16 4 -5 18 -9 32 -9 35 0 89 -57 102 -108 7 -22 16 -44 21 -47
19 -12 47 -80 64 -155 10 -41 24 -100 32 -131 8 -30 14 -69 14 -85 1 -16 7
-40 14 -52 10 -20 10 -31 -2 -68 -12 -37 -19 -44 -48 -50 -18 -3 -422 -1 -896
5 -475 6 -950 11 -1056 11 l-193 0 0 43 c-1 114 2 172 10 177 4 3 11 25 15 49
4 24 10 49 14 55 4 6 7 22 7 36 0 18 6 26 23 28 17 3 22 10 22 33 0 19 9 37
26 52 14 12 30 32 35 45 6 16 17 22 38 22 20 0 34 8 45 25 11 17 26 25 46 25
19 0 35 9 50 27 18 23 24 25 39 16 15 -10 22 -8 39 10 11 12 25 32 31 45 9 16
18 21 31 17 28 -9 57 10 86 56 19 31 29 39 42 33 9 -4 40 -6 67 -4z m195 -850
c807 -13 1394 -28 1416 -37 15 -6 16 -24 11 -200 -4 -107 -9 -198 -12 -202 -2
-5 -9 -37 -15 -72 -26 -174 -103 -351 -201 -464 -133 -155 -188 -202 -307
-261 l-73 -36 -217 -8 c-318 -10 -862 -2 -944 15 -71 15 -178 68 -235 118 -77
67 -234 413 -282 622 -18 77 -39 167 -47 200 -22 93 -45 292 -38 322 l7 26
156 -6 c86 -4 437 -11 781 -17z m559 -1325 c11 -12 -12 -53 -36 -64 -36 -17
-291 -34 -413 -28 -129 6 -237 32 -256 63 -9 13 -14 27 -11 31 5 8 708 5 716
-2z"/>
<path d="M1222 2393 c-52 -30 -49 -41 4 -17 22 9 51 16 67 15 15 -2 27 2 27 8
0 6 -6 11 -14 11 -8 0 -20 2 -28 4 -7 2 -32 -7 -56 -21z"/>
<path d="M995 2360 c-3 -5 -3 -20 0 -31 5 -16 13 -20 31 -16 20 4 24 0 24 -22
1 -25 2 -24 16 8 16 38 5 66 -18 43 -17 -17 -29 -15 -26 4 3 20 -17 30 -27 14z"/>
<path d="M2095 2310 c-3 -6 0 -7 10 -4 8 4 22 1 30 -6 8 -7 23 -10 34 -7 10 2
25 1 33 -4 9 -5 22 -3 34 5 18 13 17 14 -6 13 -14 -1 -48 2 -77 6 -32 5 -54 4
-58 -3z"/>
<path d="M661 2247 c-6 -6 -11 -16 -11 -21 0 -6 4 -5 9 3 16 24 32 2 25 -35
-6 -34 8 -49 20 -19 3 8 12 12 20 9 8 -3 17 -1 20 5 4 6 -5 13 -19 17 -15 4
-25 13 -25 24 0 22 -24 32 -39 17z"/>
<path d="M897 2132 c-10 -10 -16 -29 -16 -43 1 -20 2 -21 6 -4 11 43 43 61 43
24 0 -15 4 -19 16 -15 9 3 20 6 25 6 5 0 9 5 9 10 0 6 -7 10 -15 10 -8 0 -15
7 -15 15 0 21 -33 19 -53 -3z"/>
<path d="M2141 2130 c-12 -7 -12 -11 2 -25 16 -15 18 -15 23 0 9 21 -7 37 -25
25z"/>
<path d="M2383 2034 c10 -3 17 -15 17 -30 0 -19 5 -24 24 -24 13 0 26 -6 29
-12 2 -7 8 -10 12 -6 13 12 -14 36 -35 31 -13 -4 -19 1 -22 18 -2 15 -10 25
-23 26 -16 1 -16 1 -2 -3z"/>
<path d="M730 1999 c0 -7 -12 -9 -34 -5 -25 5 -37 2 -47 -11 -12 -15 -12 -16
4 -10 26 10 67 -2 67 -19 0 -8 5 -14 10 -14 6 0 10 6 10 13 0 6 3 22 6 35 4
13 2 22 -5 22 -6 0 -11 -5 -11 -11z"/>
</g>
</svg>
