<?xml version="1.0" standalone="no"?>
<!DOCTYPE svg PUBLIC "-//W3C//DTD SVG 20010904//EN"
 "http://www.w3.org/TR/2001/REC-SVG-20010904/DTD/svg10.dtd">
<svg version="1.0" xmlns="http://www.w3.org/2000/svg"
 width="518.000000pt" height="466.000000pt" viewBox="0 0 518.000000 466.000000"
 preserveAspectRatio="xMidYMid meet">

<g transform="translate(0.000000,466.000000) scale(0.100000,-0.100000)"
fill="#000000" stroke="none">
<path d="M2397 4560 c-625 -45 -1211 -304 -1625 -718 -323 -323 -530 -705
-611 -1127 -106 -546 21 -1122 349 -1585 90 -127 123 -167 243 -289 778 -792
2053 -979 3067 -448 205 107 393 243 564 407 549 527 776 1227 631 1945 -65
321 -225 654 -449 931 -85 105 -280 293 -398 381 -105 79 -289 193 -311 193
-8 0 -61 22 -118 49 -426 201 -898 293 -1342 261z m543 -116 c253 -29 528
-106 745 -209 61 -29 121 -64 134 -79 14 -14 30 -26 37 -26 19 0 237 -150 338
-232 310 -255 567 -635 671 -992 93 -322 106 -632 40 -948 -64 -311 -216 -627
-426 -883 -86 -105 -271 -282 -385 -367 -337 -250 -752 -413 -1194 -470 -147
-18 -504 -16 -651 5 -570 80 -1075 331 -1439 714 -167 177 -267 322 -371 538
-150 312 -209 619 -188 977 37 610 397 1205 954 1573 505 333 1103 471 1735
399z"/>
<path d="M1985 3924 c-38 -13 -85 -35 -105 -48 -73 -49 -149 -145 -166 -210
-6 -27 -9 -28 -43 -20 -50 11 -192 10 -214 -2 -70 -40 -167 -173 -167 -231 0
-12 -9 -46 -20 -76 -22 -59 -72 -108 -200 -195 -80 -55 -172 -143 -214 -206
-36 -54 -35 -108 5 -170 44 -70 57 -112 62 -196 4 -84 32 -157 76 -205 32 -34
52 -93 58 -175 l4 -55 -52 -25 c-60 -29 -119 -103 -139 -176 -29 -103 7 -232
90 -327 22 -25 40 -48 40 -52 0 -5 -17 -22 -37 -40 l-38 -33 18 -88 c9 -49 18
-130 20 -180 2 -84 0 -93 -25 -132 -16 -23 -28 -51 -28 -62 0 -24 106 -162
153 -200 17 -14 57 -48 87 -77 76 -70 140 -103 204 -103 78 0 238 -59 341
-124 112 -72 206 -112 294 -125 80 -12 84 -12 106 9 l22 21 60 -20 c125 -42
290 -37 392 12 25 13 72 44 103 69 76 62 111 72 223 64 167 -11 277 26 378
128 l58 60 67 -18 c60 -15 72 -15 115 -2 100 30 261 153 285 216 8 20 24 30
68 44 145 45 292 146 380 261 96 125 129 225 122 372 -6 117 -31 190 -89 260
-21 26 -39 51 -39 54 0 4 20 20 44 35 106 70 198 182 284 347 44 82 52 106 52
151 0 66 21 129 53 159 73 66 75 222 7 357 -10 19 -47 94 -83 166 -72 142
-119 198 -180 209 -25 5 -47 21 -81 61 -64 74 -101 84 -198 55 -88 -25 -105
-26 -148 -4 -42 20 -120 19 -185 -2 -47 -16 -47 -16 -74 9 -37 35 -92 56 -151
56 l-50 0 0 38 c0 28 -11 56 -38 98 -53 81 -109 129 -211 178 l-86 41 -128 0
c-128 0 -129 0 -152 -27 l-24 -28 -58 15 c-55 15 -64 15 -153 -5 -190 -43
-223 -53 -272 -86 -28 -19 -54 -34 -58 -34 -4 0 -20 25 -35 55 -30 59 -127
158 -170 175 -41 16 -84 11 -160 -16z m119 -74 c27 -6 57 -26 97 -66 60 -60
78 -99 60 -133 -9 -16 -7 -25 13 -45 19 -22 24 -40 29 -113 l5 -88 -44 -85
c-50 -97 -104 -157 -151 -166 -30 -6 -37 -1 -89 52 -67 71 -129 163 -177 264
-52 111 -63 152 -49 198 16 52 75 125 130 162 49 32 100 38 176 20z m1141 -77
c114 -47 207 -147 218 -235 6 -47 6 -49 -31 -72 -78 -49 -198 -195 -247 -300
-27 -57 -28 -58 -59 -50 -55 15 -232 6 -291 -15 -106 -38 -205 -125 -255 -228
-80 -161 -76 -336 10 -518 64 -134 182 -245 322 -303 91 -37 240 -43 331 -13
35 12 84 34 108 50 97 61 185 192 210 309 10 50 9 219 -2 261 -3 11 9 15 50
17 187 8 276 268 128 375 -88 64 -232 18 -282 -89 -10 -20 -19 -39 -21 -41 -2
-2 -31 22 -66 54 -35 31 -80 66 -101 78 -35 19 -38 25 -33 52 10 49 81 157
139 212 85 81 142 113 200 113 60 0 82 -11 103 -53 9 -18 22 -35 28 -39 19
-13 56 -9 96 12 22 11 61 21 87 23 l47 2 13 -47 c17 -58 57 -100 132 -138 32
-15 63 -36 71 -45 14 -17 24 -68 39 -195 8 -79 26 -122 100 -245 40 -67 42
-73 36 -127 -11 -104 -49 -165 -122 -198 -25 -11 -61 -20 -81 -20 -70 0 -99
-66 -42 -95 39 -20 71 -19 128 4 26 10 62 24 80 31 79 30 131 129 139 264 l6
93 -40 74 c-22 41 -52 97 -68 124 -19 34 -30 72 -35 120 -12 114 -31 193 -54
228 -12 17 -46 46 -76 64 -78 45 -107 70 -95 81 6 5 43 18 83 28 l74 18 41
-45 c23 -25 50 -60 59 -78 15 -28 23 -32 50 -30 68 5 87 -14 178 -181 74 -136
90 -183 90 -266 0 -60 -4 -76 -25 -105 -42 -58 -77 -141 -85 -206 -9 -68 -37
-120 -154 -286 -67 -95 -149 -179 -192 -199 -17 -8 -36 -4 -85 21 -97 47 -180
65 -294 64 -124 0 -211 -21 -330 -78 -237 -114 -387 -332 -387 -558 1 -263
206 -474 490 -503 34 -4 65 -10 67 -14 8 -13 -50 -56 -119 -90 l-64 -32 -62
16 c-103 26 -110 24 -177 -51 -89 -101 -188 -143 -334 -143 -42 0 -90 -5 -108
-11 -18 -6 -35 -9 -38 -6 -3 4 -8 26 -10 49 -8 74 -74 198 -106 198 -5 0 -42
22 -82 49 -169 113 -372 137 -530 62 -107 -50 -158 -124 -158 -226 0 -76 26
-138 89 -205 l47 -50 -29 0 c-33 0 -141 49 -224 102 -102 65 -291 138 -357
138 -61 0 -96 18 -193 99 -46 39 -88 71 -91 71 -4 0 -30 27 -58 59 l-51 59 25
48 c32 61 32 116 -1 354 -6 42 -4 46 25 63 31 18 31 18 95 -13 35 -16 78 -33
95 -36 45 -9 55 -27 47 -82 -9 -70 -84 -220 -118 -238 -65 -34 -55 -86 26
-135 28 -17 73 -47 99 -68 74 -58 134 -84 202 -88 33 -2 83 -10 112 -18 83
-24 100 -21 154 34 66 65 67 102 8 166 -23 25 -56 49 -75 54 -18 5 -47 22 -65
39 l-31 29 35 21 c40 23 70 72 65 105 -2 12 -22 35 -44 52 -23 16 -50 44 -59
60 -10 17 -27 41 -39 54 -21 23 -21 24 -2 35 87 51 138 140 138 241 -1 71 -21
128 -74 207 -21 31 -38 63 -38 70 0 7 -12 50 -26 94 -31 91 -31 86 33 239 38
89 45 144 34 276 -10 119 -26 161 -72 185 -23 11 -29 20 -23 32 4 9 9 37 11
62 7 84 -52 138 -169 155 -27 3 -48 10 -48 15 0 8 221 143 256 157 8 3 43 -5
77 -19 187 -74 300 -105 336 -91 18 7 35 6 56 -3 105 -45 212 29 298 206 l42
85 -2 121 -3 122 44 40 c53 49 90 65 188 86 40 8 96 20 123 26 45 10 58 9 110
-10 33 -12 72 -24 86 -27 32 -6 59 18 59 53 0 24 1 24 100 24 85 0 109 -4 165
-27z m-1583 -188 c42 -8 62 -27 72 -70 17 -70 116 -252 171 -312 30 -34 55
-67 55 -73 0 -17 -40 -6 -125 34 -38 19 -109 48 -157 66 -96 36 -128 36 -180
-1 -17 -12 -65 -40 -107 -62 -124 -65 -171 -111 -171 -165 0 -31 22 -41 104
-52 109 -14 136 -30 136 -83 0 -23 -7 -31 -35 -42 -72 -31 -62 -87 18 -99 65
-10 84 -33 92 -110 4 -35 5 -102 3 -148 -3 -73 -9 -94 -48 -178 -40 -84 -45
-103 -44 -161 l1 -67 -74 35 c-56 27 -92 37 -151 42 l-77 6 3 28 c5 44 -54
210 -84 238 -46 43 -66 97 -74 195 -6 81 -11 99 -48 167 -42 76 -42 77 -27
113 18 45 111 137 190 188 33 22 90 63 128 93 77 62 118 131 136 228 12 63 33
99 88 149 33 31 110 57 148 51 11 -2 37 -7 57 -10z m1413 -546 c87 -16 167
-61 243 -137 107 -107 152 -214 152 -363 0 -205 -120 -367 -300 -405 -224 -46
-456 111 -532 360 -31 101 -23 238 19 328 51 109 130 181 236 213 53 17 107
18 182 4z m580 -41 c27 -12 55 -54 55 -82 0 -32 -33 -95 -57 -111 -85 -56
-162 27 -119 129 14 34 59 76 82 76 7 0 25 -5 39 -12z m-2384 -962 c134 -29
251 -112 304 -216 88 -173 -5 -321 -203 -321 -216 0 -436 179 -436 356 0 66
20 103 74 139 79 54 151 65 261 42z m2694 -61 c123 -33 227 -111 274 -208 56
-115 62 -201 22 -321 -52 -158 -190 -289 -369 -352 -81 -28 -199 -44 -188 -26
4 7 15 12 24 12 30 1 178 66 236 105 179 119 257 247 196 325 -18 24 -22 25
-120 22 -133 -5 -192 -20 -325 -87 -125 -63 -222 -142 -254 -208 -23 -48 -27
-97 -9 -115 24 -24 -5 -26 -48 -3 -75 40 -131 97 -166 169 -31 63 -33 73 -33
177 0 102 2 115 31 175 77 161 227 283 408 330 89 24 240 26 321 5z m118 -505
c29 -34 21 -61 -36 -115 -104 -97 -343 -199 -455 -193 -51 3 -57 5 -60 26 -5
36 115 147 218 201 91 48 236 99 285 100 19 1 37 -7 48 -19z m-2553 -139 c47
-48 84 -93 82 -100 -2 -6 -21 -20 -43 -31 -73 -38 -91 -103 -34 -129 17 -7 42
-25 57 -39 15 -14 44 -28 64 -31 43 -7 80 -48 70 -77 -3 -11 -17 -26 -32 -35
-22 -14 -32 -14 -77 -2 -29 8 -85 17 -125 20 -54 4 -83 12 -108 30 -19 12 -38
23 -42 23 -4 0 -30 17 -58 38 -28 20 -60 42 -70 48 -18 11 -18 13 5 34 13 13
42 62 64 109 33 68 42 99 45 153 l4 67 42 4 c22 2 48 4 56 5 8 1 53 -38 100
-87z m810 -395 c41 -8 97 -24 125 -36 56 -24 115 -66 115 -81 0 -6 13 -27 29
-47 113 -143 15 -295 -199 -309 -318 -22 -591 243 -418 404 46 43 154 79 243
81 17 1 64 -5 105 -12z"/>
<path d="M1958 3683 c-28 -32 -38 -61 -38 -106 0 -123 98 -246 174 -218 90 35
69 216 -36 306 -46 39 -77 44 -100 18z m86 -105 c27 -46 44 -122 29 -131 -21
-13 -71 59 -87 126 -15 61 23 64 58 5z"/>
<path d="M3970 2720 c-14 -5 -51 -16 -83 -25 -77 -22 -151 -93 -165 -161 -25
-116 51 -197 184 -196 147 1 275 108 276 232 0 72 -33 118 -107 147 -35 13
-69 14 -105 3z m88 -96 c48 -31 11 -114 -68 -154 -69 -34 -149 -33 -172 3 -27
42 22 124 95 161 38 20 107 15 145 -10z"/>
<path d="M2020 1851 c-86 -26 -141 -87 -161 -178 -38 -168 93 -404 274 -493
275 -135 486 95 354 384 -26 56 -132 173 -209 230 -68 51 -190 77 -258 57z
m190 -117 c44 -19 140 -91 140 -106 0 -6 14 -41 32 -77 44 -90 50 -180 16
-231 -32 -46 -63 -62 -119 -57 -102 8 -221 101 -275 214 -36 76 -40 177 -8
220 45 62 121 75 214 37z"/>
<path d="M1113 1935 c-20 -14 -31 -52 -36 -120 -2 -27 7 -37 88 -97 50 -37
109 -78 132 -90 l41 -22 41 27 c54 36 95 98 87 131 -6 25 -26 36 -183 107 -34
15 -79 39 -100 53 -44 30 -43 30 -70 11z m126 -135 c82 -41 97 -53 86 -70 -4
-7 -26 1 -58 19 -29 16 -67 38 -86 48 -35 19 -52 43 -32 43 6 0 47 -18 90 -40z"/>
<path d="M3653 1841 c-34 -10 -99 -37 -145 -59 -230 -115 -327 -275 -206 -338
67 -35 254 0 387 72 116 63 230 177 250 251 8 29 1 80 -11 84 -2 0 -50 2 -108
4 -80 3 -120 0 -167 -14z m201 -53 c8 -39 -8 -65 -75 -118 -59 -47 -210 -124
-285 -146 -70 -20 -158 -16 -162 9 -5 26 52 91 123 142 103 74 273 142 356
144 33 1 37 -2 43 -31z"/>
<path d="M2137 830 c-39 -12 -58 -29 -74 -68 -31 -73 25 -163 131 -213 72 -34
124 -37 181 -9 60 29 81 77 64 146 -9 34 -19 49 -43 61 -17 9 -47 28 -66 43
-60 46 -126 60 -193 40z m160 -70 c42 -19 73 -66 73 -110 0 -69 -160 -50 -219
26 -63 80 34 135 146 84z"/>
</g>
</svg>
