<?xml version="1.0" standalone="no"?>
<!DOCTYPE svg PUBLIC "-//W3C//DTD SVG 20010904//EN"
 "http://www.w3.org/TR/2001/REC-SVG-20010904/DTD/svg10.dtd">
<svg version="1.0" xmlns="http://www.w3.org/2000/svg"
 width="548.000000pt" height="549.000000pt" viewBox="0 0 548.000000 549.000000"
 preserveAspectRatio="xMidYMid meet">

<g transform="translate(0.000000,549.000000) scale(0.100000,-0.100000)"
fill="#000000" stroke="none">
<path d="M835 5076 c-204 -35 -342 -119 -447 -276 -128 -190 -70 -476 180
-875 240 -385 594 -769 1087 -1180 614 -512 1385 -942 1903 -1061 37 -8 76
-21 87 -28 14 -8 73 -12 192 -11 147 0 173 -2 173 -15 0 -8 -14 -51 -30 -95
-17 -44 -33 -98 -35 -120 -3 -22 -11 -80 -18 -130 -29 -191 21 -433 107 -518
82 -82 188 -60 275 57 21 28 49 60 61 71 32 28 236 268 292 343 147 197 257
390 309 542 30 90 32 210 3 265 -31 61 -90 88 -179 82 -41 -3 -99 -16 -140
-32 -38 -15 -89 -32 -112 -39 -23 -6 -50 -19 -60 -29 -23 -20 -216 -148 -219
-144 -1 1 -14 65 -29 142 -63 329 -216 688 -450 1055 -111 175 -189 282 -262
363 -41 44 -81 94 -90 111 -49 97 -455 513 -693 712 -194 161 -535 404 -569
404 -5 0 -27 15 -50 34 -47 40 -364 199 -496 249 -285 109 -590 157 -790 123z
m410 -66 c145 -31 317 -88 338 -112 33 -39 15 -175 -42 -323 -107 -278 -377
-596 -605 -713 -60 -30 -81 -36 -138 -36 -66 -1 -67 -1 -111 44 -111 113 -263
413 -302 595 -34 163 -3 287 91 368 19 15 39 40 46 55 24 49 169 119 296 142
80 15 316 4 427 -20z m559 -199 c162 -79 156 -74 124 -106 -15 -15 -32 -43
-39 -63 -6 -21 -31 -64 -56 -97 -53 -73 -59 -94 -44 -156 7 -27 10 -53 6 -59
-3 -5 -28 -19 -55 -31 -56 -24 -134 -101 -156 -156 -10 -23 -14 -59 -12 -105
l3 -69 -58 -23 c-80 -33 -138 -84 -175 -154 -36 -67 -39 -103 -15 -163 l16
-41 -34 -26 c-74 -56 -115 -108 -141 -177 l-25 -68 -70 74 c-65 69 -128 141
-246 281 -27 32 -46 62 -43 66 3 5 29 12 58 15 151 18 381 193 549 417 168
223 261 442 263 617 1 63 4 83 15 83 7 0 68 -27 135 -59z m346 -192 c47 -29
95 -61 107 -72 l22 -19 -50 -49 c-55 -54 -79 -100 -79 -154 0 -27 -8 -44 -29
-66 -40 -40 -75 -114 -67 -144 3 -14 9 -36 12 -49 5 -18 1 -26 -14 -31 -23 -7
-115 -125 -132 -169 -14 -38 -13 -96 4 -143 8 -22 11 -44 8 -50 -4 -5 -34 -22
-68 -37 -45 -20 -67 -37 -88 -69 -27 -41 -28 -59 -11 -113 5 -17 -1 -26 -38
-47 -55 -33 -107 -96 -118 -144 -6 -29 -3 -48 13 -85 11 -26 24 -48 29 -48 24
0 5 -30 -26 -40 -39 -13 -80 -59 -90 -102 -4 -16 -9 -28 -12 -28 -7 0 -54 41
-165 144 -60 55 -88 87 -88 102 0 14 -8 25 -20 29 -23 7 -50 53 -50 85 0 57
84 167 158 207 41 22 48 49 28 98 -23 53 -20 90 11 147 31 57 84 97 167 129
71 26 85 50 79 139 -4 60 -2 69 28 114 19 28 52 60 78 75 24 14 58 38 75 53
30 25 31 29 29 97 -3 70 -2 72 40 129 24 31 52 77 62 101 34 77 81 79 195 10z
m349 -247 c68 -53 129 -104 134 -113 8 -13 0 -30 -37 -78 -61 -80 -166 -303
-166 -354 0 -32 -12 -55 -71 -133 -79 -108 -91 -132 -91 -188 1 -53 -9 -69
-72 -115 -64 -48 -118 -127 -118 -175 0 -18 11 -52 23 -74 l24 -41 -56 -50
c-85 -76 -107 -137 -73 -204 16 -30 16 -32 -2 -42 -34 -18 -83 -77 -89 -106
-4 -16 -10 -31 -15 -34 -15 -9 -170 118 -170 140 0 5 -25 30 -56 55 -31 25
-62 54 -70 65 -35 50 0 104 86 132 33 11 56 25 58 34 2 9 -13 35 -33 59 -47
56 -53 85 -28 130 29 49 90 90 148 98 61 9 68 28 25 70 -55 56 -34 99 72 145
65 29 82 54 74 106 -23 135 -23 134 33 210 29 39 61 73 72 76 11 4 26 17 35
30 13 20 13 27 -2 64 -21 54 -9 84 58 145 39 35 48 50 42 63 -13 29 -8 67 12
97 22 35 91 86 113 86 9 0 72 -44 140 -98z m324 -273 c53 -50 97 -98 97 -106
0 -9 -9 -41 -19 -72 -17 -50 -61 -265 -61 -299 0 -7 -14 -43 -31 -79 -30 -64
-31 -70 -19 -120 l11 -53 -54 -72 c-71 -95 -97 -148 -103 -211 -8 -84 -11 -89
-73 -155 -33 -34 -71 -87 -86 -117 -23 -50 -25 -59 -14 -97 10 -40 9 -43 -13
-57 -87 -55 -165 -186 -152 -257 5 -25 3 -34 -7 -34 -20 1 -279 184 -313 221
-24 27 -27 38 -23 73 7 49 40 82 93 92 48 9 52 28 21 85 -42 73 -37 90 43 169
39 38 70 77 70 87 0 10 -9 38 -20 62 -11 24 -20 50 -20 58 0 22 51 89 81 107
14 8 44 36 67 60 38 41 42 50 42 98 0 59 13 86 90 183 60 77 80 115 80 159 0
20 14 62 33 98 18 35 43 86 55 114 24 58 96 154 115 154 7 0 56 -41 110 -91z
m286 -279 c61 -65 111 -121 111 -122 0 -2 -7 -35 -15 -73 -8 -39 -15 -102 -15
-142 0 -76 -1 -78 -60 -116 -56 -37 -88 -92 -100 -174 -11 -84 -29 -132 -84
-228 -48 -85 -57 -150 -31 -218 20 -54 17 -66 -41 -168 -57 -99 -62 -126 -34
-182 l23 -45 -51 -72 c-40 -57 -52 -83 -58 -127 -8 -64 1 -65 -135 13 -58 33
-108 70 -127 93 -18 22 -40 42 -51 46 -27 8 -71 79 -71 115 0 58 54 140 116
176 54 32 70 68 53 122 -11 37 -10 44 14 85 15 25 48 64 75 89 62 55 82 94 86
166 4 68 24 110 100 211 59 78 67 110 46 167 -9 22 -5 37 20 89 16 34 30 77
30 96 0 19 7 59 15 89 8 30 15 73 15 96 0 52 28 134 45 134 7 0 63 -54 124
-120z m244 -275 l57 -68 0 -146 c0 -130 -4 -158 -30 -256 -34 -126 -36 -165
-14 -243 23 -77 14 -138 -31 -210 -43 -71 -44 -104 -5 -182 17 -33 30 -75 30
-93 0 -42 -32 -117 -76 -179 -68 -97 -86 -145 -82 -220 3 -65 3 -68 -17 -62
-46 15 -201 88 -220 104 -11 9 -46 29 -77 43 -51 23 -58 29 -64 62 -10 55 2
91 49 153 75 97 79 116 35 172 -24 31 -20 48 38 144 54 90 65 144 40 206 -20
50 -20 78 -1 110 69 118 107 213 116 286 11 88 31 122 87 154 61 35 75 62 73
143 -2 89 8 159 23 154 6 -2 37 -34 69 -72z m240 -312 c106 -153 187 -279 187
-293 0 -8 -9 -10 -26 -6 -31 8 -64 -1 -64 -18 0 -7 11 -27 25 -46 23 -31 25
-43 25 -132 0 -82 -4 -108 -26 -163 -17 -43 -24 -76 -21 -98 3 -17 11 -64 17
-104 12 -71 12 -72 -20 -138 -18 -36 -34 -83 -37 -105 -5 -36 -2 -43 48 -95
l53 -56 -23 -67 c-29 -83 -79 -172 -96 -172 -26 0 -261 71 -312 95 -58 26 -83
62 -83 119 0 40 39 123 85 181 104 131 122 219 71 332 l-28 62 40 61 c64 95
73 172 36 290 -13 42 -12 51 12 135 38 138 43 164 44 248 0 42 4 77 9 77 4 0
42 -48 84 -107z m301 -485 c125 -230 234 -540 266 -754 11 -73 24 -132 36
-160 3 -7 -6 -14 -20 -18 -14 -3 -44 -24 -67 -46 -30 -29 -54 -41 -88 -47 -66
-11 -261 -8 -294 6 -29 11 -29 15 13 81 29 46 70 146 70 170 0 18 -14 45 -40
76 -22 27 -40 58 -40 70 0 12 16 51 35 88 39 75 42 103 21 209 -12 64 -12 70
12 125 19 45 25 81 29 170 3 61 9 112 14 112 4 0 28 -37 53 -82z m1003 -710
c31 -31 40 -92 24 -169 -18 -85 -26 -91 -64 -45 -76 92 -96 109 -126 103 -24
-5 -35 1 -76 43 l-48 49 29 11 c121 47 219 50 261 8z m-249 -158 c51 -53 61
-57 93 -37 17 10 22 9 35 -8 7 -11 33 -39 55 -62 l42 -42 -27 -63 c-48 -112
-40 -111 -153 -18 -54 45 -111 88 -128 95 -16 8 -57 41 -90 74 -39 40 -67 61
-83 61 -33 0 -20 14 50 54 l61 34 49 -19 c29 -11 67 -39 96 -69z m-308 -30 c0
-5 13 -16 28 -24 15 -8 51 -37 80 -65 29 -28 65 -57 81 -66 16 -8 71 -43 123
-78 52 -35 101 -66 109 -69 11 -4 8 -17 -16 -63 -34 -64 -57 -85 -86 -78 -10
3 -47 37 -82 76 -91 104 -177 186 -217 207 -63 33 -120 80 -120 99 0 10 17 30
38 44 39 27 62 34 62 17z m-98 -159 c13 -11 51 -35 83 -54 33 -19 107 -82 165
-140 58 -57 120 -112 138 -121 35 -18 36 -17 -13 -84 -26 -35 -35 -42 -66 -42
-42 0 -52 10 -103 104 -52 97 -117 178 -189 237 -80 66 -99 90 -85 106 15 18
42 16 70 -6z m-102 -93 c26 -24 70 -63 99 -87 48 -40 92 -92 203 -240 25 -33
47 -51 67 -56 17 -4 31 -9 31 -12 0 -3 -23 -34 -51 -70 -48 -60 -54 -64 -83
-57 -75 16 -105 46 -161 163 -32 65 -70 103 -193 192 -30 21 -33 28 -29 59 7
50 46 150 59 150 6 0 32 -19 58 -42z m-41 -286 c54 -42 82 -72 105 -115 42
-77 99 -134 147 -147 22 -6 39 -15 39 -21 0 -6 -43 -56 -96 -112 -53 -56 -103
-108 -110 -116 -7 -8 -27 -14 -45 -13 -57 1 -104 65 -132 178 -22 87 -28 152
-16 160 6 3 38 -22 71 -56 60 -61 169 -130 208 -130 28 0 25 18 -4 30 -13 5
-27 14 -31 20 -3 5 -23 19 -44 29 -21 11 -49 37 -63 59 -15 22 -54 67 -87 101
l-60 61 5 53 c10 97 12 97 113 19z"/>
<path d="M855 4734 c-82 -30 -155 -131 -155 -215 0 -85 82 -171 177 -185 109
-16 207 12 270 78 107 111 71 260 -80 323 -46 19 -158 19 -212 -1z m210 -80
c67 -32 86 -117 39 -174 -77 -90 -223 -103 -301 -25 -27 27 -33 41 -33 77 0
24 7 54 16 66 15 22 75 57 124 73 35 12 113 3 155 -17z"/>
</g>
</svg>
