<?xml version="1.0" standalone="no"?>
<!DOCTYPE svg PUBLIC "-//W3C//DTD SVG 20010904//EN"
 "http://www.w3.org/TR/2001/REC-SVG-20010904/DTD/svg10.dtd">
<svg version="1.0" xmlns="http://www.w3.org/2000/svg"
 width="123.000000pt" height="123.000000pt" viewBox="0 0 395.000000 310.000000"
 preserveAspectRatio="xMidYMid meet">

<g transform="translate(0.000000,310.000000) scale(0.100000,-0.100000)"
 stroke="none">
<path d="M2713 2863 c-156 -3 -173 -5 -173 -21 0 -9 -7 -30 -15 -46 -8 -15
-15 -42 -15 -58 0 -59 -46 -98 -115 -98 -66 0 -87 39 -100 185 -2 20 -8 20
-314 16 -171 -2 -326 -7 -343 -10 -28 -6 -33 -12 -48 -67 -22 -76 -37 -100
-78 -126 -42 -26 -112 -21 -147 12 -23 22 -65 121 -65 155 0 17 -13 18 -257
11 -442 -11 -620 -24 -688 -47 -102 -36 -95 -15 -105 -280 -13 -342 -33 -1823
-25 -1851 13 -40 83 -126 146 -178 69 -57 203 -146 275 -183 76 -38 244 -94
335 -112 104 -19 260 -20 302 -1 18 8 70 19 117 25 67 8 127 26 280 84 299
115 568 225 1000 409 129 55 352 150 494 210 142 60 289 124 325 142 36 18 96
43 133 55 37 13 70 27 74 32 3 6 7 65 9 132 2 67 7 166 11 220 6 93 5 97 -14
97 -12 0 -24 5 -27 10 -3 6 -26 15 -51 21 -76 19 -104 96 -66 182 26 59 60 81
110 73 69 -11 69 -11 81 274 17 398 22 662 13 700 l-8 35 -439 1 c-242 0 -518
-1 -612 -3z m961 -69 c49 -19 -14 -60 -104 -67 -73 -5 -1274 -370 -1904 -578
-210 -69 -304 -96 -316 -89 -9 5 -35 6 -58 3 -52 -7 -153 24 -266 82 l-82 42
-39 -33 c-33 -27 -48 -34 -85 -34 -52 0 -115 27 -147 61 -44 48 -56 125 -28
179 l15 30 -92 93 c-92 91 -168 191 -168 220 0 22 58 25 471 27 l367 1 7 -38
c3 -21 17 -57 31 -80 99 -170 360 -114 414 89 l11 38 67 0 c37 0 158 3 270 7
l203 6 -6 -25 c-11 -42 12 -103 50 -137 97 -85 248 -51 309 70 14 29 26 61 26
71 0 10 6 20 13 23 17 5 706 27 858 27 69 0 132 4 140 9 17 10 22 11 43 3z
m-3182 -360 l69 -73 -11 -58 c-14 -69 -4 -117 36 -179 73 -112 226 -149 369
-90 35 15 38 15 105 -19 37 -19 98 -42 134 -51 l66 -16 0 -348 0 -347 -25 5
c-86 16 -145 -150 -100 -279 19 -53 68 -106 107 -114 27 -6 28 -9 28 -65 l0
-58 62 -11 c82 -14 100 -33 106 -110 4 -57 3 -62 -27 -90 -23 -21 -45 -30 -86
-36 l-55 -6 0 -84 c0 -95 -5 -115 -29 -115 -10 0 -26 -7 -37 -15 -28 -21 -152
-19 -250 5 -199 47 -455 179 -551 283 l-41 44 -6 739 c-3 406 -7 863 -9 1015
l-2 276 39 -65 c21 -36 70 -98 108 -138z m3208 163 c0 -24 -5 -80 -11 -124 -6
-44 -18 -192 -27 -329 l-17 -249 -37 -6 c-83 -13 -130 -83 -131 -193 -1 -92
41 -155 114 -171 l30 -7 -7 -136 c-4 -84 -11 -142 -18 -150 -12 -13 -121 -61
-856 -382 -578 -252 -965 -427 -1190 -540 -140 -70 -133 -69 -148 -7 -6 29
-12 73 -12 98 0 43 2 46 36 58 52 19 74 61 74 144 0 97 -46 177 -102 177 -13
0 -18 12 -23 58 -3 31 -7 64 -8 72 -1 9 -15 15 -39 15 -97 4 -143 66 -136 182
5 84 33 113 106 113 79 0 76 -12 68 256 -4 132 -12 285 -17 341 l-11 102 34
40 c18 23 38 41 44 41 20 0 717 189 1049 284 439 125 1052 302 1145 331 41 12
78 23 83 24 4 0 7 -19 7 -42z"/>
<path d="M700 1375 c-7 -8 -19 -15 -27 -15 -29 0 -93 -41 -108 -70 -20 -38
-19 -58 4 -96 48 -78 220 -65 272 20 39 64 18 124 -55 157 -50 23 -70 24 -86
4z m43 -65 c55 0 59 -58 7 -85 -36 -18 -100 -19 -124 -2 -27 20 -16 58 23 84
25 17 38 20 51 13 10 -6 30 -10 43 -10z"/>
<path d="M779 832 c-69 -71 -89 -129 -69 -201 32 -119 178 -122 246 -5 23 39
26 53 22 111 -4 60 -7 68 -41 99 -30 28 -45 34 -79 34 -36 -1 -49 -7 -79 -38z
m115 -54 c49 -69 -26 -196 -98 -168 -30 11 -41 45 -33 101 8 63 31 89 77 89
29 0 43 -6 54 -22z"/>
<path d="M2631 1979 c-62 -64 -66 -131 -12 -183 77 -74 211 -18 211 88 0 52
-28 98 -73 119 -55 27 -81 22 -126 -24z m102 -56 c4 -2 7 -18 7 -34 0 -21 -7
-32 -24 -40 -46 -21 -90 27 -66 71 9 18 17 20 43 14 18 -3 35 -8 40 -11z"/>
<path d="M1910 1591 c-8 -6 -29 -11 -46 -11 -36 0 -88 -32 -118 -73 -32 -43
-29 -121 6 -174 46 -70 156 -108 245 -84 113 31 166 148 110 246 -37 66 -156
124 -197 96z m52 -95 c97 -38 73 -146 -33 -146 -69 0 -133 67 -110 116 15 33
69 65 90 53 9 -4 33 -15 53 -23z"/>
<path d="M2603 1310 c-33 -14 -76 -95 -76 -145 0 -87 72 -152 159 -142 80 9
127 62 127 144 0 47 -18 81 -65 116 -36 28 -111 42 -145 27z m102 -85 c46 -45
22 -115 -39 -115 -50 0 -83 43 -78 100 2 14 45 35 80 39 7 0 24 -10 37 -24z"/>
</g>
</svg>
