<?xml version="1.0" standalone="no"?>
<!DOCTYPE svg PUBLIC "-//W3C//DTD SVG 20010904//EN"
 "http://www.w3.org/TR/2001/REC-SVG-20010904/DTD/svg10.dtd">
<svg version="1.0" xmlns="http://www.w3.org/2000/svg"
 width="134.000000pt" height="124.000000pt" viewBox="0 0 426.000000 495.000000"
 preserveAspectRatio="xMidYMid meet">

<g transform="translate(0.000000,495.000000) scale(0.100000,-0.100000)"
fill="#000000" stroke="none">
<path d="M2375 4615 c-27 -6 -66 -20 -85 -30 -41 -21 -119 -81 -140 -109 -19
-25 -120 -246 -120 -263 0 -20 -22 -15 -70 17 -49 33 -70 35 -151 19 -47 -9
-60 -8 -102 10 -27 12 -59 21 -73 21 -40 0 -105 -30 -197 -91 -48 -32 -114
-67 -145 -78 -140 -46 -155 -56 -201 -137 -34 -59 -47 -74 -60 -68 -50 21 -69
17 -119 -30 -27 -25 -57 -63 -68 -83 -10 -21 -20 -40 -21 -42 -2 -2 -11 3 -22
13 -29 26 -81 37 -146 30 -49 -5 -65 -12 -91 -38 -41 -41 -74 -162 -74 -270 0
-118 20 -146 153 -211 69 -34 82 -44 85 -67 4 -31 -48 -94 -106 -130 -74 -45
-181 -128 -201 -157 -52 -72 -61 -163 -25 -248 23 -57 150 -120 287 -142 52
-9 149 5 259 38 146 43 238 37 364 -23 61 -29 173 -106 223 -154 7 -7 30 -22
52 -32 21 -11 94 -73 161 -138 192 -184 246 -231 293 -255 125 -63 267 -331
281 -527 4 -58 0 -101 -20 -190 -14 -63 -30 -156 -36 -206 -10 -83 -9 -103 14
-229 30 -162 56 -223 134 -318 63 -78 151 -141 317 -225 153 -78 184 -80 254
-12 l42 41 92 1 c136 1 153 7 235 90 39 40 82 87 94 104 13 17 60 67 105 113
44 45 90 101 101 124 45 97 63 304 37 452 -21 128 -76 331 -113 421 -69 167
-256 395 -416 509 -131 92 -179 147 -196 222 -17 78 -16 89 20 238 l32 130 -6
230 c-3 127 -9 334 -12 460 -6 206 -4 243 15 354 11 68 21 156 21 197 0 81
-22 199 -47 251 -21 44 -91 89 -163 104 -30 6 -65 17 -77 25 -29 18 -61 80
-69 133 -10 63 -56 118 -120 147 -59 26 -102 28 -179 9z m144 -81 c48 -19 62
-39 85 -127 10 -37 32 -85 48 -108 30 -41 94 -78 136 -79 36 0 100 -38 115
-68 8 -15 19 -66 26 -113 13 -88 11 -108 -24 -319 -11 -67 -13 -70 -14 -30 -2
68 -67 366 -89 406 -16 30 -44 51 -79 59 -19 4 -42 20 -57 40 -34 45 -90 78
-116 70 -15 -5 -32 3 -62 30 -39 36 -43 37 -95 32 -56 -6 -93 -28 -93 -55 0
-11 9 -13 48 -7 66 11 85 9 100 -12 40 -55 54 -65 82 -60 31 7 44 -2 84 -57
17 -22 47 -47 72 -58 32 -14 45 -26 49 -46 4 -15 15 -58 25 -97 10 -38 22 -90
26 -115 3 -25 11 -54 17 -65 7 -13 10 -71 8 -161 -2 -104 2 -163 15 -229 14
-74 15 -97 6 -145 -7 -31 -12 -114 -12 -186 0 -71 -5 -194 -12 -274 -13 -159
-2 -275 27 -296 19 -14 19 -36 0 -98 -15 -50 -84 -181 -91 -173 -14 13 -26
143 -34 352 -9 254 -29 415 -63 505 -11 30 -68 150 -127 265 -59 116 -130 271
-159 345 -85 222 -102 253 -193 349 -101 106 -104 148 -20 313 50 99 64 118
114 157 86 66 180 86 257 55z m-828 -351 c48 -25 55 -26 121 -17 65 9 72 8
111 -15 59 -34 77 -51 93 -90 8 -18 43 -64 78 -102 77 -81 107 -131 137 -224
53 -168 179 -454 253 -574 93 -151 138 -364 128 -611 -2 -41 -5 -51 -12 -38
-23 38 -105 270 -127 358 -13 52 -37 129 -54 170 -17 41 -37 106 -45 143 -15
74 -25 96 -90 204 -24 40 -44 77 -44 82 0 26 -44 101 -80 136 -23 22 -53 59
-67 83 -14 23 -34 49 -45 56 -11 8 -34 36 -52 63 -17 27 -46 56 -66 65 -19 10
-51 35 -70 56 -85 94 -164 129 -230 102 -50 -21 -35 -44 30 -50 70 -7 153 -51
180 -97 11 -19 35 -40 55 -49 23 -9 46 -31 65 -61 16 -25 38 -52 50 -60 11 -8
31 -35 44 -61 14 -26 42 -68 64 -94 23 -27 44 -67 51 -93 6 -25 36 -92 65
-148 30 -57 59 -128 66 -161 12 -57 29 -104 69 -191 24 -50 38 -96 51 -163 5
-29 23 -84 40 -122 17 -38 49 -124 71 -190 22 -66 53 -140 69 -163 41 -62 63
-188 49 -281 -6 -39 -13 -73 -15 -75 -2 -2 -14 10 -28 26 -23 28 -56 46 -196
111 -120 56 -153 90 -221 229 -34 68 -65 138 -69 156 -64 247 -102 333 -218
485 -149 195 -196 259 -225 306 -65 105 -136 167 -285 248 -98 54 -167 124
-214 218 -50 101 -55 127 -30 184 22 49 56 75 125 96 86 26 120 41 174 81 62
46 158 99 179 99 8 0 37 -12 65 -27z m-641 -346 c31 -2 35 -5 42 -41 24 -117
144 -268 270 -341 139 -81 185 -125 269 -264 22 -36 73 -109 114 -161 159
-202 199 -270 240 -415 10 -33 23 -78 30 -100 7 -22 16 -53 20 -69 3 -16 32
-81 63 -144 69 -141 125 -204 236 -267 74 -41 78 -45 55 -53 -74 -28 -84 -26
-213 36 -131 64 -148 78 -366 287 -63 60 -133 122 -155 136 -72 47 -82 53
-156 110 -92 69 -205 125 -284 140 -92 17 -215 6 -325 -31 -138 -46 -172 -48
-266 -15 -141 50 -155 62 -156 140 -2 71 41 119 198 220 215 139 209 299 -14
366 -24 7 -53 24 -64 38 -18 23 -20 36 -15 116 3 52 13 111 23 140 21 54 36
62 112 64 36 1 49 -5 87 -40 44 -40 65 -44 65 -11 1 63 95 179 134 167 12 -4
37 -8 56 -8z m1850 -227 c0 -5 -4 -10 -10 -10 -5 0 -10 5 -10 10 0 6 5 10 10
10 6 0 10 -4 10 -10z m-1 -120 c0 -36 -4 -74 -9 -85 -6 -13 -9 15 -9 80 -1 68
2 95 9 85 5 -8 9 -44 9 -80z m15 -550 c3 -214 1 -243 -19 -325 l-22 -90 -8 50
c-5 29 -3 108 4 190 6 77 11 196 11 265 0 69 3 143 7 165 l6 40 9 -30 c5 -16
10 -136 12 -265z m-47 -442 c-3 -8 -6 -5 -6 6 -1 11 2 17 5 13 3 -3 4 -12 1
-19z m62 -283 c26 -49 97 -120 202 -199 105 -81 251 -268 319 -411 60 -126
129 -394 137 -537 7 -110 -9 -234 -37 -288 -20 -40 -137 -167 -145 -158 -3 3
0 29 6 57 13 61 -2 254 -26 324 -7 23 -18 67 -24 98 -16 88 -109 354 -162 464
-46 95 -132 214 -319 443 -41 49 -60 81 -60 100 0 25 66 152 79 152 3 0 17
-20 30 -45z m-13 -376 c177 -252 191 -279 267 -514 88 -272 121 -421 122 -540
0 -131 -15 -208 -62 -301 -41 -84 -68 -109 -125 -117 -34 -5 -37 -4 -40 21 -2
15 5 59 14 97 24 96 22 150 -7 237 -14 40 -30 100 -36 132 -13 73 -61 196 -99
256 -16 25 -33 57 -39 71 -5 15 -49 87 -97 160 -66 101 -114 160 -194 239 -87
87 -113 120 -148 189 -48 95 -52 126 -20 134 16 5 32 -4 62 -35 69 -69 155
-107 198 -88 31 15 74 93 83 153 4 26 11 47 15 47 4 0 52 -63 106 -141z m-611
42 l50 -6 6 -50 c4 -30 25 -87 52 -141 39 -77 58 -102 125 -162 83 -76 114
-116 209 -277 132 -222 174 -315 207 -458 8 -37 22 -82 30 -100 35 -79 37 -97
20 -190 -14 -74 -22 -95 -53 -132 -26 -31 -44 -44 -63 -44 -34 -1 -244 105
-318 160 -66 50 -133 131 -160 193 -10 25 -29 98 -41 163 -25 139 -22 201 19
373 39 171 37 263 -12 405 -36 108 -69 170 -130 250 -25 31 -27 37 -11 30 11
-4 43 -11 70 -14z"/>
</g>
</svg>
