<?xml version="1.0" standalone="no"?>
<!DOCTYPE svg PUBLIC "-//W3C//DTD SVG 20010904//EN"
 "http://www.w3.org/TR/2001/REC-SVG-20010904/DTD/svg10.dtd">
<svg version="1.0" xmlns="http://www.w3.org/2000/svg"
 width="123.000000pt" height="123.000000pt" viewBox="0 0 403.000000 335.000000"
 preserveAspectRatio="xMidYMid meet">

<g transform="translate(0.000000,335.000000) scale(0.100000,-0.100000)"
fill="#000000" stroke="none">
<path d="M2145 3279 c-882 -121 -1644 -821 -1938 -1779 -45 -147 -73 -275 -82
-370 -3 -41 -11 -96 -16 -121 -7 -34 -6 -78 5 -162 15 -113 16 -117 77 -218
86 -144 158 -238 264 -345 122 -123 263 -213 340 -216 55 -2 117 42 2445 1742
289 211 551 401 584 424 109 76 121 90 123 138 1 24 5 59 9 79 5 31 1 42 -37
90 -69 86 -206 226 -304 307 -239 200 -533 341 -850 408 -102 22 -153 26 -335
29 -118 2 -246 -1 -285 -6z m435 -94 c69 -8 161 -23 205 -34 246 -60 502 -190
709 -361 86 -71 222 -207 214 -215 -3 -3 -39 0 -79 7 -47 8 -172 13 -346 13
l-272 0 5 21 c6 22 -18 54 -39 54 -7 0 -32 -12 -56 -26 -43 -24 -47 -24 -118
-14 -68 11 -77 10 -118 -10 -52 -25 -98 -75 -90 -99 4 -13 -9 -20 -63 -35
-198 -56 -492 -190 -680 -310 -223 -142 -458 -347 -624 -546 -186 -222 -356
-521 -441 -780 -92 -276 -146 -643 -87 -584 5 5 16 54 25 109 41 258 126 510
250 740 397 741 1148 1252 1998 1360 134 17 396 19 537 5 112 -12 295 -47 323
-62 19 -10 18 -11 -9 -34 -16 -13 -126 -96 -244 -184 -1538 -1141 -2544 -1892
-2657 -1983 -45 -36 -83 -63 -86 -61 -2 2 -34 13 -70 23 -185 51 -459 356
-582 650 -25 61 -26 67 -15 135 32 193 91 418 157 598 56 152 210 457 298 588
395 591 953 960 1565 1035 144 18 243 18 390 0z m205 -624 c16 -7 10 -10 -30
-19 -92 -19 -125 -24 -125 -18 0 3 17 14 38 25 39 21 83 25 117 12z"/>
<path d="M2855 2968 c16 -95 43 -128 105 -128 18 0 43 -9 57 -20 17 -13 41
-20 68 -20 26 0 48 -6 55 -15 16 -19 103 -45 151 -45 21 0 42 -7 49 -16 20
-23 84 -15 88 11 3 27 -64 65 -116 65 -47 0 -100 17 -127 40 -11 10 -41 21
-67 24 -34 5 -51 13 -59 28 -10 18 -17 20 -60 15 -66 -8 -76 -3 -105 54 -31
62 -48 64 -39 7z"/>
<path d="M2097 2988 c-16 -13 -47 -143 -47 -199 0 -35 24 -56 45 -39 17 14 17
15 33 -22 15 -36 50 -37 83 -2 47 52 116 67 182 39 52 -22 120 -18 190 9 34
13 87 29 117 36 65 13 100 34 100 59 0 21 -25 46 -62 60 -130 49 -596 92 -641
59z m124 -43 c41 -3 92 -10 114 -15 22 -5 96 -16 164 -25 68 -10 142 -22 165
-29 l41 -12 -119 -39 c-118 -39 -119 -39 -165 -23 -79 28 -107 30 -160 14 -28
-8 -57 -19 -64 -23 -6 -4 -29 -8 -51 -8 l-38 0 6 44 c3 24 6 64 6 88 0 35 3
44 14 40 8 -3 47 -8 87 -12z"/>
<path d="M1750 2950 c0 -15 27 -28 93 -45 37 -10 67 -23 67 -30 0 -7 -14 -44
-32 -81 -33 -70 -35 -89 -26 -219 3 -39 2 -41 -62 -83 -84 -55 -126 -66 -222
-58 -77 6 -93 1 -82 -27 10 -26 59 -39 138 -35 42 2 76 -1 76 -6 0 -4 -15 -29
-34 -55 -73 -100 -90 -162 -48 -175 17 -6 193 43 231 64 46 24 67 113 34 143
-24 21 -97 39 -128 31 -43 -11 -27 10 27 36 29 14 71 43 95 66 48 45 54 78 30
150 -16 45 -6 102 33 190 29 65 22 98 -22 113 -45 14 -168 29 -168 21z m60
-625 c19 -7 36 -19 38 -27 4 -22 -35 -51 -86 -65 -26 -7 -58 -16 -71 -19 -23
-7 -22 -4 15 65 29 52 43 69 54 65 8 -4 31 -12 50 -19z"/>
<path d="M1690 2828 c0 -1 -2 -52 -5 -113 -6 -119 -9 -126 -85 -177 -20 -12
-22 -19 -13 -28 13 -14 57 -1 104 31 25 17 26 24 32 124 5 110 -1 156 -21 163
-7 2 -12 2 -12 0z"/>
<path d="M1290 2657 c-54 -42 -69 -100 -55 -198 l7 -45 -50 -33 c-52 -33 -62
-47 -62 -87 0 -17 7 -25 26 -30 64 -16 113 38 135 149 14 67 29 84 29 32 0
-52 23 -40 34 17 17 85 -9 119 -62 82 -21 -15 -22 -14 -22 13 0 29 23 72 47
86 7 4 13 12 13 17 0 14 -22 12 -40 -3z m-90 -338 c-17 -14 -26 -17 -28 -9 -5
14 16 30 38 30 10 -1 7 -7 -10 -21z"/>
<path d="M2026 2601 c-9 -15 93 -101 120 -101 12 0 30 10 38 22 15 21 16 21
34 4 28 -25 82 -30 159 -16 72 13 93 24 93 46 0 29 -46 38 -120 24 -68 -13
-72 -12 -100 8 -36 27 -50 27 -82 2 -25 -19 -25 -19 -64 0 -41 22 -70 25 -78
11z"/>
<path d="M3423 2328 c-8 -19 -16 -22 -60 -19 -68 3 -120 -19 -128 -56 -14 -63
-43 -111 -107 -174 -36 -36 -82 -74 -102 -83 -19 -9 -48 -27 -63 -40 -42 -35
-68 -46 -107 -46 -41 0 -41 1 -20 42 12 24 21 29 40 25 33 -6 30 11 -3 24 -26
10 -31 7 -65 -33 -45 -51 -49 -84 -12 -98 61 -24 103 -10 213 69 144 103 232
203 246 283 4 21 14 43 22 50 19 16 115 12 128 -5 10 -13 43 -11 58 3 12 11
-3 80 -18 80 -6 0 -16 -10 -22 -22z"/>
<path d="M986 2309 c-35 -27 -86 -130 -88 -174 -1 -24 6 -43 20 -58 31 -33 27
-52 -13 -83 -25 -19 -35 -34 -33 -48 4 -26 48 -36 48 -12 0 9 4 16 9 16 4 0
20 12 35 26 36 37 36 94 0 128 -23 20 -26 30 -21 60 6 39 54 117 76 124 11 4
12 -2 7 -23 -9 -36 14 -29 27 8 6 19 5 32 -3 42 -17 20 -33 19 -64 -6z"/>
<path d="M1447 2303 c-4 -3 -7 -12 -7 -20 0 -7 -14 -32 -30 -55 -17 -23 -30
-51 -28 -62 4 -28 43 -46 101 -46 54 0 61 9 62 78 0 38 -5 48 -37 78 -38 34
-49 39 -61 27z m41 -101 c3 -30 1 -32 -27 -32 -35 0 -39 14 -15 48 21 30 38
23 42 -16z"/>
<path d="M2626 2120 c-6 -23 -5 -35 2 -38 7 -2 9 -15 5 -33 -4 -22 -2 -29 10
-29 21 0 31 59 13 74 -8 6 -16 22 -18 36 -4 23 -5 22 -12 -10z"/>
<path d="M1333 2088 c-29 -38 -94 -188 -89 -205 4 -11 0 -38 -8 -60 -31 -87
29 -100 105 -22 40 41 49 57 49 86 0 35 0 36 -36 30 -31 -5 -35 -4 -29 11 32
84 48 141 42 155 -8 20 -21 22 -34 5z"/>
<path d="M2444 2023 c-10 -16 -15 -16 -34 -5 -28 17 -33 11 -14 -17 14 -19 21
-21 62 -15 59 8 60 10 34 34 -26 25 -34 25 -48 3z"/>
<path d="M1926 1897 c-38 -21 -71 -49 -93 -79 -43 -58 -28 -62 31 -8 35 32 99
70 120 70 2 0 6 -9 9 -19 3 -13 20 -24 46 -31 50 -13 82 0 151 60 42 37 43 39
20 40 -14 0 -45 -14 -70 -30 -59 -39 -95 -39 -115 0 -9 17 -21 30 -28 30 -6 0
-38 -15 -71 -33z"/>
<path d="M590 1829 l-35 -19 4 -85 c4 -115 -30 -256 -81 -327 -32 -46 -52 -33
-58 36 -3 35 -10 61 -18 64 -17 5 -38 -51 -47 -128 -9 -76 -19 -102 -40 -94
-25 10 -63 -23 -76 -64 -10 -35 -8 -220 4 -317 4 -36 40 -43 45 -9 2 16 8 20
28 16 23 -4 34 11 14 23 -12 8 -1 35 15 35 7 0 16 -7 19 -16 10 -25 31 -10 36
27 4 29 11 36 45 47 53 17 64 33 58 86 -5 40 0 53 42 123 44 72 47 80 36 110
-11 28 -9 38 18 91 16 32 37 86 45 119 19 74 22 273 4 291 -15 15 -16 15 -58
-9z m27 -146 c-2 -21 -4 -6 -4 32 0 39 2 55 4 38 2 -18 2 -50 0 -70z m-17
-143 c-7 -28 -15 -49 -17 -46 -3 3 0 28 7 56 7 28 15 49 17 46 3 -3 0 -28 -7
-56z m-89 -307 c-30 -59 -41 -91 -41 -125 0 -42 -2 -47 -31 -57 -17 -6 -44
-22 -61 -36 -16 -14 -35 -25 -42 -25 -7 0 -21 -9 -32 -21 -17 -19 -19 -19 -25
-2 -7 18 -3 145 7 211 5 31 7 32 39 26 28 -5 36 -2 49 18 8 12 18 42 22 66 4
25 11 41 18 39 6 -3 9 -11 7 -18 -10 -35 -5 -54 15 -57 31 -4 75 41 72 75 -3
49 13 61 29 20 14 -34 13 -38 -26 -114z"/>
<path d="M1007 1729 c-6 -42 -53 -129 -74 -136 -7 -3 -13 8 -15 24 -2 17 -9
28 -18 28 -12 0 -16 -21 -21 -101 -6 -101 -19 -144 -43 -144 -8 0 -13 15 -13
44 0 80 -63 134 -78 66 -4 -16 -4 -38 0 -49 4 -15 -1 -20 -28 -25 l-34 -6 -5
-108 c-3 -59 -13 -138 -23 -177 -20 -83 -99 -250 -120 -259 -14 -5 -14 -9 0
-35 17 -34 21 -174 5 -216 l-10 -26 -39 21 c-26 13 -42 16 -46 9 -9 -13 9 -34
51 -59 52 -33 75 -12 97 85 3 11 5 -4 6 -33 0 -29 -6 -69 -14 -89 -19 -44 -19
-63 -1 -63 7 0 19 15 26 33 6 17 20 51 31 75 21 46 25 97 9 107 -15 9 -12 66
4 84 8 9 21 46 30 83 9 37 34 104 56 148 22 44 40 91 40 105 0 15 -11 50 -24
78 -16 36 -25 76 -27 129 -5 94 8 106 51 46 33 -45 74 -71 99 -63 9 3 41 29
70 59 48 49 55 61 62 111 6 46 19 80 77 198 2 5 -5 11 -16 14 -14 3 -22 16
-26 44 -8 53 -32 51 -39 -2z m2 -133 c-16 -35 -34 -87 -38 -115 -6 -39 -17
-61 -41 -86 -19 -19 -36 -33 -38 -30 -9 8 33 185 43 185 15 0 49 38 69 78 31
60 35 32 5 -32z m-219 -139 c0 -10 -4 -15 -10 -12 -5 3 -10 18 -10 33 0 21 2
24 10 12 5 -8 10 -23 10 -33z m-47 -296 c11 -27 14 -48 8 -68 -10 -35 -41 -96
-46 -91 -7 7 8 198 15 198 4 0 15 -18 23 -39z m-86 -213 c-3 -8 -6 -5 -6 6 -1
11 2 17 5 13 3 -3 4 -12 1 -19z m-51 -150 c0 -46 -2 -64 -7 -48 -12 42 -9 120
5 120 1 0 2 -33 2 -72z"/>
<path d="M2030 1693 c-19 -20 -28 -34 -20 -31 59 22 60 22 60 -20 0 -35 26
-120 34 -111 2 2 1 47 -3 99 -7 111 -17 119 -71 63z"/>
<path d="M2355 1580 c-18 -12 -38 -17 -52 -14 -19 5 -23 2 -23 -15 0 -32 27
-36 77 -12 25 12 47 20 50 17 18 -18 -80 -96 -120 -96 -29 0 -95 -68 -110
-113 -12 -39 -18 -43 -73 -62 -77 -26 -106 -43 -184 -109 -36 -31 -98 -80
-137 -111 -40 -30 -73 -62 -73 -70 0 -8 2 -15 5 -15 14 0 157 104 225 164 74
65 110 87 202 125 40 17 48 25 59 61 15 51 56 86 116 102 28 7 60 25 85 49 34
32 39 42 36 76 -3 32 -7 38 -28 40 -14 1 -38 -7 -55 -17z"/>
<path d="M1427 1444 c1 -46 7 -62 27 -83 35 -37 34 -78 -3 -125 -17 -21 -37
-58 -47 -84 -9 -26 -30 -76 -45 -111 -36 -79 -36 -107 -2 -138 22 -21 30 -23
50 -14 33 15 29 26 -14 37 -27 6 -39 15 -41 29 -3 22 91 215 134 274 35 50 33
108 -6 146 -25 24 -30 36 -30 77 0 32 -4 48 -12 48 -9 0 -12 -17 -11 -56z"/>
<path d="M1835 1390 c-30 -58 20 -72 53 -16 18 30 18 35 5 40 -29 11 -43 6
-58 -24z"/>
<path d="M1276 1323 c-4 -4 -16 -27 -26 -51 -28 -63 -72 -131 -90 -137 -20 -7
-80 -64 -80 -76 0 -6 15 1 33 15 19 15 42 26 53 26 21 0 85 93 111 160 9 22
20 37 24 34 5 -3 9 -1 9 4 0 14 -26 33 -34 25z"/>
<path d="M1134 745 c-36 -49 -44 -64 -38 -79 8 -20 33 -21 40 -1 10 25 24 17
24 -15 0 -17 -9 -37 -22 -50 -20 -18 -23 -19 -40 -3 -17 15 -18 14 -18 -15 0
-57 73 -51 110 10 31 51 26 95 -13 133 -25 25 -36 30 -43 20z"/>
</g>
</svg>
